<svg width="32" height="32" viewBox="0 0 32 32" fill="none" xmlns="http://www.w3.org/2000/svg">
<path fill-rule="evenodd" clip-rule="evenodd" d="M9.76121 5.34255C13.8864 4.88582 18.0494 4.88582 22.1745 5.34255C24.4585 5.59855 26.3012 7.39722 26.5692 9.68922C27.058 13.8732 27.058 18.0999 26.5692 22.2839C26.3012 24.5759 24.4585 26.3746 22.1745 26.6306C18.0494 27.0873 13.8864 27.0873 9.76121 26.6306C7.47721 26.3746 5.63455 24.5759 5.36655 22.2839C4.87782 18.1003 4.87782 13.8741 5.36655 9.69055C5.5021 8.57705 6.00972 7.54195 6.80712 6.75301C7.60453 5.96408 8.64499 5.46755 9.75988 5.34389M15.9679 9.32922C16.2331 9.32922 16.4874 9.43458 16.675 9.62211C16.8625 9.80965 16.9679 10.064 16.9679 10.3292V14.9866H21.6252C21.8904 14.9866 22.1448 15.0919 22.3323 15.2794C22.5199 15.467 22.6252 15.7213 22.6252 15.9866C22.6252 16.2518 22.5199 16.5061 22.3323 16.6937C22.1448 16.8812 21.8904 16.9866 21.6252 16.9866H16.9679V21.6439C16.9679 21.9091 16.8625 22.1635 16.675 22.351C16.4874 22.5385 16.2331 22.6439 15.9679 22.6439C15.7027 22.6439 15.4483 22.5385 15.2608 22.351C15.0732 22.1635 14.9679 21.9091 14.9679 21.6439V16.9866H10.3105C10.0453 16.9866 9.79098 16.8812 9.60344 16.6937C9.4159 16.5061 9.31055 16.2518 9.31055 15.9866C9.31055 15.7213 9.4159 15.467 9.60344 15.2794C9.79098 15.0919 10.0453 14.9866 10.3105 14.9866H14.9679V10.3292C14.9679 10.064 15.0732 9.80965 15.2608 9.62211C15.4483 9.43458 15.7027 9.32922 15.9679 9.32922Z" fill="#F1FAFF"/>
</svg>
