<svg width="20" height="106" viewBox="0 0 20 106" fill="none" xmlns="http://www.w3.org/2000/svg">
<path d="M10 0C4.47715 0 0 5.34025 0 11.9278C0 18.5153 4.47715 23.8555 10 23.8555C15.5228 23.8555 20 18.5153 20 11.9278C19.9936 5.34342 15.5202 0.00766833 10 0Z" fill="#2D446E"/>
<path d="M15.7725 8.15064L10.0683 17.3837C9.93228 17.599 9.72942 17.7401 9.50533 17.7752C9.28124 17.8104 9.05472 17.7366 8.87665 17.5706L4.80331 13.6861C4.44387 13.343 4.38567 12.7173 4.67331 12.2886C4.96096 11.8598 5.48554 11.7904 5.84498 12.1335L9.24165 15.3749L14.4308 6.97476C14.601 6.67019 14.8977 6.50181 15.2032 6.53645C15.5086 6.5711 15.7734 6.80317 15.8924 7.14053C16.0114 7.47789 15.9653 7.86595 15.7725 8.15064Z" fill="white"/>
<path d="M10 41C4.47715 41 0 46.3402 0 52.9278C0 59.5153 4.47715 64.8555 10 64.8555C15.5228 64.8555 20 59.5153 20 52.9278C19.9936 46.3434 15.5202 41.0077 10 41Z" fill="#2D446E"/>
<path d="M15.7725 49.1506L10.0683 58.3837C9.93228 58.599 9.72942 58.7401 9.50533 58.7752C9.28124 58.8103 9.05472 58.7366 8.87665 58.5706L4.80331 54.6861C4.44387 54.343 4.38567 53.7173 4.67331 53.2886C4.96096 52.8598 5.48554 52.7904 5.84498 53.1335L9.24165 56.3749L14.4308 47.9748C14.601 47.6702 14.8977 47.5018 15.2032 47.5364C15.5086 47.5711 15.7734 47.8032 15.8924 48.1405C16.0114 48.4779 15.9653 48.8659 15.7725 49.1506Z" fill="white"/>
<path d="M10 82C4.47715 82 0 87.3402 0 93.9278C0 100.515 4.47715 105.856 10 105.856C15.5228 105.856 20 100.515 20 93.9278C19.9936 87.3434 15.5202 82.0077 10 82Z" fill="#2D446E"/>
<path d="M15.7725 90.1506L10.0683 99.3837C9.93228 99.599 9.72942 99.7401 9.50533 99.7752C9.28124 99.8104 9.05472 99.7366 8.87665 99.5706L4.80331 95.6861C4.44387 95.343 4.38567 94.7173 4.67331 94.2886C4.96096 93.8598 5.48554 93.7904 5.84498 94.1335L9.24165 97.3749L14.4308 88.9748C14.601 88.6702 14.8977 88.5018 15.2032 88.5365C15.5086 88.5711 15.7734 88.8032 15.8924 89.1405C16.0114 89.4779 15.9653 89.8659 15.7725 90.1506Z" fill="white"/>
</svg>
