<svg width="20" height="23" viewBox="0 0 20 23" fill="none" xmlns="http://www.w3.org/2000/svg">
<path d="M10 0C4.47715 0 0 4.96929 0 11.0992C0 17.2292 4.47715 22.1984 10 22.1984C15.5228 22.1984 20 17.2292 20 11.0992C19.9936 4.97225 15.5202 0.00713566 10 0Z" fill="#2D446E"/>
<path d="M15.7725 7.58447L10.0683 16.1762C9.93228 16.3765 9.72942 16.5078 9.50533 16.5405C9.28124 16.5732 9.05472 16.5046 8.87665 16.3501L4.80331 12.7354C4.44387 12.4162 4.38567 11.8339 4.67331 11.435C4.96096 11.036 5.48554 10.9714 5.84498 11.2907L9.24165 14.3069L14.4308 6.49027C14.601 6.20686 14.8977 6.05017 15.2032 6.08241C15.5086 6.11465 15.7734 6.3306 15.8924 6.64453C16.0114 6.95845 15.9653 7.31956 15.7725 7.58447Z" fill="white"/>
</svg>
