<svg width="71" height="71" viewBox="0 0 71 71" fill="none" xmlns="http://www.w3.org/2000/svg">
<path fill-rule="evenodd" clip-rule="evenodd" d="M21.8461 32.7692C23.2946 32.7692 24.6838 32.1938 25.708 31.1696C26.7322 30.1453 27.3077 28.7562 27.3077 27.3077C27.3077 25.8592 26.7322 24.47 25.708 23.4458C24.6838 22.4216 23.2946 21.8462 21.8461 21.8462C20.3976 21.8462 19.0085 22.4216 17.9842 23.4458C16.96 24.47 16.3846 25.8592 16.3846 27.3077C16.3846 28.7562 16.96 30.1453 17.9842 31.1696C19.0085 32.1938 20.3976 32.7692 21.8461 32.7692ZM21.8461 35.5C24.0189 35.5 26.1026 34.6369 27.639 33.1005C29.1753 31.5642 30.0384 29.4804 30.0384 27.3077C30.0384 25.135 29.1753 23.0512 27.639 21.5149C26.1026 19.9785 24.0189 19.1154 21.8461 19.1154C19.6734 19.1154 17.5896 19.9785 16.0533 21.5149C14.5169 23.0512 13.6538 25.135 13.6538 27.3077C13.6538 29.4804 14.5169 31.5642 16.0533 33.1005C17.5896 34.6369 19.6734 35.5 21.8461 35.5Z" fill="#222F49"/>
<path fill-rule="evenodd" clip-rule="evenodd" d="M18.7167 32.4852C18.8438 32.6121 18.9447 32.7627 19.0136 32.9286C19.0824 33.0945 19.1178 33.2723 19.1178 33.4519C19.1178 33.6315 19.0824 33.8094 19.0136 33.9752C18.9447 34.1411 18.8438 34.2918 18.7167 34.4186L17.7937 35.3389C16.0174 37.1156 15.0195 39.5251 15.0192 42.0375V47.1058C15.0192 47.4679 14.8754 47.8152 14.6193 48.0712C14.3633 48.3273 14.016 48.4712 13.6538 48.4712C13.2917 48.4712 12.9444 48.3273 12.6884 48.0712C12.4323 47.8152 12.2885 47.4679 12.2885 47.1058V42.0375C12.2888 38.8009 13.5746 35.697 15.863 33.4082L16.7833 32.4852C16.9101 32.3581 17.0608 32.2572 17.2267 32.1884C17.3926 32.1195 17.5704 32.0841 17.75 32.0841C17.9296 32.0841 18.1074 32.1195 18.2733 32.1884C18.4392 32.2572 18.5899 32.3581 18.7167 32.4852ZM50.9179 31.666C50.7908 31.7928 50.6899 31.9435 50.621 32.1094C50.5522 32.2753 50.5168 32.4531 50.5168 32.6327C50.5168 32.8123 50.5522 32.9901 50.621 33.156C50.6899 33.3219 50.7908 33.4726 50.9179 33.5994L51.8409 34.5197C53.6172 36.2964 54.6151 38.7059 54.6154 41.2182V47.1058C54.6154 47.4679 54.7592 47.8152 55.0153 48.0712C55.2713 48.3273 55.6186 48.4712 55.9808 48.4712C56.3429 48.4712 56.6902 48.3273 56.9462 48.0712C57.2023 47.8152 57.3461 47.4679 57.3461 47.1058V41.2182C57.3458 37.9817 56.06 34.8778 53.7716 32.589L52.8513 31.666C52.7245 31.5388 52.5738 31.438 52.4079 31.3691C52.242 31.3003 52.0642 31.2649 51.8846 31.2649C51.705 31.2649 51.5272 31.3003 51.3613 31.3691C51.1954 31.438 51.0447 31.5388 50.9179 31.666Z" fill="#222F49"/>
<path fill-rule="evenodd" clip-rule="evenodd" d="M46.4231 32.7692C44.9746 32.7692 43.5854 32.1938 42.5612 31.1696C41.5369 30.1453 40.9615 28.7562 40.9615 27.3077C40.9615 25.8592 41.5369 24.47 42.5612 23.4458C43.5854 22.4216 44.9746 21.8462 46.4231 21.8462C47.8715 21.8462 49.2607 22.4216 50.285 23.4458C51.3092 24.47 51.8846 25.8592 51.8846 27.3077C51.8846 28.7562 51.3092 30.1453 50.285 31.1696C49.2607 32.1938 47.8715 32.7692 46.4231 32.7692ZM46.4231 35.5C44.2503 35.5 42.1666 34.6369 40.6302 33.1005C39.0939 31.5642 38.2308 29.4804 38.2308 27.3077C38.2308 25.135 39.0939 23.0512 40.6302 21.5149C42.1666 19.9785 44.2503 19.1154 46.4231 19.1154C48.5958 19.1154 50.6795 19.9785 52.2159 21.5149C53.7523 23.0512 54.6154 25.135 54.6154 27.3077C54.6154 29.4804 53.7523 31.5642 52.2159 33.1005C50.6795 34.6369 48.5958 35.5 46.4231 35.5ZM34.1346 44.375C32.324 44.375 30.5875 45.0943 29.3072 46.3746C28.0269 47.6549 27.3077 49.3913 27.3077 51.2019V54.7519C27.3077 55.114 27.1638 55.4613 26.9078 55.7174C26.6517 55.9735 26.3044 56.1173 25.9423 56.1173C25.5802 56.1173 25.2329 55.9735 24.9768 55.7174C24.7208 55.4613 24.5769 55.114 24.5769 54.7519V51.2019C24.5769 48.6671 25.5839 46.236 27.3763 44.4436C29.1687 42.6512 31.5997 41.6442 34.1346 41.6442C36.6695 41.6442 39.1005 42.6512 40.8929 44.4436C42.6853 46.236 43.6923 48.6671 43.6923 51.2019V54.7519C43.6923 55.114 43.5484 55.4613 43.2924 55.7174C43.0363 55.9735 42.689 56.1173 42.3269 56.1173C41.9648 56.1173 41.6175 55.9735 41.3614 55.7174C41.1054 55.4613 40.9615 55.114 40.9615 54.7519V51.2019C40.9615 49.3913 40.2423 47.6549 38.962 46.3746C37.6817 45.0943 35.9452 44.375 34.1346 44.375Z" fill="#222F49"/>
<path fill-rule="evenodd" clip-rule="evenodd" d="M34.1346 40.2788C35.5831 40.2788 36.9722 39.7034 37.9965 38.6792C39.0207 37.655 39.5961 36.2658 39.5961 34.8173C39.5961 33.3688 39.0207 31.9797 37.9965 30.9554C36.9722 29.9312 35.5831 29.3558 34.1346 29.3558C32.6861 29.3558 31.2969 29.9312 30.2727 30.9554C29.2484 31.9797 28.673 33.3688 28.673 34.8173C28.673 36.2658 29.2484 37.655 30.2727 38.6792C31.2969 39.7034 32.6861 40.2788 34.1346 40.2788ZM34.1346 43.0096C36.3073 43.0096 38.3911 42.1465 39.9274 40.6101C41.4638 39.0738 42.3269 36.99 42.3269 34.8173C42.3269 32.6446 41.4638 30.5608 39.9274 29.0245C38.3911 27.4881 36.3073 26.625 34.1346 26.625C31.9618 26.625 29.8781 27.4881 28.3417 29.0245C26.8054 30.5608 25.9423 32.6446 25.9423 34.8173C25.9423 36.99 26.8054 39.0738 28.3417 40.6101C29.8781 42.1465 31.9618 43.0096 34.1346 43.0096Z" fill="#222F49"/>
<path fill-rule="evenodd" clip-rule="evenodd" d="M35.5 66.9038C52.8431 66.9038 66.9038 52.8431 66.9038 35.5C66.9038 18.1569 52.8431 4.09616 35.5 4.09616C18.1569 4.09616 4.09613 18.1569 4.09613 35.5C4.09613 52.8431 18.1569 66.9038 35.5 66.9038ZM35.5 69.6346C54.3532 69.6346 69.6346 54.3532 69.6346 35.5C69.6346 16.6468 54.3532 1.36539 35.5 1.36539C16.6467 1.36539 1.36536 16.6468 1.36536 35.5C1.36536 54.3532 16.6467 69.6346 35.5 69.6346Z" fill="#222F49"/>
</svg>
