<svg width="50" height="50" viewBox="0 0 50 50" fill="none" xmlns="http://www.w3.org/2000/svg">
<path d="M40.625 6.25H9.375C7.64911 6.25 6.25 7.64911 6.25 9.375V40.625C6.25 42.3509 7.64911 43.75 9.375 43.75H40.625C42.3509 43.75 43.75 42.3509 43.75 40.625V9.375C43.75 7.64911 42.3509 6.25 40.625 6.25Z" stroke="#222F49" stroke-width="2.66667" stroke-linecap="round" stroke-linejoin="round"/>
<path d="M21.875 17.7084H13.5416V32.2917H21.3541M13.5416 25H21.3541M27.0833 19.7917V32.2917V25.5209C27.0833 24.2777 27.5772 23.0854 28.4562 22.2063C29.3353 21.3272 30.5276 20.8334 31.7708 20.8334C33.014 20.8334 34.2063 21.3272 35.0854 22.2063C35.9644 23.0854 36.4583 24.2777 36.4583 25.5209V32.2917" stroke="#222F49" stroke-width="2.66667" stroke-linecap="round" stroke-linejoin="round"/>
</svg>
