<svg width="69" height="70" viewBox="0 0 69 70" fill="none" xmlns="http://www.w3.org/2000/svg">
<path d="M66.5742 8.38948L55.4453 19.0445L66.091 37.2226L66.5742 36.6132V8.38948ZM2.42578 8.54493V39.4287C3.02953 39.5083 3.75497 39.5522 4.48702 39.56C6.08669 39.5771 7.40524 39.4711 8.14591 39.4036L15.242 21.1879L2.42578 8.54493ZM54.8704 22.8813L53.9216 23.5041C53.9014 23.5174 53.199 23.9602 52.9927 24.0907L51.5635 24.9684L51.5837 24.9807C50.9215 25.3987 50.7374 25.5162 49.9858 25.9897C49.6044 26.2299 49.595 26.2355 49.2333 26.4634C46.4989 24.9722 43.5319 23.8261 40.0695 22.9249C35.7149 24.2595 31.1019 26.1908 26.4956 28.0029C28.4079 30.339 30.5332 31.0997 32.6739 31.1269C35.1563 31.1583 37.6939 30.0632 39.4416 28.8363L40.4389 28.1363L41.4396 29.6033L56.9987 40.9961L63.0783 36.8963L54.8704 22.8813ZM17.0448 23.2559L10.9308 38.9494L13.1747 40.6998L17.3248 35.9276L17.6573 35.5455L18.1586 35.5138C18.3607 35.5009 18.5602 35.495 18.757 35.496C20.1332 35.505 21.3636 35.8674 22.2865 36.6937C22.97 37.3051 23.4244 38.1191 23.688 39.0616L23.9953 39.0422C25.6118 38.9397 27.0682 39.2781 28.1232 40.2221C29.178 41.1664 29.6905 42.5905 29.7916 44.2307L29.801 44.3784C30.6689 44.5446 31.4458 44.8913 32.0776 45.4568C33.1325 46.401 33.6449 47.8248 33.746 49.465L33.7725 49.8915C33.8587 49.9192 33.944 49.9492 34.0286 49.9815L34.3026 49.5915L35.0397 48.5417L35.4188 48.0017L36.4067 48.7158L44.4155 54.5039C45.2866 54.286 45.8059 53.9468 46.0947 53.5351C46.384 53.1233 46.5304 52.5138 46.4483 51.6064L36.8452 44.6297L35.859 43.9132L36.5584 42.9226L37.4573 41.6422L38.4451 42.3563L49.2715 50.1802C50.1427 49.9624 50.6623 49.6232 50.9511 49.2115C51.24 48.8 51.3864 48.192 51.3049 47.2862L38.8528 38.3243L37.8636 37.612L39.2671 35.605L40.2566 36.317L52.7109 45.281C53.5828 45.0631 54.1026 44.7239 54.3918 44.3119C54.6813 43.8997 54.8275 43.2898 54.7449 42.3808L39.8614 31.4829C37.8864 32.6707 35.3599 33.6223 32.6437 33.5878C29.465 33.5475 26.0649 32.0065 23.5636 28.1123C23.4647 27.9583 23.401 27.7837 23.3773 27.6015C23.3536 27.4193 23.3704 27.2339 23.4266 27.0592C23.4827 26.8844 23.5767 26.7246 23.7017 26.5915C23.8267 26.4585 23.9795 26.3555 24.1489 26.2902C25.9028 25.6141 27.6748 24.8998 29.451 24.191L17.045 23.2567L17.0448 23.2559ZM18.7835 37.9695L12.3735 45.34C12.4984 46.2624 12.7832 46.836 13.1669 47.1795C13.5505 47.5229 14.1473 47.738 15.0649 47.7488L21.4748 40.3785C21.3498 39.4561 21.0651 38.8821 20.6814 38.5387C20.2977 38.1953 19.7011 37.9803 18.7834 37.9697L18.7835 37.9695ZM24.6199 41.4982L17.3813 49.8217C17.5061 50.7441 17.7909 51.3181 18.1745 51.6615C18.5586 52.0047 19.1549 52.2197 20.0727 52.2303L27.3113 43.9071C27.1865 42.9845 26.9016 42.4108 26.518 42.0673C26.1343 41.7237 25.5378 41.5088 24.6201 41.498L24.6199 41.4982ZM28.5739 46.7327L22.1645 54.1032C22.2894 55.0255 22.5742 55.5993 22.9579 55.9429C23.3417 56.2863 23.9383 56.5011 24.8559 56.5119L31.2656 49.1422C31.1407 48.2193 30.8559 47.6455 30.4723 47.302C30.0886 46.9585 29.492 46.7437 28.5742 46.7329L28.5739 46.7327ZM31.9029 52.0834L26.6748 58.1373C26.7995 59.0616 27.0843 59.636 27.4683 59.9798C27.8517 60.3229 28.4477 60.5378 29.3641 60.5489L34.5924 54.495C34.4677 53.5711 34.1828 52.9966 33.7987 52.6526C33.4154 52.3094 32.8195 52.0948 31.9031 52.0836L31.9029 52.0834ZM36.6658 52.7383C36.8941 53.3699 37.026 54.07 37.072 54.8153L37.1033 55.3217L35.9878 56.6135L39.5893 59.2162C40.4604 58.9982 40.9795 58.659 41.2685 58.2474C41.5575 57.8359 41.7042 57.2269 41.6226 56.3206L36.666 52.7386L36.6658 52.7383Z" fill="#222F49"/>
</svg>
