<svg width="635" height="635" viewBox="0 0 635 635" fill="none" xmlns="http://www.w3.org/2000/svg">
<g clip-path="url(#clip0_7_42)">
<path d="M329.565 148.59H449.897L453.072 148.907L453.707 149.225L454.025 150.495V222.885L453.707 226.377H508.318L508.635 167.64L508.952 156.527L509.587 155.575L511.175 155.257H633.095L635 155.892V252.095L633.412 253.047H558.482L547.052 252.73L544.83 252.095L543.878 251.46L543.56 322.897L542.607 324.167L541.655 324.485L446.405 324.802L446.723 347.662V395.287L446.405 401.32L445.135 402.59L440.055 403.542H392.747L393.383 404.177V417.512L407.67 417.195H416.56L423.228 417.512L423.545 419.735L422.91 422.592L426.402 422.91L426.72 423.227V430.53L434.022 430.212L434.975 425.132L436.245 422.592L438.467 420.687L440.055 420.052H458.788L461.327 421.005L463.55 423.545L464.503 426.402L464.82 430.53H488.95L495.935 430.847L497.522 431.8L498.475 432.752L499.11 434.657V439.102L498.158 441.642L496.887 442.912L494.665 443.23H253.365L251.777 442.595L250.19 440.372V435.927L239.077 440.055L228.283 444.182L219.71 447.04L216.217 447.992L213.677 447.675L212.09 447.357H209.55L208.28 447.675L128.27 447.992L100.647 447.675L100.33 447.357L100.012 418.782L98.425 420.37L93.98 425.767L90.17 430.212L87.3125 433.705L83.5025 437.832L80.3275 441.007L77.1525 442.912L73.66 444.182H67.31L64.4525 442.912L61.9125 441.007L59.055 437.515L54.2925 429.26L50.165 420.052L46.6725 410.845L42.8625 399.415L40.3225 390.842L37.1475 378.777L36.195 375.92L23.8125 370.205L17.78 367.03L13.0175 363.855L8.89 360.68L5.715 357.822L3.81 355.6L2.8575 352.742L0.3175 348.932L0 348.615V347.027L0.635 346.392V345.44L0 345.122V343.535L2.2225 341.312L5.08 339.09H10.16L16.8275 340.995L25.4 343.852L32.0675 345.122H33.9725L29.845 339.407L26.67 334.01L26.3525 331.787L26.9875 331.47H30.1625L33.02 332.74L34.925 334.01L38.735 337.502L45.72 344.487L49.2125 348.932L53.0225 354.647L55.5625 359.41L59.69 368.935L68.8975 392.112L72.7075 401.955L73.025 402.907L74.295 402.272L76.5175 399.732L78.105 397.192L77.47 395.605L76.2 394.017L76.835 392.112L83.185 383.857L86.6775 379.73L90.17 375.92L91.44 374.967L90.805 373.697L86.6775 370.522L83.82 367.665L81.5975 364.49L79.6925 360.68L79.0575 358.775L78.74 356.552V353.06L79.6925 347.345L81.28 342.265L84.455 336.232L88.265 331.152L92.3925 326.072L96.52 321.31L99.3775 317.817L101.917 314.642L105.092 309.245L107.95 302.577L112.077 291.782L114.618 286.067L117.792 280.67L120.332 277.495L124.143 273.367L125.412 272.415L125.73 264.16L126.048 193.04L127 192.405H318.135L319.405 193.04L319.723 193.992V306.07H341.948V295.91L342.265 294.957H389.255L389.89 295.275L390.207 296.862V306.07H417.195V247.015L355.283 246.697L354.647 245.427H354.012L353.378 246.697H337.503L329.883 246.38L327.66 244.475V183.832L327.978 150.495L328.93 148.907L329.565 148.59ZM193.992 342.9L195.58 346.392L196.533 350.837V354.647L195.897 357.505L195.262 359.092L196.215 360.68H196.85L197.485 361.95L201.613 366.077L204.47 369.57L208.598 374.65L211.772 378.777L215.583 383.857L220.027 389.89L221.932 393.065L221.615 394.97L219.71 397.827L218.757 399.415L221.298 404.177L225.742 411.162L227.965 414.337H230.505L275.59 407.352L282.258 404.495L290.83 400.685L291.147 400.05L291.465 342.9H193.992ZM324.485 403.542L325.12 404.812L327.342 407.035L330.835 411.48L332.422 414.337L332.74 417.195V417.83L356.235 417.512L356.552 414.02L356.87 404.495L359.41 404.177L359.728 403.542H324.485ZM311.467 416.56L304.165 417.83L304.8 419.1H305.435V418.147L310.198 417.83L313.372 416.877V416.56H311.467ZM301.307 417.83L296.862 419.417L290.195 423.227L285.432 424.815L278.448 425.132H276.225L267.017 428.942L265.112 429.895L265.747 430.53H296.545L297.18 430.212L297.497 423.227L306.705 422.592L307.658 421.957L306.387 421.322L305.435 419.735L304.165 420.052L303.53 419.735L303.848 418.147L303.53 417.83H301.307Z" fill="#E29B83"/>
<path d="M127 192.405H318.135L319.405 193.04L319.722 193.993V305.753L315.595 306.07L292.1 306.388L291.465 306.705L290.83 313.373L222.885 313.69L222.25 315.913L222.885 317.818L223.52 318.135L229.235 318.453H290.83V342.583L290.512 342.9L194.31 343.218L195.897 346.393L196.85 350.838V354.648L196.215 357.505L195.58 358.458L194.31 357.823L189.547 354.33L184.785 351.79L181.927 350.838L176.847 350.203V352.743L177.165 355.6L176.53 365.125L175.895 367.983L174.625 368.618L172.085 366.078L169.227 362.268L165.1 357.823L163.512 355.6V354.33H165.1L168.91 358.14L172.085 362.585L173.672 363.538L174.307 360.68L174.625 358.458L174.942 350.52L175.26 349.25L172.085 345.123L169.545 341.313L169.862 340.678L174.625 339.09L178.117 336.868L180.022 334.645L182.245 331.153L183.197 327.025L183.515 322.898V319.405L185.737 320.675V321.31L187.007 321.945L189.865 324.485L191.135 325.438L190.5 326.708L187.642 328.93L185.102 331.788L185.42 332.74L185.737 337.185L187.325 338.773L191.452 339.09L194.31 336.55L195.262 334.328V330.2L192.405 322.898L188.912 319.405L183.832 316.548L182.88 315.913L180.975 307.658L178.752 297.815V295.91H174.942L167.005 294.323L159.702 291.783L151.765 288.29L145.097 284.798L144.145 284.48L143.51 287.02L140.97 292.735L136.525 301.308L133.35 307.023L132.08 307.658L130.492 306.388L128.27 305.435L127.952 304.483L127.635 299.72L128.27 291.148L129.857 285.115L132.397 280.035L135.255 276.86L138.112 274.003L142.875 270.828L147.32 268.923L150.177 267.97L152.4 267.653H161.925L156.845 266.065L152.082 265.113H147.955L144.462 265.43L137.795 267.97L132.715 270.828L129.222 273.685L125.73 277.178L123.507 280.67L120.967 286.068L119.697 290.195L119.062 294.958L118.427 300.038V302.895L118.745 305.753L115.252 307.658L113.347 310.198L112.077 312.42L111.442 315.278V319.088L112.395 322.898L114.3 326.39L115.887 328.295L119.062 330.2L121.285 331.153H124.777L130.175 329.565H138.43L139.7 337.185V340.043L135.255 344.488L130.175 348.933L128.905 349.885L134.62 357.505L135.89 359.41L139.382 363.22L141.605 365.443L142.875 367.03L144.78 367.665L145.415 366.078L148.59 361.95L152.082 357.505L153.987 355.283L154.94 355.6L154.622 357.505L152.717 360.363L148.907 365.76L145.732 370.205L144.462 370.84L142.557 369.57L139.382 366.713L136.525 363.538L133.985 360.363L131.762 357.823L128.587 353.378L127.635 350.838H125.412L118.745 352.743L113.982 354.648L108.902 357.505L104.775 360.68L101.6 363.538L99.06 365.76L96.2025 368.935L92.075 373.38L90.805 373.698L86.6775 370.523L83.82 367.665L81.5975 364.49L79.6925 360.68L79.0575 358.775L78.74 356.553V353.06L79.6925 347.345L81.28 342.265L84.455 336.233L88.265 331.153L92.3925 326.073L96.52 321.31L99.3775 317.818L101.917 314.643L105.092 309.245L107.95 302.578L112.077 291.783L114.617 286.068L117.792 280.67L120.332 277.495L124.142 273.368L125.412 272.415L125.73 264.16L126.047 193.04L127 192.405Z" fill="#026E9D"/>
<path d="M147.955 264.795H152.083L158.115 266.065L161.925 267.335L162.242 267.97H152.4L149.225 268.605L144.145 270.51L140.335 272.732L137.16 275.272L133.35 279.082L131.128 282.892L129.54 287.337L128.587 291.147L127.952 300.99L128.27 305.435L130.492 306.07L132.08 307.34L133.033 307.022L137.795 298.132L140.97 292.1L143.51 286.385L144.145 284.48L145.732 284.797L151.765 287.972L159.702 291.465L168.275 294.322L174.943 295.592L178.753 295.91L180.34 303.212L182.88 314.96L183.197 315.912L187.325 318.135L189.865 320.04L192.723 322.897L195.58 330.2V334.327L194.31 336.867L192.087 338.772L191.452 339.407L187.325 339.09L185.42 337.185L185.102 332.74V331.47L187.325 328.93L189.23 327.342L190.817 326.072L190.5 325.12L187.643 322.897L185.738 321.31V320.675L183.833 319.722V323.215L183.197 328.295L182.562 331.152L179.705 335.597L176.848 338.137L173.037 340.042L169.863 340.995L171.45 343.852L174.625 347.98L175.577 349.25L175.26 350.52L174.943 358.457L174.307 362.902L173.355 363.855L171.132 361.95L167.958 357.505L165.1 354.647L163.512 354.33L164.465 356.552L167.322 359.727L169.545 362.267L173.037 366.712L174.625 368.3L175.577 367.982L176.212 365.125L176.848 354.33L176.53 350.837L176.848 350.202H180.022L183.833 351.155L188.912 353.695L191.77 355.6L195.58 358.457L196.215 360.362L201.93 366.077L204.787 369.57L208.915 374.65L212.09 378.777L215.9 383.857L220.345 389.89L222.25 393.065L221.932 394.97L220.027 397.827L219.075 399.415L220.027 401.637L217.805 401.32L214.63 405.447L211.455 407.352L210.82 407.035L210.185 402.272L207.645 395.922L206.375 393.382L203.518 389.572L200.342 385.762L199.708 385.445L198.755 383.857L197.167 382.587L194.31 378.142L191.135 374.015L190.5 372.427H188.277L190.182 376.872L192.723 380.682L195.58 383.857L198.438 387.667L201.93 391.795L204.787 395.922L207.327 401.002L208.915 407.035L209.232 410.527H209.867L209.55 412.115L207.962 415.29L205.74 418.147H205.105L204.47 420.052L205.423 423.862L207.01 429.895L210.185 439.737L211.455 444.182L211.772 446.405L212.09 447.04L208.28 447.675L128.27 447.992L100.647 447.675L100.33 447.357L100.012 418.782L98.425 420.37L93.98 425.767L90.17 430.212L87.3125 433.705L83.5025 437.832L80.3275 441.007L77.1525 442.912L73.66 444.182H67.31L64.4525 442.912L61.9125 441.007L59.055 437.515L54.2925 429.26L50.165 420.052L46.6725 410.845L42.8625 399.415L40.3225 390.842L37.1475 378.777L36.195 375.92L23.8125 370.205L17.78 367.03L13.0175 363.855L8.89 360.68L5.715 357.822L3.81 355.6L2.8575 352.742L0.3175 348.932L0 348.615V347.027L0.635 346.392V345.44L0 345.122V343.535L2.2225 341.312L5.08 339.09H10.16L16.8275 340.995L25.4 343.852L32.0675 345.122H33.9725L29.845 339.407L26.67 334.01L26.3525 331.787L26.9875 331.47H30.1625L33.02 332.74L34.925 334.01L38.735 337.502L45.72 344.487L49.2125 348.932L53.0225 354.647L55.5625 359.41L59.69 368.935L68.8975 392.112L72.7075 401.955L73.025 402.907L74.295 402.272L76.5175 399.732L78.105 397.192L77.47 395.605L76.2 394.017L76.835 392.112L83.185 383.857L86.6775 379.73L90.17 375.92L91.44 374.967L91.1225 373.697L93.6625 371.475L95.885 368.935L98.1075 366.712L100.33 364.172L103.823 360.997L107.95 357.822L112.713 354.965L117.792 352.742L124.143 350.837L125.412 350.52H127.635L129.857 354.965L132.397 358.14L134.62 360.68L138.747 365.76L141.605 368.617L144.462 370.522L145.732 369.887L148.59 365.76L151.765 361.315L153.988 357.822L154.622 356.552V355.6L153.352 356.235L149.86 360.68L145.732 366.077L144.78 367.665L142.875 367.347L138.43 362.585L134.938 358.775L132.715 355.282L130.175 352.107L128.587 349.567L132.08 347.027L134.62 344.487L137.16 342.265L139.382 340.042V337.185L138.43 330.835V329.565L130.175 329.882L124.777 331.47H121.285L116.84 329.247L114.935 327.66L112.713 324.167L111.442 320.675L111.125 319.087V315.277L112.077 311.785L114.3 308.292L116.84 306.387L118.427 305.752L118.11 302.895V300.037L119.062 293.687L119.38 290.195L121.285 284.48L124.46 278.447L127.952 274.637L130.175 272.415L134.303 269.557L139.382 267.017L144.462 265.112L147.955 264.795Z" fill="#F0DFD6"/>
<path d="M329.565 148.59H449.897L453.072 148.907L453.707 149.225L454.025 150.495V222.885L453.707 226.377H463.55V226.695L454.66 227.012L454.342 227.33L454.025 233.68L453.707 245.427L453.39 246.062L452.437 246.38L442.595 246.697H418.147L417.195 247.015L355.282 246.697L354.647 245.427H354.012L353.377 246.697H337.502L329.882 246.38L327.66 244.475V183.832L327.977 150.495L328.93 148.907L329.565 148.59Z" fill="#F0DFD6"/>
<path d="M296.862 311.15H435.61L436.245 311.468V393.383L435.927 393.7L298.132 394.018L296.862 392.748L296.545 382.27V311.468L296.862 311.15Z" fill="#F0DFD6"/>
<path d="M188.913 372.11H190.5L192.405 375.285L194.628 378.142L196.85 381.635L199.708 384.492V385.445L200.978 386.08L204.47 390.207L207.328 394.335L210.503 402.272L210.82 403.542V407.035L212.09 406.717L214.948 404.812L217.805 401.002L219.393 401.32L220.98 402.907L223.838 407.67L226.695 412.115L227.965 414.02H230.505L275.59 407.035L282.258 404.177L290.195 400.685H290.83V400.05L294.323 399.097L298.133 397.827L299.72 397.51H303.213L308.293 398.462L314.008 399.732L318.135 401.002L324.485 403.542L326.708 406.082L329.565 409.257L331.788 412.432L333.058 415.29V417.195L332.74 417.83L334.328 417.512H356.235L356.553 404.495L356.87 404.177L359.41 403.86L356.87 403.542L358.14 402.59L373.063 402.272H390.843L393.7 402.907L396.875 403.225V403.542H392.748L393.383 404.177V417.512L407.67 417.195H416.56L423.228 417.512L423.545 419.735L422.91 422.592L426.403 422.91L426.72 423.227V430.53L434.023 430.212L434.975 425.132L436.245 422.592L438.468 420.687L440.055 420.052H458.788L461.328 421.005L463.55 423.545L464.503 426.402L464.82 430.53H488.95L495.935 430.847L497.523 431.8L498.475 432.752L499.11 434.657V439.102L498.158 441.642L496.888 442.912L494.665 443.23H253.365L251.778 442.595L250.19 440.372V435.927L239.078 440.055L228.283 444.182L219.71 447.04L216.218 447.992L213.678 447.675L212.09 447.357L211.455 446.405L210.503 441.642L207.963 434.022L205.74 426.402L204.47 421.957L204.153 419.735L205.105 418.147L206.693 416.56L208.598 413.702L209.868 410.527H209.233L207.645 402.907L206.058 398.78L203.518 394.335L200.025 389.89L196.533 385.762L194.31 382.905L191.77 379.73L189.23 375.602L188.278 372.427L188.913 372.11ZM311.468 416.56L304.165 417.83L304.8 419.1H305.435V418.147L310.198 417.83L313.373 416.877V416.56H311.468ZM301.308 417.83L296.863 419.417L290.195 423.227L285.433 424.815L278.448 425.132H276.225L267.018 428.942L265.113 429.895L265.748 430.53H296.545L297.18 430.212L297.498 423.227L306.705 422.592L307.658 421.957L306.388 421.322L305.435 419.735L304.165 420.052L303.53 419.735L303.848 418.147L303.53 417.83H301.308Z" fill="#FDC797"/>
<path d="M511.175 155.257H633.095L635 155.892V252.095L633.412 253.047H608.012L607.06 244.475L605.472 235.902L603.885 231.14L601.662 227.647L598.17 223.837L593.725 220.98L587.375 217.487L580.072 214.312V208.915L581.66 207.327L584.2 205.422L585.152 203.835L586.105 201.612L587.057 199.707L592.137 198.755L594.995 196.85L596.582 194.627L597.852 191.77L597.535 188.912L596.582 187.325L594.677 186.372H592.455L589.597 187.642L588.01 187.96L585.787 184.467L582.295 179.07L577.85 172.402H576.58L571.817 177.165L570.23 177.8L569.912 175.895V172.72L568.96 173.672L567.372 176.53L564.832 179.07L563.562 178.752L562.61 175.895H561.975L561.022 179.387L560.07 181.927L557.847 187.325L557.53 188.912L555.942 188.595L552.767 187.007H550.545L548.64 188.595L547.687 190.817L548.005 193.992L549.592 196.85L551.815 199.072L555.307 200.342L558.482 200.66L561.34 205.74L563.562 207.645L565.467 208.597L565.785 208.915V214.312L562.292 215.9L556.577 218.44L550.862 222.25L547.687 224.79L544.195 227.647L541.02 226.377H512.127L508.317 226.06L508.635 167.64L508.952 156.527L509.587 155.575L511.175 155.257Z" fill="#026E9D"/>
<path d="M317.5 328.613H393.382L395.605 329.248L396.557 330.835V378.143L395.922 380.683L395.287 381L384.81 381.318H318.77L315.277 381L314.642 380.048L314.325 374.968V331.788L315.277 329.565L317.5 328.613Z" fill="#026D9C"/>
<path d="M147.955 264.795H152.083L158.115 266.065L161.925 267.335L162.243 267.97H152.4L149.225 268.605L144.145 270.51L140.335 272.732L137.16 275.272L133.35 279.082L131.128 282.892L129.54 287.337L128.587 291.147L127.952 300.99L128.27 305.435L130.493 306.07L132.08 307.34L133.032 307.022L137.795 298.132L140.97 292.1L143.51 286.385L144.145 284.48L145.732 284.797L151.765 287.972L159.702 291.465L168.275 294.322L174.942 295.592L178.753 295.91L180.34 303.212L182.88 314.96L183.198 315.912L187.325 318.135L189.865 320.04L192.722 322.897L195.58 330.2V334.327L194.31 336.867L192.088 338.772L191.452 339.407L187.325 339.09L185.42 337.185L185.103 332.74V331.47L187.325 328.93L189.23 327.342L190.817 326.072L190.5 325.12L187.643 322.897L185.737 321.31V320.675L183.832 319.722V323.215L183.198 328.295L182.562 331.152L179.705 335.597L176.847 338.137L173.037 340.042L169.862 340.995L171.45 343.852L174.625 347.98L175.577 349.25L175.26 350.52L174.942 358.457L174.307 362.902L173.355 363.855L171.132 361.95L167.958 357.505L165.1 354.647L163.513 354.33L164.465 356.552L167.322 359.727L167.005 360.362L165.417 359.092H164.782L164.147 361.95V373.062L163.83 373.697H162.56L158.75 365.442L157.162 361.315L155.892 358.775V357.822L154.622 357.505V355.6L153.353 356.235L149.86 360.68L145.732 366.077L144.78 367.665L142.875 367.347L138.43 362.585L134.938 358.775L132.715 355.282L130.175 352.107L128.587 349.567L132.08 347.027L134.62 344.487L137.16 342.265L139.382 340.042V337.185L138.43 330.835V329.565L130.175 329.882L124.778 331.47H121.285L116.84 329.247L114.935 327.66L112.712 324.167L111.442 320.675L111.125 319.087V315.277L112.077 311.785L114.3 308.292L116.84 306.387L118.427 305.752L118.11 302.895V300.037L119.062 293.687L119.38 290.195L121.285 284.48L124.46 278.447L127.952 274.637L130.175 272.415L134.302 269.557L139.382 267.017L144.462 265.112L147.955 264.795Z" fill="#FCC696"/>
<path d="M400.685 148.59H449.898L453.073 148.907L453.708 149.225L454.025 150.495V222.885L453.708 226.377H463.55V226.695L454.66 227.012L454.343 227.33L454.025 233.68L453.708 245.427L453.39 246.062L452.438 246.38L442.595 246.697H432.118L426.72 246.38L426.403 245.427L425.768 239.712L424.815 234.315L423.545 229.552L421.005 224.155L420.053 222.885V222.25H419.418V221.615H418.783V220.98L417.513 220.345L414.02 217.805L410.528 215.9L404.813 213.36L399.098 211.137L398.78 210.82V204.787L400.05 203.835L401.955 202.882L404.178 199.707L405.448 196.215L408.623 195.58L411.48 194.627L414.02 192.722L415.925 189.865L416.243 188.595V185.737L415.608 183.515L411.163 182.562L410.845 181.927L411.163 173.672L411.48 170.18L413.703 164.147L414.655 160.655L414.02 160.972L408.623 161.29L408.305 160.655L410.528 155.257L411.48 151.13L405.13 153.67L399.733 155.257H399.098L399.733 151.765L400.05 148.907L400.685 148.59Z" fill="#F0DFD6"/>
<path d="M26.9875 331.47H30.1625L33.02 332.74L34.925 334.01L38.735 337.502L45.72 344.487L49.2125 348.932L53.0225 354.647L55.5625 359.41L59.69 368.935L68.8975 392.112L72.7075 401.955L73.025 402.907L74.295 402.272L76.5175 399.732L77.47 397.827L79.375 398.462L81.915 400.685L90.17 408.94V409.575L91.44 410.21L93.6625 412.432L97.4725 415.29L99.06 416.56L99.3775 418.147L97.79 421.005L94.2975 425.45L90.17 430.212L87.3125 433.705L83.5025 437.832L80.3275 441.007L77.1525 442.912L73.66 444.182H67.31L64.4525 442.912L61.9125 441.007L59.055 437.515L54.2925 429.26L50.165 420.052L46.6725 410.845L42.8625 399.415L40.3225 390.842L37.1475 378.777L36.195 375.92L23.8125 370.205L17.78 367.03L13.0175 363.855L8.89 360.68L5.715 357.822L3.81 355.6L2.8575 352.742L0.3175 348.932L0 348.615V347.027L0.635 346.392V345.44L0 345.122V343.535L2.2225 341.312L5.08 339.09H10.16L16.8275 340.995L25.4 343.852L32.0675 345.122H33.9725L29.845 339.407L26.67 334.01L26.3525 331.787L26.9875 331.47Z" fill="#FDC897"/>
<path d="M576.898 171.767L578.168 172.402L582.613 179.07L585.47 183.515L588.01 187.642L589.598 187.325L592.455 186.055H594.678L596.9 187.325L597.853 188.912L598.17 191.77L596.265 195.58L594.678 197.485L592.138 199.072L587.058 199.707L586.423 201.612L584.518 205.422L582.295 207.327L580.708 208.28L580.39 208.915L580.073 214.312L582.93 215.265L588.01 217.487L594.995 221.297L598.805 224.155L601.028 226.377L603.885 230.505L605.155 233.997L606.425 238.76L607.695 246.697L608.013 253.047H558.483L547.053 252.73L544.83 252.095L543.878 251.46L543.56 252.73V228.917L546.418 225.425L551.18 221.615L556.578 218.122L563.563 214.947L565.468 214.312V208.915L562.61 207.327L560.388 204.787L558.483 200.977L554.355 200.342L551.498 199.072L548.958 196.532L547.688 193.992L547.37 190.817L548.64 188.277L550.545 186.69H552.768L557.53 188.912L557.848 186.69L559.753 181.927L560.705 179.387L561.658 175.895H562.928L563.88 178.752L565.15 178.435L567.373 176.212L569.278 172.72H569.913L570.23 177.8L572.77 175.895L576.58 172.085L576.898 171.767Z" fill="#F0DFD6"/>
<path d="M265.43 430.53H290.195L296.545 430.848H461.645L466.407 430.53H488.95L495.935 430.848L497.522 431.8L498.475 432.753L499.11 434.658V439.103L498.157 441.643L496.887 442.913L494.665 443.23H253.365L251.777 442.595L250.19 440.373V435.928L254.635 433.705L262.255 430.848L265.43 430.53Z" fill="#026E9D"/>
<path d="M142.557 265.113H144.462L143.51 265.748L137.16 268.288L132.715 270.828L129.222 273.685L125.73 277.178L123.507 280.67L120.967 286.068L119.697 290.195L119.062 294.958L118.427 300.038V302.895L118.745 305.753L115.252 307.658L113.347 310.198L112.077 312.42L111.442 315.278V319.088L112.395 322.898L114.3 326.39L115.887 328.295L119.062 330.2L121.285 331.153H124.777L130.175 329.565H138.43L139.7 337.185V340.043L135.255 344.488L130.175 348.933L128.905 349.885L134.62 357.505L135.89 359.41L139.382 363.22L141.605 365.443L142.875 367.03L144.78 367.665L145.415 366.078L148.59 361.95L152.082 357.505L153.987 355.283L154.94 355.6L154.622 357.505L152.717 360.363L148.907 365.76L145.732 370.205L144.462 370.84L142.557 369.57L139.382 366.713L136.525 363.538L133.985 360.363L131.762 357.823L128.587 353.378L127.635 350.838H125.412L118.745 352.743L113.982 354.648L108.902 357.505L104.775 360.68L101.6 363.538L99.06 365.76L96.2025 368.935L92.075 373.38L90.805 373.698L86.6775 370.523L83.82 367.665L81.5975 364.49L79.6925 360.68L79.0575 358.775L78.74 356.553V353.06L79.6925 347.345L81.28 342.265L84.455 336.233L88.265 331.153L92.3925 326.073L96.52 321.31L99.3775 317.818L101.917 314.643L105.092 309.245L107.95 302.578L112.077 291.783L114.617 286.068L117.792 280.67L120.332 277.495L124.142 273.368L127.635 270.828L133.667 267.97L138.747 266.065L142.557 265.113Z" fill="#401C04"/>
<path d="M499.427 288.29L501.332 288.925L506.412 291.783L509.905 294.64L511.81 296.863L513.715 300.038L515.62 305.435L516.89 312.103L517.842 322.263V324.485L450.215 324.803L446.405 324.485L446.087 321.628L446.722 316.23L448.945 307.023L450.532 302.895L452.12 299.72L454.342 296.863L457.835 293.688L462.597 290.195L465.137 288.608H465.772L467.042 290.513L469.582 292.735L472.757 294.005L475.932 294.323L479.742 293.053L482.282 290.513L483.552 291.148L485.14 292.735L486.727 293.688L489.585 294.323L492.76 294.005L496.57 292.1L498.792 289.878L499.427 288.29Z" fill="#026D9C"/>
<path d="M399.733 149.225H400.368L399.415 154.305L399.098 155.257L411.48 151.13L411.163 153.987L409.258 159.385L408.623 160.972L414.655 160.655L414.02 164.147L411.798 170.18L411.163 178.752V182.562H413.385L415.608 183.515L416.56 185.737V188.595L415.608 190.817L413.385 193.675L410.21 195.58L405.448 196.215L405.13 198.12L403.543 201.295L401.638 203.517L399.098 204.787L398.78 211.137L396.875 212.407L395.923 212.725H390.208L385.763 211.455L385.128 210.502L384.493 205.422L380.365 201.93L378.778 199.39L378.143 198.12V197.167L373.698 196.532L370.523 194.945L368.3 192.722L367.03 190.182V186.055L367.983 184.467L369.888 183.515V179.705L369.57 176.212V167.957L370.523 163.83L372.428 160.972L375.285 158.432L379.73 156.21L389.573 153.67L396.24 150.812L399.733 149.225Z" fill="#E29B83"/>
<path d="M384.81 210.502H385.445L385.762 211.137L390.207 212.407H395.922L399.097 210.82L404.812 213.042L411.162 215.9L415.29 218.44L418.782 220.98V221.615H419.417V222.25H420.052L422.592 226.695L424.497 231.457L425.45 235.267L426.402 241.3L426.72 246.38L421.005 246.697H418.147L417.195 247.015L356.552 246.697L355.6 246.38L355.282 243.84L356.552 237.807L358.14 232.727L360.045 228.6L362.267 224.79L363.855 223.202H364.49V222.567L367.982 219.71L372.427 216.535L379.73 212.725L383.222 211.137L384.81 210.502Z" fill="#FDC897"/>
<path d="M567.372 161.29H575.945L581.66 162.56L585.47 164.148L588.01 165.735L590.55 167.958L593.407 172.085L595.947 176.53L597.852 180.975L599.44 185.738L600.075 189.548L601.345 194.31L604.52 208.915L605.155 221.298L604.52 229.235L604.202 230.505H603.567L600.392 226.06L598.17 223.838L593.725 220.98L587.375 217.488L580.072 214.313V208.915L581.66 207.328L584.2 205.423L585.152 203.835L586.105 201.613L587.057 199.708L592.137 198.755L594.995 196.85L596.582 194.628L597.852 191.77L597.535 188.913L596.582 187.325L594.677 186.373H592.455L589.597 187.643L588.01 187.96L585.787 184.468L582.295 179.07L577.85 172.403H576.58L571.817 177.165L570.23 177.8L569.912 175.895V172.72L568.96 173.673L567.372 176.53L564.832 179.07L563.562 178.753L562.61 175.895H561.975L561.022 179.388L560.07 181.928L557.847 187.325L557.53 188.913L555.942 188.595L552.767 187.008H550.545L548.64 188.595L547.687 190.818L548.005 193.993L549.592 196.85L551.815 199.073L555.307 200.343L558.482 200.66L561.34 205.74L563.562 207.645L565.467 208.598L565.785 208.915V214.313L562.292 215.9L556.577 218.44L550.862 222.25L547.687 224.79L544.195 227.648L542.607 227.013L539.75 226.06L538.48 220.98V213.995L539.115 210.82L539.75 203.835L542.29 191.453L544.195 185.42L546.735 178.753L549.592 173.673L553.402 168.593L555.625 166.37L558.8 164.148L561.975 162.56L567.372 161.29Z" fill="#3F1B04"/>
<path d="M576.898 171.767L578.168 172.402L582.613 179.07L585.47 183.515L588.01 187.642L589.598 187.325L592.455 186.055H594.678L596.9 187.325L597.853 188.912L598.17 191.77L596.265 195.58L594.678 197.485L592.138 199.072L587.058 199.707L586.423 201.612L584.518 205.422L582.295 207.327L580.708 208.28L580.39 208.915L580.073 214.312L582.93 215.265L588.01 217.487L590.233 218.757L589.598 219.075L589.28 220.662L585.47 224.472L581.343 227.012L577.85 228.282L574.04 228.917H570.548L565.785 227.965L561.975 226.06L558.165 223.202L555.625 220.345L555.308 219.71L554.673 219.392L557.848 217.487L564.515 214.63L565.468 214.312V208.915L562.61 207.327L560.388 204.787L558.483 200.977L554.355 200.342L551.498 199.072L548.958 196.532L547.688 193.992L547.37 190.817L548.64 188.277L550.545 186.69H552.768L557.53 188.912L557.848 186.69L559.753 181.927L560.705 179.387L561.658 175.895H562.928L563.88 178.752L565.15 178.435L567.373 176.212L569.278 172.72H569.913L570.23 177.8L572.77 175.895L576.58 172.085L576.898 171.767Z" fill="#E29B83"/>
<path d="M440.055 420.052H458.788L461.328 421.005L463.55 423.545L464.503 426.402L464.82 430.53H466.408V430.847L461.645 431.165H296.545L290.195 430.847V430.53L297.18 430.212V423.227L297.498 422.91L303.213 422.592H407.988L426.403 422.91L426.72 423.227V430.53L434.023 430.212L434.975 425.132L436.245 422.592L438.468 420.687L440.055 420.052Z" fill="#E29B83"/>
<path d="M476.568 241.618L477.52 242.57L479.743 245.11L482.918 247.333L487.68 248.92L492.125 249.873L494.665 250.19L496.253 252.73L498.475 257.175L501.968 255.905L504.19 255.588L506.413 256.223L507.683 257.81L508 259.398V261.62L506.413 264.795L506.095 266.065H505.46V266.7L501.65 268.288L500.063 268.923L496.888 269.24L495.935 272.415L494.348 275.273H493.713V276.86L491.49 277.178L490.855 277.495L490.538 278.448L490.22 282.893L489.903 283.845L493.395 284.798L498.475 287.02L499.745 288.29L498.793 290.195L496.57 292.418L492.76 294.323L489.585 294.64L486.093 293.688L484.188 292.418L482.918 290.83L481.648 291.465L480.06 293.053L477.203 294.323L474.345 294.64L470.218 293.37L467.678 291.465L465.773 289.243L466.09 287.973L473.075 284.798L476.25 283.845V278.448L474.663 277.178L472.758 276.225L471.17 274.955L469.583 271.145V270.193L464.185 269.24L461.645 267.97L460.693 267.335V266.7H460.058L458.153 262.89V259.715L459.423 257.493L461.328 256.223L461.645 255.588H462.28L462.598 256.223L465.773 257.493L466.725 258.128L467.995 257.81L470.218 254.635L472.758 250.19L475.298 245.11L476.25 241.935L476.568 241.618Z" fill="#FCC596"/>
<path d="M373.063 402.272H390.843L393.7 402.907L396.875 403.225V403.542H392.748L393.383 404.177V417.512L407.67 417.195H416.56L423.228 417.512L423.545 419.735L422.91 422.592L423.863 422.91H320.358L306.705 422.592L307.023 421.957L305.118 420.052L303.848 420.37L303.53 418.147H304.483L305.435 419.1V418.147L310.198 417.512L311.468 416.877H309.245L310.198 416.242L312.103 415.29L315.278 414.972L318.77 415.607L321.945 416.56L329.565 416.877H332.74V415.29H333.058V417.195L332.74 417.83L334.328 417.512H356.235L356.553 404.495L356.87 404.177L359.41 403.86L356.87 403.542L358.14 402.59L373.063 402.272Z" fill="#F1E0D7"/>
<path d="M152.4 267.652H160.655L163.513 268.287L172.403 271.78L177.165 274.32L180.023 276.86L181.928 280.035L182.88 283.21L182.563 285.75L181.928 287.337L181.293 290.512L178.753 295.91H174.943L167.005 294.322L159.703 291.782L151.765 288.29L145.098 284.797L144.145 284.48L143.51 287.02L140.97 292.735L136.525 301.307L133.35 307.022L132.08 307.657L130.493 306.387L128.27 305.435L127.953 304.482L127.635 299.72L128.27 291.147L129.858 285.115L132.398 280.035L135.255 276.86L138.113 274.002L142.875 270.827L147.32 268.922L150.178 267.97L152.4 267.652Z" fill="#3F1B04"/>
<path d="M147.955 264.795H152.083L158.115 266.065L161.925 267.335L162.243 267.97H152.4L149.225 268.605L144.145 270.51L140.335 272.732L137.16 275.272L133.35 279.082L131.128 282.892L129.54 287.337L128.587 291.147L127.952 300.99L128.27 305.435L130.493 306.07L132.08 307.34H133.032L133.667 308.927L135.89 312.102L137.16 315.277V320.357L135.89 323.532L133.985 326.707L132.397 328.295H131.762L132.08 328.93L138.747 329.247L139.7 333.375V337.185H139.382L138.43 330.835V329.565L130.175 329.882L124.778 331.47H121.285L116.84 329.247L114.935 327.66L112.712 324.167L111.442 320.675L111.125 319.087V315.277L112.077 311.785L114.3 308.292L116.84 306.387L118.427 305.752L118.11 302.895V300.037L119.062 293.687L119.38 290.195L121.285 284.48L124.46 278.447L127.952 274.637L130.175 272.415L134.302 269.557L139.382 267.017L144.462 265.112L147.955 264.795Z" fill="#E29B83"/>
<path d="M399.733 149.225H400.368L399.415 154.305L399.098 155.257L411.48 151.13L411.163 153.987L409.258 159.385L408.623 160.972L414.655 160.655L414.02 164.147L411.798 170.18L411.163 178.752L410.528 182.562L408.623 184.15H407.035L406.083 182.245L403.225 173.037L402.273 171.767L399.415 172.085L396.558 172.72H394.018L392.113 172.085L385.445 171.45L381 170.18L379.73 175.577L376.555 183.515L375.92 184.785L374.333 184.467L370.523 182.88L369.888 179.705L369.57 176.212V167.957L370.523 163.83L372.428 160.972L375.285 158.432L379.73 156.21L389.573 153.67L396.24 150.812L399.733 149.225Z" fill="#3F1B04"/>
<path d="M117.475 405.765L118.11 406.718L120.333 414.655L123.508 425.45L129.54 445.77L129.858 447.993L100.648 447.675L100.33 447.358V417.83L101.918 418.148L104.458 420.053L105.41 420.37L106.045 418.783L108.903 415.608L111.76 412.115L114.618 408.94L116.84 406.4L117.475 405.765Z" fill="#026E9D"/>
<path d="M479.743 230.505H487.363L491.49 231.458L495.3 233.045L498.793 235.268L501.015 237.808L502.92 241.618L504.19 246.698V251.143L503.873 251.46L503.238 254.635L502.603 255.905L498.793 257.493L497.84 256.858L496.57 254L494.665 250.508L489.268 249.555L484.505 248.285L481.33 246.698L478.155 243.84L476.885 241.935L476.25 243.205L474.345 247.968L471.17 253.683L468.948 256.858L467.678 258.445L466.09 258.128L462.28 256.223L461.645 253.683L461.01 250.825V247.333L462.28 241.935L464.185 238.443L466.725 235.903L471.17 233.045L475.933 231.14L479.743 230.505Z" fill="#3F1B04"/>
<path d="M148.272 215.9H297.18L298.132 217.17V219.393L297.18 220.028L289.56 220.345H265.747L264.795 220.98H256.222L255.27 220.028H253.682L252.095 220.98H247.967L247.015 220.345L245.745 220.98H233.362L233.045 220.028L230.187 220.345L228.917 220.98H226.377L225.107 220.345H217.805L216.852 220.98H212.09L211.772 220.028L202.565 220.345H193.675L192.405 220.98H183.197L182.245 220.028L180.975 220.345L179.07 220.98H159.702L157.797 220.663L151.447 220.98L148.59 220.663L147.637 219.71V217.17L148.272 215.9Z" fill="#3F1B04"/>
<path d="M342.265 294.958H389.255L389.89 295.275L390.208 296.863V306.07H345.44L342.265 305.753L341.948 305.435V295.91L342.265 294.958Z" fill="#026E9D"/>
<path d="M441.325 306.387H444.817L446.087 307.975L446.722 310.197H447.675L447.992 308.292H448.627L447.992 312.102L446.722 317.817L446.405 324.485H449.262V324.802H446.405L446.722 347.662V395.287L446.405 401.32L445.135 402.59L444.182 402.907H441.325V306.387Z" fill="#F1DFD6"/>
<path d="M183.515 319.405L185.737 320.675V321.31L187.007 321.945L189.865 324.485L191.135 325.438L190.5 326.708L187.642 328.93L185.102 331.788L185.42 332.74L185.737 337.185L187.325 338.773L191.452 339.09L193.992 342.9L195.58 345.44L196.85 350.838V354.648L196.215 357.505L195.58 358.458L194.31 357.823L189.547 354.33L184.785 351.79L181.927 350.838L176.847 350.203V352.743L177.165 355.6L176.53 365.125L175.895 367.983L174.625 368.618L172.085 366.078L169.227 362.268L165.1 357.823L163.512 355.6V354.33H165.1L168.91 358.14L172.085 362.585L173.672 363.538L174.307 360.68L174.625 358.458L174.942 350.52L175.26 349.25L172.085 345.123L169.545 341.313L169.862 340.678L174.625 339.09L178.117 336.868L180.022 334.645L182.245 331.153L183.197 327.025L183.515 322.898V319.405Z" fill="#401C04"/>
<path d="M380.048 404.177H387.985L388.62 405.447L388.303 416.56L387.985 417.195L364.49 417.512L356.87 417.195L356.235 416.56L356.553 404.495L380.048 404.177Z" fill="#E29B83"/>
<path d="M460.057 267.018L461.645 267.653L464.185 268.923L468.947 269.875L469.582 270.193L471.487 274.955L471.17 276.86L469.265 279.718L466.725 281.94L464.502 282.575H461.327L458.787 281.94L459.105 283.21V285.75L458.152 288.29L456.565 289.878L454.977 290.83H451.485L448.945 289.878L448.31 292.735L446.087 294.64L442.912 295.91L441.325 295.593L438.15 294.005L436.88 291.783V288.925L439.102 286.385L440.372 285.433L441.642 285.115H446.722L447.357 281.94L449.58 279.4L451.485 278.765H455.93L454.66 275.273L454.977 273.368L456.247 269.875L457.835 268.288L460.057 267.018Z" fill="#3F1B04"/>
<path d="M227.965 285.75H294.323L298.132 286.067L298.45 286.702V289.878L297.815 290.83L294.64 291.148H223.52L222.567 289.878L222.25 288.925V286.702L223.202 286.067L227.965 285.75Z" fill="#F0DFD6"/>
<path d="M228.282 275.59H293.688L297.815 275.907L298.45 276.542V279.717L297.815 280.67L294.005 280.987H223.52L222.567 280.035L222.25 279.082V276.542L223.202 275.907L228.282 275.59Z" fill="#F0DFD5"/>
<path d="M230.823 240.982H287.338L297.497 241.3L298.45 241.935V245.427L297.497 246.062L294.005 246.38H223.52L222.567 245.427L222.25 244.475V242.252L223.202 241.3L230.823 240.982Z" fill="#F0DFD6"/>
<path d="M505.46 266.383L507.365 267.653L509.27 269.875L509.905 272.098V275.59L509.27 276.86L511.493 276.543H514.033L516.255 277.178L517.843 278.765L519.748 282.258L522.605 281.623L526.098 281.94L528.003 283.21L529.59 285.115V288.608L528.32 290.513L526.415 291.783L525.463 292.1H522.288L519.748 290.83L517.843 288.608L517.525 287.02L516.255 287.973L513.08 288.608L509.905 287.973L508 286.385L506.73 283.845L506.413 280.67L504.825 281.305L503.873 281.94H500.698L497.523 280.67L495.3 278.765L494.03 276.86L494.348 274.638L496.253 270.828L496.888 268.923L500.063 268.605L503.873 267.018L505.46 266.383Z" fill="#3F1B04"/>
<path d="M240.983 251.143H277.177L297.815 251.46L298.45 252.095V255.588L297.497 256.223L294.323 256.54H223.52L222.567 255.588L222.25 254.953V252.413L223.202 251.46L240.983 251.143Z" fill="#F0DED4"/>
<path d="M4.445 339.725L7.3025 340.677L11.1125 342.265L17.78 345.122L21.59 346.71L24.13 347.027L24.4475 347.98L22.86 354.647V356.552H29.845L35.8775 357.187L40.3225 358.775L43.18 360.68L43.4975 361.95L42.2275 362.585L40.64 362.267L38.1 361.315L33.9725 360.997H26.035L21.59 360.68L15.24 358.775L9.525 355.917L7.62 355.282V354.647L4.445 354.012L3.175 353.377L0.3175 348.932L0 348.615V347.027L0.635 346.392V345.44L0 345.122V343.535L2.2225 341.312L4.445 339.725Z" fill="#FDC897"/>
<path d="M222.885 313.373H291.148L291.465 313.69V341.63H291.148L290.83 318.77H229.235L223.52 318.453L222.25 317.183L221.933 315.595L222.568 313.69L222.885 313.373Z" fill="#F0DFD6"/>
<path d="M140.017 340.042L140.97 340.36L143.192 342.9L146.05 346.075L150.177 350.202L152.717 352.425L154.305 354.33L153.67 355.917L149.542 360.997L145.097 367.03L144.78 367.665L142.875 367.347L138.43 362.585L134.937 358.775L132.715 355.282L130.175 352.107L128.587 349.567L132.08 347.027L134.62 344.487L137.16 342.265L139.065 340.995L140.017 340.042Z" fill="#F0DDD4"/>
<path d="M402.907 328.613H420.052L420.687 329.883V343.853L420.052 345.123L419.417 345.44H400.367L399.732 345.123V329.883L400.367 328.93L402.907 328.613Z" fill="#E29B83"/>
<path d="M401.002 346.71H420.052L420.687 347.662V362.267L419.1 363.22L418.465 363.537H401.637L399.732 362.902V347.98L400.05 347.027L401.002 346.71Z" fill="#E29B83"/>
<path d="M407.035 364.49L419.735 364.807L420.687 365.125V378.142L420.37 380.365L418.782 381.317H400.05L399.732 381V365.442L401.002 364.807L407.035 364.49Z" fill="#E29B83"/>
<path d="M440.055 420.052H458.788L461.328 421.005L463.55 423.545L464.503 426.402L464.82 430.53H466.408V430.847L461.645 431.165H439.103L431.165 430.847V430.53L434.023 430.212L434.975 425.132L436.245 422.592L438.468 420.687L440.055 420.052Z" fill="#E29C85"/>
<path d="M244.793 280.67H289.242L289.877 280.987V281.622L286.702 282.257L284.48 282.575L282.257 282.257L281.94 282.892L280.987 282.575L280.67 283.21L285.75 283.845L288.607 284.48L291.147 284.797V285.115L289.56 285.432L226.378 285.75L226.695 284.797L229.87 284.162L231.458 283.21L231.14 282.575L227.648 282.257L227.013 281.94L223.203 281.622L222.885 280.987L244.793 280.67Z" fill="#046798"/>
<path d="M476.25 283.845L477.52 284.48L479.742 287.02L481.33 288.607V289.242H483.235L486.727 286.385L488.95 284.162L490.537 283.845L495.617 285.75L499.427 287.655L499.745 288.29L498.792 290.195L496.57 292.417L492.76 294.322L489.585 294.64L486.092 293.687L484.187 292.417L482.917 290.83L481.647 291.465L480.06 293.052L477.202 294.322L474.345 294.64L470.217 293.37L467.677 291.465L465.772 289.242L466.09 287.972L473.075 284.797L476.25 283.845Z" fill="#F0DFD6"/>
<path d="M4.4449 340.36L7.3024 340.677L11.1124 342.265L17.7799 345.122L21.5899 346.71L24.1299 347.027L24.4474 347.98L22.8599 354.012L21.9074 355.917V357.505H30.4799L37.1474 358.14L40.6399 359.41L42.8624 360.997L42.5449 361.95L40.9574 361.632L38.4174 360.68L34.6074 360.045H22.5424L19.0499 359.41L9.8424 355.282L4.1274 353.06L3.4924 351.79H6.6674L10.4774 353.06L15.5574 355.6L18.0974 356.552H19.0499L19.3674 355.6L20.0024 355.282V354.012L13.0174 351.155L6.9849 348.297L1.5874 346.71V345.44H5.0799L10.1599 347.027L19.3674 351.472L21.2724 351.79V349.25L16.8274 347.345L11.7474 345.122L7.9374 343.535L3.4924 342.265L3.1749 341.312L4.4449 340.36Z" fill="#301404"/>
<path d="M184.785 316.865L187.325 318.135L189.865 320.04L192.723 322.897L195.58 330.2V334.327L194.31 336.867L192.088 338.772L191.453 339.407L187.325 339.09L185.42 337.185L185.103 332.74V331.47L187.325 328.93L189.23 327.342L190.818 326.072L190.5 325.12L187.643 322.897L185.738 321.31V320.675L184.468 320.04L183.198 319.087V317.5L184.785 316.865Z" fill="#E29E86"/>
<path d="M168.91 341.63L170.498 342.265L174.308 347.663L175.578 349.25L175.26 350.52L174.943 358.458L174.308 362.903L173.355 363.855L171.133 361.95L167.958 357.505L165.1 354.648V354.013L163.83 353.695L164.465 353.378L165.418 349.885L167.005 345.758L168.593 341.948L168.91 341.63Z" fill="#F0DDD4"/>
<path d="M380.682 294.958H389.255L389.89 295.275L390.207 296.863V306.07H379.095V295.275L380.682 294.958Z" fill="#411D05"/>
<path d="M169.862 324.167L173.672 324.485L174.307 326.072L173.99 328.295L172.085 331.152L168.91 332.74L167.64 333.057H164.782L161.925 332.105L159.702 329.882L158.115 326.39L158.432 324.802L159.067 324.485H160.972L162.877 324.802L167.957 324.485L169.862 324.167Z" fill="#3F1B04"/>
<path d="M234.315 274.002H280.67L294.64 274.637L296.545 275.272V275.59L228.282 275.907L222.25 276.225L223.202 274.637L226.378 274.32L234.315 274.002Z" fill="#046899"/>
<path d="M397.192 378.143H397.51V380.683L396.875 381L386.397 381.318H348.932L326.39 381V380.048L329.882 379.73L338.137 379.413L384.81 379.73L391.477 380.048L391.795 380.365H394.017L394.97 380.048L396.557 379.73L397.192 378.143Z" fill="#046798"/>
<path d="M317.5 328.613H393.382L395.605 329.248L396.24 329.883V333.693L395.605 332.423V331.788L394.335 331.153L390.842 330.2L367.665 329.883H318.77L316.23 330.835L314.96 331.47V329.883L316.23 328.93L317.5 328.613Z" fill="#046899"/>
<path d="M188.913 372.11H190.183L191.77 375.285L193.993 378.46L195.58 381.317L198.12 384.175L199.708 385.762L203.835 390.525L206.058 393.7L208.598 398.78L210.185 404.177L210.503 406.082V410.21L209.233 409.892L208.598 407.035L207.01 401.002L204.47 395.922L201.295 391.477L197.803 387.35L194.628 383.222L191.77 379.73L189.23 375.602L188.278 372.427L188.913 372.11Z" fill="#3E1B04"/>
<path d="M378.777 294.958H380.682L380.365 295.593H379.412V305.753L379.095 306.07H345.44L342.9 305.753L343.535 304.483L344.805 303.848H347.027L349.25 304.483H358.14L365.76 304.8L372.11 304.165L373.697 303.213L374.967 302.578L374.015 301.308V299.085L375.602 298.768H376.237V300.673V301.308L376.872 301.625L377.507 300.038L377.19 298.768L377.507 297.815H378.142L378.777 294.958Z" fill="#096897"/>
<path d="M4.445 339.725L6.0325 340.042V340.36L3.81 340.995L3.4925 342.265L7.9375 343.217L11.7475 344.805L17.4625 347.345L21.2725 348.932L21.59 350.202L21.2725 351.79H19.3675L9.525 347.027L5.08 345.757H1.5875L0.9525 346.392L0.635 345.44L0 345.122V343.535L2.2225 341.312L4.445 339.725Z" fill="#FBC395"/>
<path d="M243.205 317.5H290.83V322.58L290.512 332.105H290.195L289.877 327.66L289.56 319.722L287.972 318.77H237.172L236.855 317.817L243.205 317.5Z" fill="#046899"/>
<path d="M421.957 431.165H426.085L424.815 431.8L423.545 432.118H407.67L386.397 432.435H375.602L374.015 432.753L370.522 432.435H368.935L367.665 432.753L364.807 432.435H346.392L340.677 432.118V431.8L342.582 431.483H361.315L421.957 431.165Z" fill="#056798"/>
<path d="M221.933 243.522L222.568 244.475L223.52 246.062L287.02 246.38V247.015L264.795 247.65L256.858 247.332H242.888L233.998 247.65H227.648L223.838 247.332V246.697L222.568 246.062L221.933 245.11V243.522Z" fill="#046999"/>
<path d="M317.5 302.895L319.088 303.848V305.753L314.96 306.07H290.83L291.148 305.118L293.37 304.165L298.768 303.53L315.278 303.848L317.5 302.895Z" fill="#046798"/>
<path d="M143.51 330.2L147.955 332.422L151.13 334.327L160.338 338.772L164.465 339.407L168.593 339.725L169.228 341.312L168.593 341.63L165.735 341.947L164.465 342.265L161.29 340.995L157.48 340.042L150.813 337.185L147.638 335.28L144.78 333.057L143.193 331.47L143.51 330.2Z" fill="#321504"/>
<path d="M223.202 256.54H258.762L292.735 256.858V257.175L280.035 257.493L270.192 257.81H264.16L257.492 257.493L230.822 257.81L228.917 258.128H225.425L223.202 257.493V256.54Z" fill="#046999"/>
<path d="M183.515 319.405L185.738 320.675V321.31L187.008 321.945L189.865 324.485L191.135 325.438L190.5 326.708L187.643 328.93L185.103 331.788L184.785 332.423L182.88 331.788L182.245 331.153L183.198 327.025L183.515 322.898V319.405Z" fill="#046898"/>
<path d="M3.81004 351.155L6.35004 351.473V351.79H3.49254L4.76254 353.06L12.7 356.235L19.05 359.093L22.5425 359.728H34.6075L39.37 360.68L41.275 361.633H42.545L42.2275 360.68L38.4175 358.775L35.2425 358.14L27.6225 357.823H21.9075L21.59 357.505L21.9075 354.965L22.86 354.013V356.553H29.845L35.8775 357.188L40.3225 358.775L43.18 360.68L43.4975 361.95L42.2275 362.585L40.64 362.268L38.1 361.315L33.9725 360.998H26.035L21.59 360.68L15.24 358.775L9.52504 355.918L7.62004 355.283V354.648L4.44504 354.013L3.17504 353.378L2.54004 352.425V351.473L3.81004 351.155Z" fill="#E29B83"/>
<path d="M24.1301 347.345L24.4476 347.98L22.8601 354.012L21.9076 355.917V357.505H30.4801L37.1476 358.14L40.6401 359.41L42.8626 360.997L42.5451 361.95L40.9576 361.632L38.4176 360.68L34.6076 360.045H22.5426L19.0501 359.41L14.2876 357.187L15.2401 356.87L18.4151 358.457H20.6376L21.2726 354.647H21.9076L22.2251 353.06L22.5426 352.742L22.8601 349.885L24.1301 347.345Z" fill="#3F1B04"/>
<path d="M499.428 288.29L501.333 288.925L506.413 291.783L509.905 294.64L511.81 296.863L513.715 300.038L515.62 305.435L516.89 312.103L517.525 320.04V323.215L516.573 323.533L515.62 322.58L515.303 321.628V317.818L515.62 316.23V312.738L515.303 312.103V309.245L514.35 306.388L513.398 304.165L512.763 302.895L512.128 300.99L509.905 296.545L509.27 296.228V295.593H508.635V294.958H508V294.323H507.365V293.688L506.413 293.37L505.778 292.1L504.19 291.783L500.698 289.56L500.063 290.195H499.11L499.428 288.29Z" fill="#046798"/>
<path d="M307.34 402.907H309.563L314.325 404.495L319.405 407.035L324.485 410.845L327.66 413.385L328.93 415.29V416.877L327.025 416.242L324.803 414.02L321.628 411.48L318.77 409.575L314.008 406.717L307.975 404.177L307.34 402.907Z" fill="#321504"/>
<path d="M179.705 294.958H180.022V297.815L180.657 300.038L181.61 303.53L182.245 303.848V306.705L183.515 309.88L183.197 312.42L184.785 315.595H185.42L186.055 316.23L188.595 317.5L191.135 319.088L192.405 320.675L193.675 322.898V323.85H194.31L195.897 328.93L196.215 330.835H195.58L192.405 322.898L188.912 319.405L183.832 316.548L182.88 315.913L180.975 307.658L178.752 297.815V295.275L179.705 294.958Z" fill="#046798"/>
<path d="M303.848 408.623L311.15 408.94L314.643 410.21L316.865 412.115V414.973L315.278 414.655L314.643 412.75L312.103 411.48L307.34 411.163H293.688L293.37 410.21L294.323 409.575L295.91 409.258L301.943 408.94L303.848 408.623Z" fill="#341604"/>
<path d="M605.79 213.677L606.425 214.63L607.06 217.487V225.425L606.425 227.33V229.235L605.79 229.87L606.425 230.187L606.108 231.14V233.997L606.743 236.855L607.06 237.172L607.695 240.03L608.648 248.285L608.965 250.825L608.33 252.095L608.013 249.872V246.697H607.378L606.108 238.76L604.838 233.997L603.885 230.505L604.203 229.235L604.838 221.297V215.9H605.155L605.473 217.487V215.265L605.79 213.677Z" fill="#046798"/>
<path d="M105.092 442.912L107.315 443.23L110.807 444.5H114.3L119.697 445.452L119.38 446.087L118.427 446.722L118.11 447.04H115.252L112.395 447.357H102.552L103.187 446.087V444.817L103.822 444.5L104.457 443.23L105.092 442.912Z" fill="#046798"/>
<path d="M166.052 306.387L167.322 306.705L168.91 309.245L171.132 314.007L172.402 316.865L172.085 318.77L169.545 320.675L168.592 320.992H166.37L166.687 319.405L169.227 318.452L168.91 315.912L166.687 310.515L165.417 308.292L165.735 306.705L166.052 306.387Z" fill="#321504"/>
<path d="M434.34 431.165H467.678L467.043 431.8H464.185L463.233 432.435L453.39 432.753H438.15L434.34 431.8V431.165Z" fill="#046798"/>
<path d="M119.38 414.338L120.332 414.655L123.507 425.45L128.587 442.595V444.183L127.635 443.865V443.23H127L126.682 440.055L125.73 438.468L125.412 435.61L124.46 434.34L123.507 431.483L122.872 429.895L121.602 425.45L121.285 422.275L120.65 421.323L120.015 417.83L119.38 417.195V414.338Z" fill="#046898"/>
<path d="M538.798 223.838H539.433L539.75 226.06L512.128 226.378L509.905 225.743L510.54 225.108L513.398 224.473L519.113 224.79H536.258L538.798 223.838Z" fill="#046798"/>
<path d="M302.895 407.988H310.515L313.372 408.94L316.23 410.528L316.865 412.115L314.007 410.21L311.15 409.258L303.847 408.94L301.942 409.258L295.91 409.575L293.687 410.21V411.163L299.72 410.845H309.245L313.055 411.48L314.007 412.433L312.737 412.115L300.355 411.798H293.687L293.052 411.48V409.575L293.687 408.94L297.497 408.305H301.942L302.895 407.988Z" fill="#E29B83"/>
<path d="M482.6 256.222L484.187 256.857V259.715L483.235 263.842L482.917 265.43L484.505 266.065L486.092 267.017V267.97L485.457 268.287L482.6 267.97L480.695 266.7L480.377 265.747V263.525L481.33 260.35L481.965 256.857L482.6 256.222Z" fill="#311404"/>
<path d="M344.805 303.848H347.027L349.25 304.483H358.14L364.807 305.118L367.03 305.753V306.07H345.44L342.9 305.753L343.535 304.483L344.805 303.848Z" fill="#046898"/>
<path d="M163.512 354.33H165.1L168.91 358.14L172.085 362.585L173.355 364.172L174.625 366.712L175.577 366.395L175.26 367.982H174.625V367.347L173.355 366.712L171.132 364.807L168.91 361.95L165.1 357.822L163.512 355.6V354.33Z" fill="#401C04"/>
<path d="M456.565 294.958L457.517 295.275L455.93 297.18L454.342 298.768L453.707 300.355L452.437 302.895L451.802 303.213V304.8L450.532 306.07L449.58 310.198L448.945 312.42L448.31 315.913L447.992 316.23L447.675 319.723L447.357 320.358H446.722V316.23L448.945 307.023L450.532 302.895L452.12 299.72L454.342 296.863L456.565 294.958Z" fill="#046798"/>
<path d="M190.183 372.11L191.135 373.062L192.405 375.285L194.628 378.142L196.85 381.635L199.708 384.492V385.445L200.978 386.08L204.47 390.207L207.328 394.335L210.503 402.272L211.138 407.035V410.21L210.82 410.527H209.233L209.55 409.892L210.503 410.21L209.868 404.177L208.28 398.78L205.74 393.7L203.2 390.207L199.39 385.762L197.803 384.175L194.945 381L193.04 377.507L190.5 373.697L190.183 372.11Z" fill="#E29B83"/>
<path d="M222.885 291.147H247.333L247.968 291.782L245.11 292.417H227.33L222.885 291.782V291.147Z" fill="#046899"/>
<path d="M478.473 270.51L480.06 270.828L482.6 272.098L484.823 272.415L487.045 271.145L487.68 270.51L489.268 270.828V272.415L486.728 274.32L485.14 274.955H482.283L479.425 273.05L478.473 272.098V270.51Z" fill="#321504"/>
<path d="M207.01 240.982L211.137 241.3L211.455 244.157L211.137 246.38L210.82 246.697H207.327L206.375 246.38V241.3L207.01 240.982Z" fill="#2C1205"/>
<path d="M524.828 282.258H526.733L528.955 284.163L529.59 285.115V288.608L528.32 290.513L526.415 291.783L525.463 292.1H522.288L519.748 290.83L519.113 289.243L521.653 289.878L522.605 290.83H525.78L527.05 289.878L527.685 286.068L526.415 284.163L524.828 282.575V282.258Z" fill="#301404"/>
<path d="M206.692 313.373H210.82L211.137 313.69V318.453L210.82 318.77H206.692L206.375 317.818V313.69L206.692 313.373Z" fill="#401C04"/>
<path d="M206.692 275.59H210.82L211.137 275.907V280.67L210.82 280.987H207.01L206.375 280.352V276.225L206.692 275.59Z" fill="#3F1B04"/>
<path d="M390.208 181.61L391.478 181.927L391.795 182.562V185.102L391.478 185.737L391.16 188.912L390.843 190.817V191.452L393.383 192.087L393.7 193.04L392.113 193.357L389.255 192.405L388.62 191.77V188.277L389.573 186.055L389.89 182.245L390.208 181.61Z" fill="#321504"/>
<path d="M3.1749 344.17L6.0324 344.487L6.3499 345.122L12.0649 347.027L18.0974 350.202H18.7324L18.4149 348.615L14.2874 346.71L15.2399 346.392L21.2724 348.932L21.5899 350.202L21.2724 351.79H19.3674L9.5249 347.027L5.0799 345.757L1.5874 345.44L2.2224 344.805H3.1749V344.17Z" fill="#E29B83"/>
<path d="M171.45 304.165L173.037 304.483L173.672 305.435L174.307 310.833L173.672 311.785H171.767L170.497 309.245L170.18 307.975V305.753L171.45 304.165Z" fill="#2D1204"/>
<path d="M3.49243 351.79H6.66743L10.4774 353.06L15.5574 355.6L18.0974 356.553V356.87L14.6049 356.553L13.3349 356.87L7.30243 354.33L4.12743 353.06L3.49243 351.79Z" fill="#3D1A04"/>
<path d="M258.127 291.147L283.845 291.465L283.21 292.1H279.082L271.145 292.417H267.335L261.62 292.1L257.492 292.417L249.555 292.1L248.285 291.465L258.127 291.147Z" fill="#046798"/>
<path d="M154.305 306.07L155.258 306.388L156.21 308.293L156.528 312.738L155.575 314.008H153.988L153.035 312.103L152.718 310.198V307.34L154.305 306.07Z" fill="#301404"/>
<path d="M571.817 186.69H572.77L573.087 188.278L572.135 191.135L572.452 193.04L571.817 193.993V195.898L574.675 196.85V197.803L574.04 198.12H571.182L569.912 196.85L569.595 194.31L571.5 187.008L571.817 186.69Z" fill="#331504"/>
<path d="M361.633 297.815L364.173 298.132L365.125 300.355L364.173 302.577L363.538 302.895H361.633L360.045 301.942L359.728 299.72L360.68 298.132L361.633 297.815Z" fill="#F8F1EE"/>
<path d="M567.69 200.66L568.96 201.295L571.183 202.565L574.04 202.883L575.945 201.613L576.898 200.66H577.85V202.565L575.31 204.47L573.405 205.105L570.865 204.788L568.008 202.883L567.373 201.93L567.69 200.66Z" fill="#321504"/>
<path d="M4.12744 341.312L7.30244 341.63L8.88994 342.582L10.7949 342.9L13.9699 343.852L17.1449 345.44L20.0024 346.71L21.2724 347.345L21.5899 348.297L18.7324 347.662L14.9224 346.075L11.4299 344.487L5.71494 342.9L4.12744 341.947V341.312Z" fill="#2D1204"/>
<path d="M369.888 298.133H372.745L373.698 299.085V301.625L372.428 302.895L369.57 302.578L368.935 301.943V299.085L369.888 298.133Z" fill="#F9F5F3"/>
<path d="M183.515 320.357L185.103 321.945L186.055 323.215L185.42 323.532L184.785 323.215V322.58H184.15V325.12H184.785L185.103 323.85L186.373 323.532L187.96 324.485L188.278 325.437L187.643 327.025L186.373 327.977L183.833 327.66L183.198 328.295L183.515 320.357Z" fill="#026E9D"/>
<path d="M259.715 256.857H292.735V257.175L280.035 257.492L270.193 257.81H264.16L259.715 257.492V256.857Z" fill="#056798"/>
<path d="M7.61998 351.473L10.16 352.108L13.97 353.695L17.4625 354.648V355.283H18.0975L18.415 354.33L19.685 354.965L18.7325 354.013L14.2875 352.108L15.24 351.79L20.0025 353.695L20.32 355.283L19.3675 355.6L19.05 356.87L16.1925 356.235L11.1125 353.695L7.61998 352.425L6.66748 351.79L7.61998 351.473Z" fill="#E29B83"/>
<path d="M146.685 262.89L149.86 263.207L151.448 263.525L153.988 263.842L157.48 264.477L158.115 264.795V265.747L159.068 266.065L158.115 266.382L152.083 265.112H145.415L146.05 263.525L146.685 262.89Z" fill="#076491"/>
<path d="M395.923 195.897L396.875 196.215L396.24 197.802L393.383 200.025L391.478 200.342L388.938 199.39L386.715 197.485V196.215L388.62 196.85L390.208 197.802H393.383L395.923 195.897Z" fill="#321504"/>
<path d="M171.133 298.133L173.99 298.45L176.53 299.72L176.213 300.99L171.768 300.673L168.593 300.355L167.64 299.72L168.275 298.45L171.133 298.133Z" fill="#331504"/>
<path d="M154.305 299.72L155.258 300.355L154.94 301.942L151.765 303.53L149.543 305.117L148.273 304.8L147.955 303.847L150.178 301.307L154.305 299.72Z" fill="#311404"/>
<path d="M180.658 219.392L180.975 220.345L179.07 220.98H159.703L158.433 220.345L159.385 220.027H171.45L176.213 220.345L180.023 219.71L180.658 219.392Z" fill="#2C1204"/>
<path d="M4.44505 340.36L7.30255 340.677L11.1125 342.265L17.78 345.122L21.59 346.71L24.13 347.027L22.86 347.345L22.225 348.615L21.9075 347.98H21.2725L20.32 347.027L17.4625 346.075L15.5575 344.805L13.97 344.17L9.84255 342.9L8.57255 342.582L6.66755 341.947L4.12755 341.312L4.44505 341.947L5.39755 342.582L3.49255 342.265L3.17505 341.312L4.44505 340.36Z" fill="#401C04"/>
<path d="M153.988 355.282L154.94 355.6L154.623 357.505L152.718 360.362L151.448 361.95L148.908 363.537L148.59 362.902L149.225 360.997L152.718 356.87L153.988 355.282Z" fill="#2F1304"/>
<path d="M251.777 434.975L253.047 435.292L251.777 437.515L252.095 439.737L252.73 440.69L253.682 441.007L254.952 442.595L254 443.23L251.777 442.595L250.19 440.372V435.927L251.777 434.975Z" fill="#086898"/>
<path d="M100.33 423.545L100.965 424.815L101.283 426.72L100.965 446.722H102.235V447.675H100.648L100.33 447.357V423.545Z" fill="#046798"/>
<path d="M477.52 250.19L478.79 250.507V252.095L478.155 252.73L475.615 253.365L474.028 254.317L472.44 254L472.123 252.73L474.028 251.142L477.52 250.19Z" fill="#311404"/>
<path d="M197.802 387.35L199.39 388.62L203.517 394.017L206.057 398.145L207.645 401.955L208.915 407.035L209.232 409.892L208.28 409.575L207.645 405.447L206.057 400.367L204.152 396.557L201.612 392.747L197.802 387.985V387.35Z" fill="#E29B83"/>
<path d="M3.81004 351.155L6.35004 351.473V351.79H3.49254L4.76254 353.06L12.7 356.235L19.05 359.093L20.6375 359.728V360.045L18.415 359.728L15.24 358.775L9.52504 355.918L7.62004 355.283V354.648L4.44504 354.013L3.17504 353.378L2.54004 352.425V351.473L3.81004 351.155Z" fill="#E29B83"/>
<path d="M487.998 250.507L493.078 251.46L494.348 252.73V254H492.125L489.903 253.047L487.363 252.73V251.142L487.998 250.507Z" fill="#331504"/>
<path d="M265.748 220.027H296.228V220.345L290.83 220.662L266.065 220.98L265.43 221.297H255.905V220.345L256.223 220.662H264.795L265.748 220.027Z" fill="#056798"/>
<path d="M490.22 256.222L491.49 256.54L492.442 258.762V260.667L491.172 262.572L489.902 262.255L489.585 261.62V257.492L490.22 256.222Z" fill="#321504"/>
<path d="M124.46 276.542L125.412 276.86L125.095 278.13L123.19 281.305L121.602 284.48L120.65 284.797V281.622L122.237 278.447L124.46 276.542Z" fill="#2F1304"/>
<path d="M224.473 240.03H238.443L239.713 240.983H223.52V240.348L224.473 240.03Z" fill="#056798"/>
<path d="M475.297 256.857L476.567 257.175L477.202 257.81L477.52 260.35L476.567 262.572L475.297 262.89L474.345 260.985L474.662 258.445L475.297 256.857Z" fill="#301404"/>
<path d="M174.625 353.06H174.943V358.458L174.308 362.903L173.355 363.855L171.133 361.95L167.958 357.505L165.1 354.648H166.053L169.863 358.458L172.085 361.95L173.673 362.903L174.308 353.378L174.625 353.06Z" fill="#E29B83"/>
<path d="M570.23 172.72L572.135 173.355L574.675 173.672L574.04 174.942L571.817 177.165L570.23 177.8V172.72Z" fill="#2E1304"/>
<path d="M406.083 180.34L409.258 180.657L410.21 180.975V182.88L408.623 184.15H407.035L406.083 182.245V180.34Z" fill="#2F1304"/>
<path d="M397.51 182.245H399.733L400.05 182.562V185.42L399.415 187.007L398.145 187.325L397.51 186.69V182.245Z" fill="#311404"/>
<path d="M290.195 333.375H290.512V342.582H281.305V342.265L287.337 341.948L287.972 340.995H288.925L289.56 338.773L289.877 338.455V334.962L290.195 333.375Z" fill="#056798"/>
<path d="M391.795 148.59H400.685L399.732 149.542L396.24 151.13H394.97L394.017 149.542L391.795 148.907V148.59Z" fill="#FAF4F2"/>
<path d="M566.737 180.34L567.69 180.657V182.562L565.15 182.88L563.245 184.15H561.657L561.34 182.88L564.515 181.292L566.737 180.34Z" fill="#311404"/>
<path d="M3.49243 351.79H6.66743L8.88993 352.425V353.06L10.7949 353.695L11.7474 354.33V354.965L9.20743 354.648L6.98493 353.695L4.12743 353.06L3.49243 351.79Z" fill="#2C1204"/>
<path d="M383.858 182.562L384.81 182.88V187.325L384.493 187.96L382.905 187.642L382.27 186.69L382.588 183.832L383.858 182.562Z" fill="#321504"/>
<path d="M576.58 181.292L581.025 181.61L582.613 182.562L583.248 183.832L581.66 184.15L579.12 183.197L576.58 182.88V181.292Z" fill="#311404"/>
<path d="M312.42 406.083L314.007 406.4L318.77 409.258L321.627 411.163L325.12 414.02L326.707 415.925L325.12 415.29L323.532 413.703L321.31 411.798L318.135 410.21L315.595 408.623L314.642 407.988V407.353L312.737 406.718L312.42 406.083Z" fill="#E29B83"/>
<path d="M563.88 187.325L565.15 187.642L566.42 189.865L566.102 191.77L564.832 193.04L563.88 192.722V187.325Z" fill="#311404"/>
<path d="M159.067 324.802L160.972 325.12V325.755L162.242 326.39L161.925 328.612L160.337 328.93L159.067 327.66L158.75 327.025V325.12L159.067 324.802Z" fill="#2C1205"/>
<path d="M20.9551 354.647L21.5901 354.965L20.9551 358.457L20.6376 358.775H18.4151L15.2401 357.187L14.2876 356.87L14.6051 356.235L19.6851 357.187L20.0026 355.917L20.9551 354.647Z" fill="#2C1205"/>
<path d="M579.12 186.69H580.39L581.342 189.23L581.025 191.135L579.755 192.405L578.802 191.453V188.595L579.12 186.69Z" fill="#311404"/>
<path d="M175.578 350.203L176.53 350.52L176.848 355.283L176.213 358.458L175.26 359.093V350.52L175.578 350.203Z" fill="#2C1204"/>
<path d="M395.605 176.53H399.415L401.32 177.483L401.955 178.753L401.638 179.07H399.733L395.288 177.483L395.605 176.53Z" fill="#331504"/>
<path d="M163.512 354.33H165.1L166.687 356.87L168.275 358.457L168.91 360.045L168.592 360.997L165.735 357.822L164.147 356.552L163.512 355.6V354.33Z" fill="#2F1304"/>
<path d="M384.81 175.895H386.397L386.08 177.483L382.587 179.07H381L380.682 177.8L381.952 176.848L384.81 175.895Z" fill="#321504"/>
<path d="M290.83 306.387H291.148V310.832L290.83 313.372L288.29 313.055L288.925 311.15L289.56 310.197L290.195 307.34L290.83 306.387Z" fill="#046798"/>
<path d="M130.81 352.425L133.033 354.33L136.525 359.093L139.383 362.268L141.605 364.808L141.288 365.443L136.525 360.68L134.62 358.14L131.763 354.013L130.81 353.06V352.425Z" fill="#E29B83"/>
<path d="M294.64 240.348H297.18L298.45 240.983L298.768 242.888L297.498 241.618L287.338 241.3L282.258 240.983V240.665L294.64 240.348Z" fill="#036999"/>
<path d="M10.4775 344.17L12.3825 344.487L17.145 346.71L21.59 348.297L22.225 349.25L21.9075 352.107L20.32 352.425L19.3675 351.79H21.2725V349.25L16.8275 347.345L11.7475 345.122L10.4775 344.17Z" fill="#401C04"/>
<path d="M465.138 288.607H465.773L467.043 290.512L469.583 292.735L473.393 294.322L472.123 294.64L469.9 294.005V293.37L467.678 293.052L467.043 292.417L466.408 290.83L464.82 290.512H463.55L464.185 289.242L465.138 288.607Z" fill="#046899"/>
<path d="M6.03247 346.075L9.52497 346.71L16.51 350.202L19.3675 351.472L18.0975 351.79L15.875 350.837L14.605 350.202L13.0175 349.885V349.25L11.43 348.932L10.4775 348.297V347.662L6.66747 346.71L6.03247 346.075Z" fill="#401C04"/>
<path d="M182.562 219.71L186.055 220.027H193.04V220.662L192.405 220.98H183.197L182.562 220.662V219.71Z" fill="#2E1304"/>
<path d="M598.17 186.055H598.805V187.643H599.44L600.392 190.183L600.075 191.453L598.805 190.183V189.548L597.535 188.913L596.9 187.96V186.69L598.17 186.055Z" fill="#2F1304"/>
<path d="M153.988 355.282L154.94 355.6L154.623 357.505L152.718 360.362L152.083 360.997V358.775L151.448 358.457L153.988 355.282Z" fill="#321504"/>
<path d="M556.26 185.42L557.848 186.055L557.53 188.913L555.943 188.595L554.038 187.325V186.69H555.308V186.055L556.26 185.42Z" fill="#2F1304"/>
<path d="M375.602 181.292H376.872L376.555 183.515L375.92 184.785L374.332 184.467V183.832L373.062 183.197H374.015L374.65 181.61L375.602 181.292Z" fill="#2F1304"/>
<path d="M207.01 240.982L207.645 241.3L208.28 242.887L207.962 245.427H207.327L207.01 246.38H206.375V241.3L207.01 240.982Z" fill="#401C04"/>
<path d="M137.478 362.585L137.795 363.22L139.383 363.855L140.335 364.807V365.442H140.97L141.605 366.395L142.875 367.03L143.51 368.617L141.923 368.3L140.018 366.077L137.795 364.172L137.478 362.585Z" fill="#2C1204"/>
<path d="M170.815 362.585H171.45L172.402 363.537L173.355 364.172L174.625 366.712L175.577 366.395L175.26 367.982H174.625V367.347L173.355 366.712L171.132 364.807L170.815 362.585Z" fill="#2D1204"/>
<path d="M131.762 265.748H133.35H134.62V266.383L133.032 266.7V267.335L132.08 267.97H131.127L130.81 268.923L129.54 269.558L129.222 267.018L131.762 266.7V265.748Z" fill="#046798"/>
<path d="M1.5874 346.71L6.9849 347.98L13.6524 351.155V351.472H12.0649L10.7949 350.52L6.6674 348.615L2.2224 347.98L1.5874 346.71Z" fill="#E29B83"/>
<path d="M195.898 331.152H196.215V335.28L194.628 338.137L193.04 339.09L192.405 338.772V338.137L194.31 336.55L195.263 334.327L195.898 331.152Z" fill="#046798"/>
<path d="M171.45 304.165L172.72 304.483L171.132 305.435L171.45 307.658L172.402 311.15L173.99 310.833L173.672 311.785H171.767L170.497 309.245L170.18 307.975V305.753L171.45 304.165Z" fill="#3F1B04"/>
<path d="M154.305 265.43L156.845 265.747L161.925 267.335L162.243 267.97L155.575 267.017L153.988 266.065L154.305 265.43Z" fill="#F2CEB7"/>
<path d="M35.8775 358.775L38.735 359.093L42.8625 360.998L42.545 361.95L40.9575 361.633V360.998L37.1475 360.045L34.925 359.41L35.8775 358.775Z" fill="#2E1304"/>
<path d="M6.3501 340.36L9.2076 340.677L14.9226 343.217L17.1451 344.487L16.5101 344.805L10.4776 342.265L6.3501 340.677V340.36Z" fill="#E29B83"/>
<path d="M223.52 317.5H229.87L233.363 317.817L233.045 318.452H227.33L223.838 318.135L223.52 317.5Z" fill="#056798"/>
<path d="M217.805 219.392H221.297L224.79 219.71V220.027L217.805 220.345L216.852 220.98H212.09L211.772 220.027L213.995 220.345H216.535L217.805 219.392Z" fill="#2C1204"/>
<path d="M587.057 184.785H588.645V185.42L589.597 185.738L589.915 186.69L589.597 187.643L588.01 187.96L586.74 186.055L587.057 184.785Z" fill="#2F1304"/>
<path d="M469.265 272.098L470.535 272.415L471.487 274.955L471.17 276.86H469.9L469.582 274.003L469.265 272.098Z" fill="#321504"/>
<path d="M314.96 405.13L316.547 405.448L320.357 407.67L324.485 410.845L326.39 412.433H325.437L318.452 407.353L314.96 405.448V405.13Z" fill="#401C04"/>
<path d="M245.11 220.027L246.38 220.662L245.745 220.98H233.68V220.345H241.617L245.11 220.027Z" fill="#2C1205"/>
<path d="M3.81004 351.155L6.35004 351.473V351.79H3.49254L4.76254 353.06L8.89004 354.648V355.6L7.62004 355.283V354.648L4.44504 354.013L3.17504 353.378L2.54004 352.425V351.473L3.81004 351.155Z" fill="#E4A087"/>
<path d="M503.237 246.062L503.555 246.697H504.19V251.142L503.237 251.777L502.92 251.46V247.015L503.237 246.062Z" fill="#311404"/>
<path d="M256.858 240.03H262.255L263.207 240.983H254V240.665H256.858V240.03Z" fill="#056798"/>
<path d="M519.113 289.242L521.653 289.877L522.605 290.83L525.145 291.147V291.782H521.335L519.43 290.512L519.113 289.242Z" fill="#2E1304"/>
<path d="M329.565 148.59H331.153L329.565 149.86L328.93 151.13H328.295V160.972H327.978V150.495L328.93 148.907L329.565 148.59Z" fill="#FDFDFD"/>
<path d="M374.332 298.768H376.237V300.673L374.967 302.26L374.015 301.308V299.085L374.332 298.768Z" fill="#056798"/>
<path d="M159.385 220.027H165.1L165.418 220.98H159.703L158.433 220.345L159.385 220.027Z" fill="#2C1204"/>
<path d="M244.475 282.258H247.332L248.285 283.528H242.252V282.893L244.475 282.258Z" fill="#026E9D"/>
<path d="M135.255 361.95L136.842 363.537L140.335 367.347L142.875 369.57L141.922 369.887L139.7 367.982L137.477 365.442L135.255 362.585V361.95Z" fill="#E29B83"/>
<path d="M455.93 288.607L456.883 288.925L456.248 290.195L454.978 290.83H451.485L451.803 289.877L454.978 289.56L455.93 289.242V288.607Z" fill="#321504"/>
<path d="M580.39 212.09L581.66 212.725V213.36L582.613 213.677L584.2 215.582L582.295 215.265L580.708 214.63L580.39 213.995V212.09Z" fill="#2F1304"/>
<path d="M252.73 219.392H253.365L253.048 220.662L252.095 220.98H247.968V220.027L252.413 219.71L252.73 219.392Z" fill="#2D1204"/>
<path d="M571.818 186.69H572.77L573.088 188.278L572.453 190.183L571.183 190.5L571.5 187.008L571.818 186.69Z" fill="#301404"/>
<path d="M499.745 254L500.698 254.635L501.015 255.905L500.698 256.857H498.475L498.793 254.317L499.745 254Z" fill="#2D1204"/>
<path d="M566.738 180.34L567.69 180.657V182.562L566.103 182.88L565.15 182.562L564.515 181.292L566.738 180.34Z" fill="#361704"/>
<path d="M605.155 224.473H605.79V226.695L605.155 229.87H604.52V225.108L605.155 224.473Z" fill="#026D9C"/>
<path d="M601.345 226.378L603.25 227.33V227.965L604.202 228.283V230.505H603.567L601.345 227.33V226.378Z" fill="#2F1304"/>
<path d="M557.213 200.66L558.8 200.978L559.118 203.2L557.213 202.565L556.26 201.613V200.978L557.213 200.66Z" fill="#2E1304"/>
<path d="M569.277 172.72H569.912V177.165L569.595 176.212H568.96V175.577H568.325L568.642 173.672L569.277 172.72Z" fill="#F7BE92"/>
<path d="M221.615 314.96L222.25 315.912L222.885 317.817L223.52 318.135L229.235 318.452V318.77H222.568L222.25 317.5H221.615L221.298 315.595L221.615 314.96Z" fill="#036A9A"/>
<path d="M235.903 317.5H238.76V317.817L236.538 318.452L233.363 318.77V318.135H229.87V317.817L235.903 317.5Z" fill="#036B9B"/>
<path d="M206.058 312.738H211.138L211.773 313.69L211.455 315.595H211.138L210.82 313.69H206.375L206.058 312.738Z" fill="#E29B83"/>
<path d="M315.913 411.48L316.865 412.115V414.972L315.278 414.655L314.643 412.432L315.913 412.75V411.48Z" fill="#3C1A04"/>
<path d="M210.185 241.3H211.138L211.455 244.158L211.138 246.38L210.82 246.698H207.328V246.38L210.503 246.063V242.253L210.185 241.3Z" fill="#401C04"/>
<path d="M539.432 200.66H539.75L540.067 203.835L539.115 205.105L538.797 204.47V201.613L539.432 200.66Z" fill="#056798"/>
<path d="M480.377 263.525H480.695L481.012 266.065H481.647L482.6 267.018L485.457 267.97V268.288L482.6 267.97L480.695 266.7L480.377 265.748V263.525Z" fill="#401C04"/>
<path d="M393.7 171.45H395.923L396.875 172.085L396.558 172.72H394.018L393.383 172.402L393.7 171.45Z" fill="#311404"/>
<path d="M152.4 357.188L153.035 357.822L153.67 358.14L153.035 359.727L152.083 360.997V358.775L151.448 358.457L152.4 357.188Z" fill="#401C04"/>
<path d="M284.798 291.147H288.29L289.878 291.465V291.782L284.48 292.1L284.163 291.465L284.798 291.147Z" fill="#056798"/>
<path d="M180.658 219.392L180.975 220.345L179.07 220.98H176.53L177.483 220.027L180.658 219.392Z" fill="#311404"/>
<path d="M582.93 180.34L584.2 181.61L586.422 185.102L586.105 185.737L584.835 183.832L583.882 182.88L582.93 180.975V180.34Z" fill="#F3B68F"/>
<path d="M192.087 380.365L193.992 381.952L196.532 385.127L196.215 385.762L192.722 381.952L192.087 380.365Z" fill="#E29B83"/>
<path d="M207.645 313.69H209.868V314.642L209.233 315.277L207.645 314.96V313.69Z" fill="#2C1205"/>
<path d="M504.19 280.67H504.825L504.508 281.622L503.873 281.94H500.698V281.305L504.19 280.67Z" fill="#341604"/>
<path d="M294.005 280.67H296.863L297.18 281.622H293.37V280.987L294.005 280.67Z" fill="#046899"/>
<path d="M142.558 265.113H144.463L143.51 265.748L140.335 266.7L139.383 266.065L142.558 265.113Z" fill="#371704"/>
<path d="M18.4149 353.06L20.6374 353.378L20.9549 354.648L19.6849 357.188H18.0974L19.0499 356.553L19.3674 355.6L20.0024 355.283V354.013L18.4149 353.378V353.06Z" fill="#401C04"/>
<path d="M4.44504 339.725L6.03254 340.042V340.36L3.81004 340.995L3.49254 342.265L5.71504 342.582V342.9H3.49254L2.54004 341.947L3.17504 340.677L4.44504 339.725Z" fill="#E29B83"/>
<path d="M193.675 326.39L194.31 326.708L195.58 330.2V331.788L194.945 331.153L193.993 328.613L193.675 326.39Z" fill="#F2CDB5"/>
<path d="M307.34 403.542L312.42 405.765L311.15 406.082L307.658 404.812L307.34 403.542Z" fill="#E29B83"/>
<path d="M550.545 186.69H552.768L553.403 187.008V187.643H550.863L548.64 188.913L549.275 187.643L550.545 186.69Z" fill="#F0B28D"/>
<path d="M206.375 280.353L207.01 280.67H211.455L211.137 281.623H206.692L206.375 280.353Z" fill="#E29B83"/>
<path d="M605.79 236.22L607.06 237.172V239.395L606.425 240.665L605.79 237.49V236.22Z" fill="#03699A"/>
<path d="M257.175 220.027L259.398 220.345L261.938 220.662V220.98H256.54V220.345L257.175 220.027Z" fill="#2C1205"/>
<path d="M264.795 429.577L265.43 429.895V430.847H262.255V430.212L264.795 429.577Z" fill="#EFDBD1"/>
<path d="M101.918 362.902V363.855L99.06 366.395L98.425 367.347L97.79 367.03L100.648 363.855L101.918 362.902Z" fill="#E29B83"/>
<path d="M117.475 303.53L118.11 303.848V305.118H118.745L118.428 306.07L116.84 305.753V304.165H117.475V303.53Z" fill="#2F1304"/>
<path d="M511.81 296.545H512.445L514.35 300.037V300.672H513.715L511.81 297.497V296.545Z" fill="#F2BF9E"/>
<path d="M561.975 175.578L562.927 175.895L563.245 178.435L561.975 177.8L561.657 175.895L561.975 175.578Z" fill="#F3B68F"/>
<path d="M3.49243 351.79H6.66743L7.61993 352.425L4.76243 352.108L5.71493 353.378L4.12743 353.06L3.49243 351.79Z" fill="#401C04"/>
<path d="M304.482 421.005L305.435 421.323L304.482 421.958V421.005Z" fill="#F1E0D7"/>
</g>
<defs>
<clipPath id="clip0_7_42">
<rect width="635" height="635" fill="white"/>
</clipPath>
</defs>
</svg>
