<svg width="583" height="583" viewBox="0 0 583 583" fill="none" xmlns="http://www.w3.org/2000/svg">
<path d="M556.963 269.159C550.853 239.275 540.126 210.102 527.37 183.284C505.379 137.017 469.35 98.597 423.258 75.79C310.156 19.822 228.536 43.142 184.228 88.616C139.92 134.09 152.746 212.212 104.94 246.026C57.134 279.84 23.32 294.998 20.988 356.796C18.656 418.594 48.972 465.234 97.944 480.392C146.916 495.55 220.374 544.522 367.29 516.538C514.206 488.554 550.352 410.432 559.68 354.464C564.344 326.305 562.735 297.412 556.963 269.159Z" fill="#2D446E"/>
<path opacity="0.7" d="M556.963 269.159C550.853 239.275 540.126 210.102 527.37 183.284C505.379 137.017 469.35 98.597 423.258 75.79C310.156 19.822 228.536 43.142 184.228 88.616C139.92 134.09 152.746 212.212 104.94 246.026C57.134 279.84 23.32 294.998 20.988 356.796C18.656 418.594 48.972 465.234 97.944 480.392C146.916 495.55 220.374 544.522 367.29 516.538C514.206 488.554 550.352 410.432 559.68 354.464C564.344 326.305 562.735 297.412 556.963 269.159Z" fill="white"/>
<path d="M212.585 98.5503H202.021V145.365H212.585V98.5503Z" fill="#C9C9C9" stroke="#263238" stroke-linecap="round" stroke-linejoin="round"/>
<path d="M212.585 105.593H202.021V110.164H212.585V105.593Z" fill="white" stroke="#263238" stroke-linecap="round" stroke-linejoin="round"/>
<path d="M212.585 134.638H202.021V139.209H212.585V134.638Z" fill="white" stroke="#263238" stroke-linecap="round" stroke-linejoin="round"/>
<path d="M224.91 98.5503H210.125V145.365H224.91V98.5503Z" fill="#878787" stroke="#263238" stroke-linecap="round" stroke-linejoin="round"/>
<path d="M223.86 98.5503H213.296V145.365H223.86V98.5503Z" fill="#C9C9C9" stroke="#263238" stroke-linecap="round" stroke-linejoin="round"/>
<path d="M223.86 105.593H213.296V110.164H223.86V105.593Z" fill="white" stroke="#263238" stroke-linecap="round" stroke-linejoin="round"/>
<path d="M223.86 134.638H213.296V139.209H223.86V134.638Z" fill="white" stroke="#263238" stroke-linecap="round" stroke-linejoin="round"/>
<path d="M236.173 98.5503H221.388V145.365H236.173V98.5503Z" fill="#878787" stroke="#263238" stroke-linecap="round" stroke-linejoin="round"/>
<path d="M235.124 98.5503H224.56V145.365H235.124V98.5503Z" fill="#C9C9C9" stroke="#263238" stroke-linecap="round" stroke-linejoin="round"/>
<path d="M235.124 105.593H224.56V110.164H235.124V105.593Z" fill="white" stroke="#263238" stroke-linecap="round" stroke-linejoin="round"/>
<path d="M235.124 134.638H224.56V139.209H235.124V134.638Z" fill="white" stroke="#263238" stroke-linecap="round" stroke-linejoin="round"/>
<path d="M247.437 98.5503H232.652V145.365H247.437V98.5503Z" fill="#C9C9C9" stroke="#263238" stroke-linecap="round" stroke-linejoin="round"/>
<path d="M257.068 145.843H281.88L288.48 139.873H257.068V145.843Z" fill="white" stroke="#263238" stroke-linecap="round" stroke-linejoin="round"/>
<path d="M285.67 146.147L284.877 144.782L256.555 144.724L257.371 146.147H285.67Z" fill="white" stroke="#263238" stroke-linecap="round" stroke-linejoin="round"/>
<path d="M242.703 99.5251L233.558 104.813L256.993 145.34L266.138 140.052L242.703 99.5251Z" fill="#C9C9C9" stroke="#263238" stroke-linecap="round" stroke-linejoin="round"/>
<path d="M246.231 105.605L237.086 110.894L239.374 114.851L248.519 109.562L246.231 105.605Z" fill="white" stroke="#263238" stroke-linecap="round" stroke-linejoin="round"/>
<path d="M260.78 130.746L251.635 136.034L253.923 139.991L263.068 134.703L260.78 130.746Z" fill="white" stroke="#263238" stroke-linecap="round" stroke-linejoin="round"/>
<path d="M288.317 140.281L265.895 140.223L242.458 99.693L264.88 99.7513L288.317 140.281Z" fill="#C9C9C9" stroke="#263238" stroke-linecap="round" stroke-linejoin="round"/>
<path d="M300.536 122.139C300.536 122.139 296.455 120.681 295.289 114.268C294.123 107.855 292.083 98.8185 294.415 96.778C296.747 94.7375 301.119 93.5715 301.702 97.6525C302.285 101.734 301.411 109.604 302.285 111.353C303.16 113.102 306.075 111.936 306.075 108.438C306.075 102.678 303.743 96.778 304.571 90.948C305.737 82.891 313.899 82.0048 314.773 90.948C315.263 95.8919 315.403 100.941 315.403 105.908C315.403 107.948 318.901 109.114 318.609 104.159C318.4 100.661 320.941 96.5798 324.439 97.7458C327.937 98.9118 325.022 114.361 323.856 116.985C322.69 119.608 315.403 120.098 315.403 120.098V126.803L306.658 127.094L306.366 120.39C304.586 121.419 302.589 122.018 300.536 122.139Z" fill="#2D446E" stroke="#263238" stroke-linecap="round" stroke-linejoin="round"/>
<path d="M308.407 109.359C308.512 110.817 308.582 111.691 308.582 111.691" stroke="#263238" stroke-linecap="round" stroke-linejoin="round"/>
<path d="M308.99 86.7505C308.99 86.7505 307.078 88.0797 307.218 92.0674C307.311 94.4927 307.777 101.209 308.139 106.118" stroke="#263238" stroke-linecap="round" stroke-linejoin="round"/>
<path d="M312.278 100.498L312.581 110.257" stroke="#263238" stroke-linecap="round" stroke-linejoin="round"/>
<path d="M316.546 116.6C315.87 116.705 315.189 116.764 314.505 116.775" stroke="#263238" stroke-linecap="round" stroke-linejoin="round"/>
<path d="M322.632 100.206C321.959 101.482 321.603 102.902 321.594 104.345C321.594 106.677 321.746 113.219 320.265 114.991C319.904 115.389 319.463 115.707 318.971 115.924" stroke="#263238" stroke-linecap="round" stroke-linejoin="round"/>
<path d="M297.33 113.324C297.68 115.077 298.521 116.694 299.755 117.988C300.485 118.572 301.386 118.901 302.32 118.927C303.255 118.952 304.172 118.671 304.932 118.128" stroke="#263238" stroke-linecap="round" stroke-linejoin="round"/>
<path d="M297.05 97.5476C297.05 97.5476 294.1 97.5476 295.126 102.713C295.569 104.893 295.977 107.575 296.502 110.105" stroke="#263238" stroke-linecap="round" stroke-linejoin="round"/>
<path d="M308.139 117.206L308.733 123.561" stroke="#263238" stroke-linecap="round" stroke-linejoin="round"/>
<path d="M323.273 124.179L322.212 132.877L321.489 138.801L320.65 145.692H299.674L298.834 138.801L298.111 132.877L297.05 124.179H323.273Z" fill="white" stroke="#263238" stroke-linecap="round" stroke-linejoin="round"/>
<path d="M322.212 132.877L321.49 138.801H298.834L298.111 132.877H322.212Z" fill="#2D446E" stroke="#263238" stroke-linecap="round" stroke-linejoin="round"/>
<path d="M334.794 145.692H200.156V154.612H334.794V145.692Z" fill="white" stroke="#263238" stroke-linecap="round" stroke-linejoin="round"/>
<path d="M334.794 145.692H303.755V154.612H334.794V145.692Z" fill="white" stroke="#263238" stroke-linecap="round" stroke-linejoin="round"/>
<path d="M300.735 154.647C315.158 159.964 312.558 170.014 312.558 170.014H326.212V154.647H300.735Z" fill="#919191" stroke="#263238" stroke-linecap="round" stroke-linejoin="round"/>
<path d="M305.34 154.647C319.752 159.964 317.152 170.014 317.152 170.014H330.817V154.647H305.34Z" fill="white" stroke="#263238" stroke-linecap="round" stroke-linejoin="round"/>
<path d="M208.329 154.647C222.753 159.964 220.152 170.014 220.152 170.014H233.806V154.647H208.329Z" fill="#919191" stroke="#263238" stroke-linecap="round" stroke-linejoin="round"/>
<path d="M212.935 154.647C227.347 159.964 224.746 170.014 224.746 170.014H238.412V154.647H212.935Z" fill="white" stroke="#263238" stroke-linecap="round" stroke-linejoin="round"/>
<path d="M522.415 100.218H401.664V267.842H522.415V100.218Z" fill="#919191" stroke="#263238" stroke-linecap="round" stroke-linejoin="round"/>
<path d="M517.179 107.494H406.911V260.566H517.179V107.494Z" fill="#2D446E"/>
<path opacity="0.5" d="M517.179 107.494H406.911V260.566H517.179V107.494Z" fill="white"/>
<path d="M431.152 248.941C428.195 253.451 424.461 257.399 420.121 260.601H517.179V107.494H499.293L496.961 108.228C479.471 113.743 461.398 129.706 451.149 158.716" stroke="#263238" stroke-linecap="round" stroke-linejoin="round"/>
<path d="M449.446 163.8C445.374 177.635 443.125 191.942 442.754 206.359C442.112 223.662 438.428 236.103 433.507 245.047" stroke="#263238" stroke-linecap="round" stroke-linejoin="round"/>
<path d="M506.394 146.345C490.361 155.673 471.694 171.344 464.721 195.375C460.978 208.201 464.488 219.768 471.425 229.667" stroke="#263238" stroke-linecap="round" stroke-linejoin="round"/>
<path d="M475.18 234.494C484.799 245.758 498.5 254.619 509.589 260.578H517.179V140.69C515.01 141.704 512.702 142.847 510.3 144.188" stroke="#263238" stroke-linecap="round" stroke-linejoin="round"/>
<path d="M425.24 147.406C433.682 130.196 434.568 116.542 433.6 107.494H406.934V177.523C410.875 171.915 415.702 164.418 421.532 154.367C421.894 153.749 422.232 153.201 422.57 152.548" stroke="#263238" stroke-linecap="round" stroke-linejoin="round"/>
<path d="M435.688 213.693C434.393 222.17 430.499 228.326 425.905 228.326C420.25 228.326 415.656 218.998 415.656 207.455C415.656 195.911 420.25 186.583 425.905 186.583C431.56 186.583 436.154 195.911 436.154 207.455" stroke="#263238" stroke-linecap="round" stroke-linejoin="round"/>
<path d="M440.55 164.616C440.55 169.058 438.591 172.673 436.154 172.673C433.717 172.673 431.77 169.058 431.77 164.616C431.77 160.173 433.729 156.559 436.154 156.559C438.579 156.559 440.55 160.162 440.55 164.616Z" stroke="#263238" stroke-linecap="round" stroke-linejoin="round"/>
<path d="M496.494 198.651C500.727 200.669 503.49 204.19 503.49 208.189C503.49 214.451 496.611 219.534 488.111 219.534C479.611 219.534 472.743 214.451 472.743 208.189C472.743 201.928 479.622 196.832 488.111 196.832C489.465 196.831 490.817 196.964 492.145 197.229" stroke="#263238" stroke-linecap="round" stroke-linejoin="round"/>
<path d="M494.594 208.189C494.594 210.813 491.714 212.947 488.146 212.947C484.578 212.947 481.698 210.813 481.698 208.189C481.698 205.566 484.59 203.42 488.146 203.42C491.702 203.42 494.594 205.554 494.594 208.189Z" stroke="#263238" stroke-linecap="round" stroke-linejoin="round"/>
<path d="M504.995 179.261C504.995 182.899 501.392 185.849 496.938 185.849C492.483 185.849 488.88 182.899 488.88 179.261C488.88 175.623 492.483 172.673 496.938 172.673C501.392 172.673 504.995 175.623 504.995 179.261Z" stroke="#263238" stroke-linecap="round" stroke-linejoin="round"/>
<path d="M446.776 142.648C449.809 142.648 452.268 136.582 452.268 129.099C452.268 121.617 449.809 115.551 446.776 115.551C443.743 115.551 441.284 121.617 441.284 129.099C441.284 136.582 443.743 142.648 446.776 142.648Z" stroke="#263238" stroke-linecap="round" stroke-linejoin="round"/>
<path d="M461.794 245.536C461.794 247.058 461.343 248.546 460.497 249.812C459.652 251.077 458.45 252.064 457.044 252.646C455.637 253.228 454.09 253.381 452.597 253.084C451.105 252.787 449.733 252.054 448.657 250.978C447.581 249.902 446.848 248.53 446.551 247.038C446.254 245.545 446.406 243.997 446.989 242.591C447.571 241.185 448.558 239.983 449.823 239.138C451.089 238.292 452.577 237.841 454.099 237.841C456.14 237.841 458.097 238.651 459.54 240.095C460.984 241.538 461.794 243.495 461.794 245.536Z" stroke="#263238" stroke-linecap="round" stroke-linejoin="round"/>
<path d="M497.672 131.292C497.674 132.236 497.396 133.159 496.873 133.945C496.35 134.731 495.605 135.345 494.734 135.707C493.862 136.069 492.902 136.165 491.976 135.981C491.05 135.797 490.199 135.343 489.531 134.675C488.863 134.008 488.409 133.157 488.225 132.231C488.042 131.305 488.137 130.345 488.5 129.473C488.862 128.601 489.475 127.856 490.261 127.333C491.047 126.81 491.971 126.532 492.915 126.534C494.176 126.537 495.384 127.04 496.275 127.931C497.167 128.823 497.669 130.031 497.672 131.292Z" stroke="#263238" stroke-linecap="round" stroke-linejoin="round"/>
<path d="M467.648 164.977C467.65 165.485 467.501 165.982 467.221 166.406C466.94 166.829 466.541 167.16 466.072 167.355C465.604 167.551 465.087 167.604 464.589 167.506C464.091 167.409 463.633 167.165 463.273 166.807C462.913 166.449 462.667 165.992 462.567 165.494C462.467 164.996 462.518 164.479 462.711 164.01C462.905 163.541 463.234 163.139 463.656 162.857C464.078 162.574 464.575 162.424 465.082 162.424C465.419 162.422 465.752 162.487 466.063 162.615C466.374 162.742 466.657 162.93 466.896 163.168C467.134 163.405 467.323 163.687 467.452 163.997C467.581 164.308 467.648 164.641 467.648 164.977Z" stroke="#263238" stroke-linecap="round" stroke-linejoin="round"/>
<path d="M517.179 107.494H406.911V260.566H517.179V107.494Z" stroke="#263238" stroke-linecap="round" stroke-linejoin="round"/>
<path d="M336.962 325.769H307.008V337.044H336.962V325.769Z" fill="#263238" stroke="#263238" stroke-linecap="round" stroke-linejoin="round"/>
<path d="M377.154 327.471H257.931L263.574 235.054H382.81L377.154 327.471Z" fill="#919191" stroke="#263238" stroke-linecap="round" stroke-linejoin="round"/>
<path d="M373.738 327.471H254.515L260.158 235.054H379.381L373.738 327.471Z" fill="#263238" stroke="#263238" stroke-linecap="round" stroke-linejoin="round"/>
<path d="M367.43 322.329H261.452L266.466 240.184H372.444L367.43 322.329Z" fill="white" stroke="#263238" stroke-linecap="round" stroke-linejoin="round"/>
<path d="M336.601 310.086H264.612L268.472 246.784H340.472L336.601 310.086Z" fill="#919191" stroke="#263238" stroke-linecap="round" stroke-linejoin="round"/>
<path d="M293.016 282.895C293.016 282.895 278.021 288.83 277.928 290.427C277.835 292.025 274.896 310.086 274.896 310.086H319.484L315.73 289.285L299.231 282.429L293.016 282.895Z" fill="white" stroke="#263238" stroke-linecap="round" stroke-linejoin="round"/>
<path d="M293.459 279.234C292.33 279.531 291.283 280.077 290.392 280.831C289.226 281.997 287.804 285.857 287.804 285.857L287.745 290.427L293.657 287.233L299.662 286.836L305.282 292.095L306.005 284.096C306.005 284.096 305.142 279.525 303.323 279.292C301.504 279.059 293.459 279.234 293.459 279.234Z" fill="white" stroke="#263238" stroke-linecap="round" stroke-linejoin="round"/>
<path d="M293.272 274.896L293.016 282.895L296.549 288.608L302.391 282.662L303.3 275.351L293.272 274.896Z" fill="white" stroke="#263238" stroke-linecap="round" stroke-linejoin="round"/>
<path d="M307.684 265.545C307.264 272.249 302.81 280.376 297.925 280.376C293.039 280.376 289.576 272.214 289.984 265.545C290.392 258.875 294.648 253.407 299.569 253.407C304.489 253.407 308.092 258.852 307.684 265.545Z" fill="white" stroke="#263238" stroke-linecap="round" stroke-linejoin="round"/>
<path d="M289.903 266.431C289.903 266.431 288.329 262.327 287.676 265.522C287.023 268.716 290.241 272.144 290.241 272.144L289.903 266.431Z" fill="white" stroke="#263238" stroke-linecap="round" stroke-linejoin="round"/>
<path d="M307.684 265.545C307.684 265.545 311.544 263.924 310.413 267.352C310.125 268.322 309.624 269.215 308.946 269.966C308.268 270.717 307.431 271.306 306.495 271.69L307.684 265.545Z" fill="white" stroke="#263238" stroke-linecap="round" stroke-linejoin="round"/>
<path d="M297.447 266.431C297.478 266.019 297.422 265.606 297.284 265.217C297.147 264.828 296.929 264.471 296.646 264.171C296.363 263.87 296.021 263.632 295.641 263.471C295.261 263.31 294.851 263.23 294.438 263.236C293.579 263.259 292.758 263.597 292.132 264.186C291.506 264.775 291.12 265.575 291.045 266.431C291.015 266.843 291.07 267.257 291.208 267.647C291.345 268.037 291.562 268.394 291.845 268.695C292.128 268.996 292.47 269.236 292.85 269.398C293.231 269.56 293.64 269.642 294.054 269.638C294.915 269.615 295.737 269.275 296.363 268.683C296.989 268.091 297.375 267.289 297.447 266.431Z" fill="white" stroke="#263238" stroke-linecap="round" stroke-linejoin="round"/>
<path d="M305.212 266.431L308.698 265.521" stroke="#263238" stroke-linecap="round" stroke-linejoin="round"/>
<path d="M305.212 266.431C305.243 266.02 305.188 265.608 305.051 265.219C304.914 264.831 304.698 264.476 304.416 264.175C304.134 263.875 303.793 263.636 303.414 263.475C303.036 263.313 302.627 263.232 302.216 263.236C301.354 263.256 300.53 263.593 299.902 264.182C299.274 264.772 298.885 265.573 298.811 266.431C298.78 266.843 298.835 267.257 298.973 267.647C299.111 268.037 299.328 268.394 299.611 268.695C299.894 268.996 300.236 269.236 300.616 269.398C300.996 269.56 301.406 269.642 301.819 269.637C302.68 269.615 303.503 269.275 304.129 268.683C304.755 268.091 305.141 267.289 305.212 266.431Z" fill="white" stroke="#263238" stroke-linecap="round" stroke-linejoin="round"/>
<path d="M298.776 252.031C298.776 252.031 295.278 250.212 292.654 251.355C290.031 252.497 288.095 258.665 288.224 260.263C288.635 262.356 289.196 264.418 289.903 266.431L292.678 258.432L299.954 255.237L298.776 252.031Z" fill="#263238" stroke="#263238" stroke-linecap="round" stroke-linejoin="round"/>
<path d="M295.255 253.64C295.255 253.64 301.015 249.069 305.679 251.308C307.106 251.928 308.286 253.007 309.031 254.373C309.777 255.74 310.046 257.316 309.795 258.852C309.725 260.018 309.631 265.242 309.631 265.242L306.856 265.708L305.492 261.406C303.916 260.782 302.381 260.058 300.898 259.237C300.898 259.237 294.73 258.432 295.255 253.64Z" fill="#263238" stroke="#263238" stroke-linecap="round" stroke-linejoin="round"/>
<path d="M297.447 266.431L297.039 273.066H298.636" fill="white"/>
<path d="M297.447 266.431L297.039 273.066H298.636" stroke="#263238" stroke-linecap="round" stroke-linejoin="round"/>
<path d="M296.199 275.573H299.627" stroke="#263238" stroke-linecap="round" stroke-linejoin="round"/>
<path d="M296.549 288.608L295.278 309.398" stroke="#263238" stroke-linecap="round" stroke-linejoin="round"/>
<path d="M315.706 289.285C315.706 289.285 310.937 300.035 310.797 302.321C310.657 304.606 310.121 309.631 310.121 309.631" stroke="#263238" stroke-linecap="round" stroke-linejoin="round"/>
<path d="M277.928 290.427C277.928 290.427 282.673 298.659 283.291 299.755C283.909 300.851 283.152 309.585 283.152 309.585" stroke="#263238" stroke-linecap="round" stroke-linejoin="round"/>
<path d="M318.889 297.062L320.464 289.973L323.145 287.232L325.676 283.116H326.818L325.419 287.466L328.964 285.402L331.249 281.752L332.578 282.428L329.313 290.894L324.136 293.401L323.239 296.829L318.889 297.062Z" fill="white" stroke="#263238" stroke-linecap="round" stroke-linejoin="round"/>
<path d="M323.32 310.086L323.752 295.919L318.551 294.998L314.447 310.086H323.32Z" fill="white" stroke="#263238" stroke-linecap="round" stroke-linejoin="round"/>
<path d="M336.286 315.345H264.286L264.612 310.086H336.601L336.286 315.345Z" fill="white" stroke="#263238" stroke-linecap="round" stroke-linejoin="round"/>
<path d="M267.224 312.15H333.278" stroke="#263238" stroke-linecap="round" stroke-linejoin="round"/>
<path d="M367.547 263.679H343.317L344.343 246.994H368.573L367.547 263.679Z" fill="#2D446E" stroke="#263238" stroke-linecap="round" stroke-linejoin="round"/>
<path d="M367.547 263.679H343.317L343.492 260.939H367.722L367.547 263.679Z" fill="white" stroke="#263238" stroke-linecap="round" stroke-linejoin="round"/>
<path d="M359.723 254.363L353.426 250.597L352.972 258.129L359.723 254.363Z" fill="white" stroke="#263238" stroke-linecap="round" stroke-linejoin="round"/>
<path d="M365.972 289.506H341.743L342.757 272.832H366.987L365.972 289.506Z" fill="#2D446E" stroke="#263238" stroke-linecap="round" stroke-linejoin="round"/>
<path d="M365.972 289.506H341.743L341.918 286.766H366.136L365.972 289.506Z" fill="white" stroke="#263238" stroke-linecap="round" stroke-linejoin="round"/>
<path d="M358.149 280.201L351.852 276.435L351.397 283.968L358.149 280.201Z" fill="white" stroke="#263238" stroke-linecap="round" stroke-linejoin="round"/>
<path d="M364.387 315.345H340.169L341.183 298.659H365.413L364.387 315.345Z" fill="#2D446E" stroke="#263238" stroke-linecap="round" stroke-linejoin="round"/>
<path d="M364.387 315.345H340.169L340.332 312.605H364.562L364.387 315.345Z" fill="white" stroke="#263238" stroke-linecap="round" stroke-linejoin="round"/>
<path d="M356.563 306.028L350.278 302.262L349.812 309.795L356.563 306.028Z" fill="white" stroke="#263238" stroke-linecap="round" stroke-linejoin="round"/>
<path d="M343.387 266.431H366.917" stroke="#263238" stroke-linecap="round" stroke-linejoin="round"/>
<path d="M343.212 269.183H366.754" stroke="#263238" stroke-linecap="round" stroke-linejoin="round"/>
<path d="M341.79 292.491H365.331" stroke="#263238" stroke-linecap="round" stroke-linejoin="round"/>
<path d="M341.626 295.231H365.168" stroke="#263238" stroke-linecap="round" stroke-linejoin="round"/>
<path d="M331.354 337.044H313.654C313.654 335.278 314.356 333.585 315.604 332.336C316.853 331.088 318.546 330.386 320.312 330.386H324.673C326.439 330.386 328.132 331.088 329.381 332.336C330.629 333.585 331.331 335.278 331.331 337.044H331.354Z" fill="white" stroke="#263238" stroke-linecap="round" stroke-linejoin="round"/>
<path d="M305.224 333.418H218.683V337.044H305.224V333.418Z" fill="#919191" stroke="#263238" stroke-linecap="round" stroke-linejoin="round"/>
<path d="M305.2 333.418H283.455V337.044H305.2V333.418Z" fill="white" stroke="#263238" stroke-linecap="round" stroke-linejoin="round"/>
<path d="M183.214 159.311V90.4116" stroke="#263238" stroke-linecap="round" stroke-linejoin="round"/>
<path d="M183.214 504.132V166.167" stroke="#263238" stroke-linecap="round" stroke-linejoin="round"/>
<path d="M340.554 361.227L351.048 502.698C351.102 503.214 351.351 503.69 351.745 504.029C352.138 504.368 352.646 504.544 353.164 504.522C353.683 504.5 354.174 504.28 354.537 503.909C354.899 503.538 355.107 503.042 355.117 502.523L353.543 361.227H340.554Z" fill="#919191" stroke="#263238" stroke-linecap="round" stroke-linejoin="round"/>
<path d="M348.471 361.227L354.009 504.33C354.336 504.155 354.609 503.895 354.798 503.576C354.987 503.257 355.085 502.893 355.082 502.523L353.543 361.227H348.471Z" fill="white" stroke="#263238" stroke-linecap="round" stroke-linejoin="round"/>
<path d="M406.514 361.227L417.008 502.698C417.063 503.214 417.312 503.69 417.705 504.029C418.099 504.368 418.606 504.544 419.125 504.522C419.644 504.5 420.135 504.28 420.497 503.909C420.86 503.538 421.068 503.042 421.078 502.523L419.504 361.227H406.514Z" fill="#919191" stroke="#263238" stroke-linecap="round" stroke-linejoin="round"/>
<path d="M413.813 361.227L420.273 504.12C420.515 503.931 420.71 503.688 420.844 503.411C420.977 503.134 421.045 502.83 421.043 502.523L419.503 361.227H413.813Z" fill="white" stroke="#263238" stroke-linecap="round" stroke-linejoin="round"/>
<path d="M232.64 362.766L222.146 502.686C222.111 503.199 221.882 503.68 221.505 504.031C221.128 504.382 220.632 504.576 220.117 504.575C219.848 504.579 219.579 504.531 219.329 504.431C219.078 504.331 218.849 504.183 218.656 503.994C218.463 503.805 218.309 503.58 218.204 503.331C218.099 503.083 218.043 502.816 218.042 502.546L219.593 362.393L232.64 362.766Z" fill="#263238" stroke="#263238" stroke-linecap="round" stroke-linejoin="round"/>
<path d="M166.738 362.766L156.244 502.686C156.208 503.199 155.979 503.68 155.602 504.031C155.226 504.382 154.73 504.576 154.215 504.575C153.946 504.573 153.68 504.519 153.432 504.414C153.185 504.309 152.96 504.157 152.772 503.965C152.583 503.773 152.434 503.546 152.334 503.296C152.233 503.047 152.183 502.78 152.186 502.511L153.737 362.358L166.738 362.766Z" fill="#263238" stroke="#263238" stroke-linecap="round" stroke-linejoin="round"/>
<path d="M423.363 340.332H149.784V362.37H423.363V340.332Z" fill="#919191" stroke="#263238" stroke-linecap="round" stroke-linejoin="round"/>
<path d="M423.363 340.332H344.961V362.37H423.363V340.332Z" fill="white" stroke="#263238" stroke-linecap="round" stroke-linejoin="round"/>
<path d="M423.363 343.83H149.784V349.905H423.363V343.83Z" fill="#263238" stroke="#263238" stroke-linecap="round" stroke-linejoin="round"/>
<path d="M427.304 337.172H145.843V344.541H427.304V337.172Z" fill="#919191" stroke="#263238" stroke-linecap="round" stroke-linejoin="round"/>
<path d="M427.292 337.172H349.998V344.541H427.292V337.172Z" fill="white" stroke="#263238" stroke-linecap="round" stroke-linejoin="round"/>
<path d="M344.308 200.552H306.32C304.341 200.552 302.443 201.338 301.043 202.738C299.644 204.137 298.857 206.035 298.857 208.014V222.006C298.856 222.987 299.048 223.958 299.422 224.864C299.797 225.77 300.346 226.593 301.04 227.287C301.733 227.98 302.556 228.529 303.462 228.904C304.368 229.278 305.339 229.47 306.32 229.469H326.212L318.761 250.282L333.033 229.469H344.308C345.289 229.47 346.26 229.278 347.166 228.904C348.072 228.529 348.895 227.98 349.588 227.287C350.282 226.593 350.831 225.77 351.206 224.864C351.58 223.958 351.772 222.987 351.771 222.006V208.014C351.771 206.035 350.984 204.137 349.585 202.738C348.185 201.338 346.287 200.552 344.308 200.552Z" fill="white" stroke="#263238" stroke-linecap="round" stroke-linejoin="round"/>
<path d="M315.135 218.194C316.635 218.194 317.852 216.977 317.852 215.477C317.852 213.976 316.635 212.76 315.135 212.76C313.634 212.76 312.418 213.976 312.418 215.477C312.418 216.977 313.634 218.194 315.135 218.194Z" fill="#263238"/>
<path d="M325.314 218.194C326.814 218.194 328.031 216.977 328.031 215.477C328.031 213.976 326.814 212.76 325.314 212.76C323.813 212.76 322.597 213.976 322.597 215.477C322.597 216.977 323.813 218.194 325.314 218.194Z" fill="#263238"/>
<path d="M338.198 215.477C338.198 214.939 338.039 214.413 337.74 213.966C337.441 213.519 337.016 213.171 336.518 212.966C336.021 212.76 335.475 212.707 334.947 212.813C334.42 212.919 333.936 213.179 333.556 213.56C333.177 213.941 332.919 214.426 332.816 214.954C332.712 215.482 332.768 216.028 332.975 216.525C333.182 217.021 333.532 217.444 333.981 217.741C334.429 218.038 334.955 218.196 335.493 218.194C335.849 218.194 336.202 218.123 336.531 217.987C336.86 217.85 337.159 217.65 337.41 217.397C337.661 217.145 337.861 216.845 337.996 216.516C338.131 216.186 338.2 215.833 338.198 215.477Z" fill="#263238"/>
<path d="M524.7 504.878H556.182" stroke="#263238" stroke-linecap="round" stroke-linejoin="round"/>
<path d="M27.984 504.878H508.376" stroke="#263238" stroke-linecap="round" stroke-linejoin="round"/>
<path d="M212.958 298.823C209.542 292.993 199.491 270.547 199.491 270.547C199.794 268.149 200.285 265.779 200.96 263.458C201.788 261.126 203.875 254.06 203.455 252.591C203.036 251.121 196.984 248.416 196.366 248.206C195.748 247.997 197.194 244.452 194.897 243.612C192.6 242.773 191.772 244.032 191.772 244.032L190.898 249.862L188.216 254.06C187.099 253.211 185.931 252.432 184.718 251.728C182.841 250.678 178.456 250.259 178.246 251.938C178.037 253.617 181.744 255.063 183.039 256.112C184.333 257.161 185.965 262.164 187.435 263.633C188.77 265.09 190.023 266.62 191.189 268.215L192.029 270.932C192.029 270.932 194.885 298.438 195.223 305.282C195.562 312.127 196.588 330.235 198.64 332.963C200.692 335.691 201.042 337.417 206.802 335.365C212.562 333.313 213.635 330.573 214.964 324.416C216.293 318.26 216.375 304.629 212.958 298.823Z" fill="white" stroke="#263238" stroke-linecap="round" stroke-linejoin="round"/>
<path d="M215.01 324.451C216.375 318.306 216.375 304.629 212.958 298.799C212.585 298.158 212.13 297.33 211.617 296.351C203.887 294.1 196.541 297.773 196.541 297.773L194.675 298.589C194.92 301.446 195.107 303.836 195.177 305.294C195.527 312.127 196.541 330.246 198.593 332.975C200.645 335.703 200.995 337.429 206.755 335.377C212.515 333.324 213.635 330.608 215.01 324.451Z" fill="#2D446E" stroke="#263238" stroke-linecap="round" stroke-linejoin="round"/>
<path d="M188.029 206.382C188.871 209.475 189.341 212.657 189.428 215.862C189.428 220.421 188.029 223.231 190.14 224.63C192.25 226.029 193.999 226.041 193.638 228.851C193.499 230.402 192.884 231.872 191.877 233.06C191.877 233.06 191.177 247.449 190.478 248.859C189.778 250.27 180.648 248.51 178.538 248.148C176.428 247.787 170.469 250.608 166.598 242.89C162.727 235.171 165.899 223.581 172.918 217.611C177.746 213.594 182.791 209.846 188.029 206.382Z" fill="white" stroke="#263238" stroke-linecap="round" stroke-linejoin="round"/>
<path d="M189.428 215.803C189.428 215.803 187.528 214.381 186.525 216.876" stroke="#263238" stroke-linecap="round" stroke-linejoin="round"/>
<path d="M187.726 221.61C187.453 223.024 187.541 224.484 187.983 225.854" stroke="#263238" stroke-linecap="round" stroke-linejoin="round"/>
<path d="M191.224 238.097C190.912 238.197 190.583 238.231 190.258 238.195C189.933 238.16 189.618 238.056 189.336 237.891C189.053 237.726 188.808 237.503 188.617 237.238C188.426 236.972 188.294 236.669 188.227 236.348" stroke="#263238" stroke-linecap="round" stroke-linejoin="round"/>
<path d="M195.2 304.093C195.2 304.093 194.034 309.433 192.996 312.255C191.959 315.077 173.349 320.254 165.246 321.326C159.907 321.993 154.534 322.347 149.155 322.387L149.668 337.149C149.668 337.149 165.362 337.464 166.47 337.149C167.578 336.834 193.999 325.023 193.999 325.023L205.403 323.53C205.403 323.53 210.195 322.364 210.381 318.644C210.568 314.925 206.335 304.349 204.412 302.705C202.488 301.061 198.43 296.7 195.993 299.382C193.556 302.064 195.2 304.093 195.2 304.093Z" fill="white" stroke="#263238" stroke-linecap="round" stroke-linejoin="round"/>
<path d="M160.208 330.596C160.208 324.218 161.841 324.055 163.706 321.525C158.886 322.063 154.04 322.351 149.19 322.387L148.805 335.936C148.805 335.936 157.398 336.729 162.634 337.102C162.202 337.767 160.208 334.7 160.208 330.596Z" fill="#2D446E" stroke="#263238" stroke-linecap="round" stroke-linejoin="round"/>
<path d="M210.883 359.28C204.674 352.303 196.782 347.032 187.959 343.97L167.484 352.703C165.894 348.8 163.784 345.128 161.211 341.79L157.387 337.126L159.847 323.752C159.847 323.752 174.585 313.654 176.486 309.282L176.556 309.142C179.517 313.724 192.367 333.558 194.78 335.482C197.509 337.674 205.694 337.942 209.239 334.665C212.783 331.389 214.427 329.208 213.611 324.3C213.611 324.3 208.154 312.558 205.146 307.369C202.138 302.181 195.596 283.63 192.32 277.893C189.988 273.789 189.02 270.897 187.365 268.961C186.215 266.981 184.859 265.128 183.319 263.434C180.042 259.936 171.029 259.062 169.117 258.246C167.204 257.43 166.936 257.15 156.022 253.885C145.109 250.62 132.819 248.696 124.086 255.517C124.086 255.517 112.356 269.439 107.762 292.363C103.168 315.286 102.841 338.49 102.305 342.582C101.768 346.675 97.1161 366.602 95.7519 378.064C94.3877 389.526 106.351 401.034 113.72 404.602C121.089 408.17 152.746 408.695 171.309 404.602C189.871 400.509 219.348 381.947 219.348 381.947C219.348 381.947 220.432 370.473 210.883 359.28Z" fill="#2D446E" stroke="#263238" stroke-linecap="round" stroke-linejoin="round"/>
<path d="M162.622 308.85L158.879 308.722" stroke="#263238" stroke-linecap="round" stroke-linejoin="round"/>
<path d="M161.211 302.892C166.454 304.658 171.56 306.81 176.486 309.328L166.878 309.002" stroke="#263238" stroke-linecap="round" stroke-linejoin="round"/>
<path d="M211.921 309.783C212.998 311.474 213.661 313.396 213.856 315.391C213.856 317.968 214.287 321.42 213.215 320.347C212.142 319.274 211.699 315.601 211.699 315.601L211.921 309.783Z" fill="white" stroke="#263238" stroke-linecap="round" stroke-linejoin="round"/>
<path d="M205.461 306.775C205.461 306.775 209.495 304.583 211.291 307.218C213.087 309.853 212.609 315.112 211.291 317.712C209.973 320.312 208.469 317.828 208.656 315.52C208.842 313.211 205.461 306.775 205.461 306.775Z" fill="white" stroke="#263238" stroke-linecap="round" stroke-linejoin="round"/>
<path d="M203.945 303.976C203.945 303.976 207.991 301.784 209.775 304.419C211.559 307.054 211.081 312.301 209.775 314.913C208.469 317.525 206.953 315.03 207.14 312.721C207.326 310.413 203.945 303.976 203.945 303.976Z" fill="white" stroke="#263238" stroke-linecap="round" stroke-linejoin="round"/>
<path d="M202.091 300.956C202.091 300.956 206.137 298.764 207.921 301.399C209.705 304.035 209.239 309.293 207.921 311.893C206.604 314.494 205.099 312.01 205.286 309.701C205.473 307.393 202.091 300.956 202.091 300.956Z" fill="white" stroke="#263238" stroke-linecap="round" stroke-linejoin="round"/>
<path d="M191.854 195.433C191.921 199.624 190.84 203.753 188.729 207.373C182.759 216.503 177.15 215.442 174.737 222.823C172.323 230.203 168.72 237.864 172.568 242.132C176.416 246.399 179.564 243.881 179.564 243.881C179.564 243.881 182.024 250.2 175.705 256.52C169.385 262.84 158.506 260.38 155.696 259.33C153.926 258.648 152.271 257.701 150.787 256.52C150.787 256.52 149.027 261.441 140.293 261.441C131.56 261.441 121.637 255.471 121.637 244.58C121.637 233.69 127.595 226.332 129.006 222.111C130.417 217.89 126.546 204.913 132.504 196.844C138.463 188.775 147.662 182.852 154.658 182.852C161.654 182.852 175.308 186.688 175.366 186.712C176.288 187.213 182.188 184.811 183.785 184.916C189.65 185.242 191.784 190.058 191.854 195.433Z" fill="#263238" stroke="#263238" stroke-linecap="round" stroke-linejoin="round"/>
<path d="M169.07 245.373C170.343 245.543 171.633 245.543 172.906 245.373" stroke="#919191" stroke-linecap="round" stroke-linejoin="round"/>
<path d="M186.793 201.555C186.24 204.68 185.088 207.67 183.4 210.358C177.943 218.928 171.74 222.018 164.313 230.18C159.544 235.462 160.442 240.732 164.313 243.496" stroke="#919191" stroke-linecap="round" stroke-linejoin="round"/>
<path d="M186.898 192.448C187.125 193.734 187.239 195.037 187.236 196.343" stroke="#919191" stroke-linecap="round" stroke-linejoin="round"/>
<path d="M179.564 200.622C179.564 200.622 178.398 212.69 173.338 219.698C168.277 226.705 158.18 230.192 158.541 237.607" stroke="#919191" stroke-linecap="round" stroke-linejoin="round"/>
<path d="M226.554 402.632C226.554 402.632 233.83 440.013 240.056 458.18C246.283 476.346 252.509 492.962 254.048 494.524C255.587 496.086 259.762 501.788 259.762 501.788C257.832 503.329 255.475 504.237 253.01 504.388C249.372 504.388 244.708 499.724 240.546 497.112C236.383 494.501 235.882 492.962 227.568 489.848C219.255 486.735 226.017 478.433 228.093 474.271C229.293 472.024 230.001 469.548 230.168 467.006C226.869 455.314 221.019 444.499 213.04 435.338C200.086 420.809 197.485 387.112 197.485 387.112L222.403 377.784L226.554 402.632Z" fill="white" stroke="#263238" stroke-linecap="round" stroke-linejoin="round"/>
<path d="M253.022 492.658L251.518 492.962C251.518 492.962 242.691 481.022 235.952 476.871C233.654 475.285 230.952 474.387 228.163 474.282C226.076 478.433 219.336 486.735 227.638 489.848C235.94 492.962 236.465 494.512 240.616 497.112C244.767 499.713 249.442 504.388 253.08 504.388C255.545 504.237 257.902 503.329 259.831 501.788C259.831 501.788 255.669 496.075 254.118 494.524C253.676 493.95 253.308 493.324 253.022 492.658Z" fill="#2D446E" stroke="#263238" stroke-linecap="round" stroke-linejoin="round"/>
<path d="M248.836 502.907C244.732 500.074 241.024 493.778 234.343 489.848C228.268 486.28 225.143 486.14 223.849 486.409C224.166 487.241 224.676 487.987 225.336 488.585C225.997 489.183 226.79 489.616 227.65 489.848C235.964 492.961 236.477 494.512 240.627 497.112C243.251 498.791 246.143 501.38 248.836 502.907Z" fill="#2D446E" stroke="#263238" stroke-linecap="round" stroke-linejoin="round"/>
<path d="M253.022 504.388C252.756 504.378 252.491 504.351 252.229 504.307C252.491 504.357 252.756 504.384 253.022 504.388Z" fill="#2D446E" stroke="#263238" stroke-linecap="round" stroke-linejoin="round"/>
<path d="M180.287 346.302C180.287 346.302 205.239 337.464 207.571 343.294C209.903 349.124 220.584 370.87 216.689 379.801C212.795 388.733 185.417 354.149 181.523 353.403C177.628 352.657 179.832 348.914 180.287 346.302Z" fill="white" stroke="#263238" stroke-linecap="round" stroke-linejoin="round"/>
<path d="M204.738 357.694C204.738 357.694 233.107 355.362 238.552 360.422C243.997 365.483 225.341 426.103 215.232 445.144C199.386 474.924 204.178 482.724 204.178 482.724C204.178 482.724 205.344 487.388 213.121 494.781C220.899 502.173 223.231 503.327 220.502 504.493C217.774 505.659 206.125 504.493 204.959 503.712C203.793 502.931 195.247 495.947 187.469 493.615C179.692 491.283 180.858 489.72 184.356 482.724C187.854 475.728 187.469 481.558 191.352 469.513C196.007 454.67 199.684 439.538 202.359 424.214C204.423 411.726 207.571 398.014 206.685 385.316L204.738 357.694Z" fill="white" stroke="#263238" stroke-linecap="round" stroke-linejoin="round"/>
<path d="M225.516 376.676C222.545 369.509 217.435 363.434 210.883 359.28C198.477 351.363 187.959 343.97 187.959 343.97L167.484 352.703C167.484 352.703 172.475 361.169 146.823 365.448C127.071 368.736 108.939 363.967 99.1566 358.219C97.7924 364.993 96.3699 372.525 95.6586 378.041C94.2944 389.502 106.304 400.964 113.673 404.52C121.042 408.077 180.415 415.434 196.401 405.162C225.516 386.541 225.516 376.676 225.516 376.676Z" fill="#263238" stroke="#263238" stroke-linecap="round" stroke-linejoin="round"/>
<path d="M165.164 359.128C162.424 361.378 157.084 363.792 146.823 365.459C127.071 368.748 108.939 363.979 99.1567 358.23C98.8069 359.968 98.4571 361.728 98.1073 363.536C104.812 367.57 118.897 374.403 134.778 372.455C153.725 370.135 162.144 364.958 165.164 359.128Z" fill="#2D446E" stroke="#263238" stroke-linecap="round" stroke-linejoin="round"/>
<path d="M150.029 384.104C149.12 385.27 148.175 386.436 147.219 387.602" stroke="white" stroke-linecap="round" stroke-linejoin="round"/>
<path d="M164.313 361.973C160.724 368.571 156.721 374.935 152.326 381.026" stroke="white" stroke-linecap="round" stroke-linejoin="round"/>
<path d="M155.766 369.354C155.766 369.354 148.77 378.682 141.389 384.127" stroke="white" stroke-linecap="round" stroke-linejoin="round"/>
<path d="M213.121 494.757C205.344 487.388 204.178 482.724 204.178 482.724C203.918 482.482 203.711 482.188 203.572 481.861C203.047 482.409 201.461 483.447 197.579 481.954C194.209 480.66 191.014 478.456 187.644 476.976C186.84 478.41 186.059 479.308 184.356 482.724C180.858 489.72 179.692 491.282 187.469 493.614C195.247 495.946 203.793 502.942 204.959 503.712C206.125 504.482 217.785 505.659 220.502 504.493C223.219 503.327 220.899 502.138 213.121 494.757Z" fill="#2D446E" stroke="#263238" stroke-linecap="round" stroke-linejoin="round"/>
<path d="M220.281 380.629L233.503 372.467" stroke="#263238" stroke-linecap="round" stroke-linejoin="round"/>
<path d="M62.3228 306.728C62.3228 306.728 104.439 301.458 131.35 309.06L135.443 411.446H72.2921C72.2921 411.446 76.3614 356.446 62.3228 306.728Z" fill="#919191" stroke="#263238" stroke-linecap="round" stroke-linejoin="round"/>
<path d="M131.35 309.06C104.439 301.458 62.3228 306.728 62.3228 306.728C66.8297 323.299 69.8231 340.244 71.266 357.356C94.7828 369.098 116.322 384.441 135.104 402.83L131.35 309.06Z" fill="#757575" stroke="#263238" stroke-linecap="round" stroke-linejoin="round"/>
<path d="M210.766 507.21C210.29 507.212 209.824 507.067 209.432 506.796C209.04 506.525 208.741 506.141 208.574 505.694C199.246 480.555 196.914 415.294 196.774 412.531C196.753 411.912 196.978 411.311 197.4 410.858C197.822 410.405 198.406 410.139 199.025 410.117C199.643 410.096 200.245 410.321 200.698 410.743C201.15 411.165 201.417 411.749 201.438 412.368C201.438 413.044 203.864 479.634 212.947 504.062C213.162 504.642 213.137 505.283 212.879 505.845C212.621 506.407 212.151 506.843 211.571 507.058C211.315 507.16 211.042 507.212 210.766 507.21Z" fill="white" stroke="#263238" stroke-linecap="round" stroke-linejoin="round"/>
<path d="M159.987 507.21C159.512 507.209 159.05 507.064 158.66 506.793C158.27 506.522 157.973 506.139 157.807 505.694C148.479 480.555 146.147 415.294 145.995 412.531C145.973 411.912 146.198 411.311 146.62 410.858C147.042 410.405 147.627 410.139 148.245 410.117C148.864 410.096 149.466 410.321 149.918 410.743C150.371 411.165 150.637 411.749 150.659 412.368C150.659 413.044 153.084 479.634 162.179 504.062C162.394 504.642 162.37 505.283 162.112 505.845C161.854 506.407 161.383 506.843 160.803 507.058C160.543 507.16 160.266 507.212 159.987 507.21Z" fill="white" stroke="#263238" stroke-linecap="round" stroke-linejoin="round"/>
<path d="M210.137 411.4H71.1843V406.736H205.496C206.733 406.736 207.919 407.227 208.794 408.102C209.668 408.977 210.16 410.163 210.16 411.4H210.137Z" fill="#919191" stroke="#263238" stroke-linecap="round" stroke-linejoin="round"/>
<path d="M210.125 410.269H71.1843V414.898H210.125V410.269Z" fill="white" stroke="#263238" stroke-linecap="round" stroke-linejoin="round"/>
<path d="M130.312 507.21C129.961 507.218 129.613 507.146 129.294 507C128.974 506.854 128.692 506.638 128.468 506.368C128.244 506.098 128.084 505.78 127.999 505.44C127.915 505.099 127.908 504.744 127.98 504.4C141.168 441.926 129.146 310.552 128.983 309.235C128.955 308.929 128.987 308.62 129.078 308.326C129.169 308.032 129.317 307.759 129.513 307.523C129.71 307.286 129.951 307.091 130.223 306.947C130.495 306.804 130.793 306.716 131.099 306.687C131.718 306.63 132.334 306.821 132.811 307.218C133.289 307.615 133.59 308.185 133.647 308.804C133.775 310.133 145.89 442.194 132.563 505.356C132.454 505.875 132.172 506.341 131.763 506.678C131.354 507.015 130.842 507.203 130.312 507.21Z" fill="white" stroke="#263238" stroke-linecap="round" stroke-linejoin="round"/>
<path d="M58.0202 505.508C57.8029 505.51 57.5865 505.479 57.3789 505.414C56.7861 505.246 56.2841 504.85 55.9826 504.312C55.6811 503.775 55.6046 503.14 55.7698 502.546C86.0858 394.924 60.3522 308.267 60.0957 307.404C59.9487 306.824 60.0306 306.209 60.3243 305.688C60.618 305.166 61.101 304.777 61.6734 304.602C62.2458 304.427 62.8637 304.478 63.3991 304.746C63.9346 305.014 64.3466 305.477 64.5498 306.04C64.818 306.915 90.9947 394.808 60.2589 503.805C60.1219 504.294 59.8291 504.725 59.4251 505.032C59.021 505.339 58.5278 505.506 58.0202 505.508Z" fill="white" stroke="#263238" stroke-linecap="round" stroke-linejoin="round"/>
<path d="M484.333 313.246C484.333 313.246 470.003 305.282 468.942 323.332C467.881 341.381 465.234 458.693 465.234 458.693" stroke="#263238" stroke-width="2" stroke-linecap="round" stroke-linejoin="round"/>
<path d="M461.503 324.917C461.503 324.917 473.163 350.931 467.881 457.107" stroke="#263238" stroke-width="2" stroke-linecap="round" stroke-linejoin="round"/>
<path d="M472.988 316.884C472.988 316.884 467.496 320.382 464.383 316.371C461.27 312.36 466.493 304.991 461.888 301.842C457.282 298.694 449.318 303.498 449.318 303.498C449.318 303.498 455.44 305.294 455.241 308.64C455.043 311.987 452.093 313.246 451.743 311.788C451.394 310.331 448.42 302.962 443.453 306.028C442.018 306.874 440.769 308.003 439.783 309.346C438.797 310.689 438.094 312.218 437.716 313.841C437.716 313.841 449.295 312.605 449.994 316.954C450.694 321.303 445.249 316.196 440.468 315.916C435.688 315.636 431.327 316.336 431.642 319.227C431.748 321.786 431.595 324.349 431.187 326.876C433.804 324.703 437.113 323.536 440.515 323.588C445.773 323.903 445.575 327.25 440.795 326.97C436.014 326.69 431.91 331.237 431.91 331.237C431.91 331.237 436.271 338.688 441.809 342.373C447.348 346.057 449.341 344.705 449.971 341.895C450.601 339.084 449.132 331.774 452.478 331.972C455.824 332.17 446.939 344.588 451.207 345.323C455.475 346.057 458.914 344.821 460.034 342.011L461.2 339.201C461.2 339.201 459.707 331.914 460.36 329.08C461.013 326.247 461.794 329.162 462.552 332.578C463.31 335.995 463.788 344.157 465.246 343.76C466.703 343.364 471.379 337.417 472.475 335.073C473.571 332.73 466.318 325.605 466.4 324.171C466.482 322.737 472.078 325.466 472.953 326.958C473.588 328.092 474.16 329.259 474.667 330.456C474.667 330.456 478.165 328.264 478.072 321.548C477.978 314.832 472.988 316.884 472.988 316.884Z" fill="#2D446E"/>
<path opacity="0.3" d="M472.988 316.884C472.988 316.884 467.496 320.382 464.383 316.371C461.27 312.36 466.493 304.991 461.888 301.842C457.282 298.694 449.318 303.498 449.318 303.498C449.318 303.498 455.44 305.294 455.241 308.64C455.043 311.987 452.093 313.246 451.743 311.788C451.394 310.331 448.42 302.962 443.453 306.028C442.018 306.874 440.769 308.003 439.783 309.346C438.797 310.689 438.094 312.218 437.716 313.841C437.716 313.841 449.295 312.605 449.994 316.954C450.694 321.303 445.249 316.196 440.468 315.916C435.688 315.636 431.327 316.336 431.642 319.227C431.748 321.786 431.595 324.349 431.187 326.876C433.804 324.703 437.113 323.536 440.515 323.588C445.773 323.903 445.575 327.25 440.795 326.97C436.014 326.69 431.91 331.237 431.91 331.237C431.91 331.237 436.271 338.688 441.809 342.373C447.348 346.057 449.341 344.705 449.971 341.895C450.601 339.084 449.132 331.774 452.478 331.972C455.824 332.17 446.939 344.588 451.207 345.323C455.475 346.057 458.914 344.821 460.034 342.011L461.2 339.201C461.2 339.201 459.707 331.914 460.36 329.08C461.013 326.247 461.794 329.162 462.552 332.578C463.31 335.995 463.788 344.157 465.246 343.76C466.703 343.364 471.379 337.417 472.475 335.073C473.571 332.73 466.318 325.605 466.4 324.171C466.482 322.737 472.078 325.466 472.953 326.958C473.588 328.092 474.16 329.259 474.667 330.456C474.667 330.456 478.165 328.264 478.072 321.548C477.978 314.832 472.988 316.884 472.988 316.884Z" fill="#263238"/>
<path d="M445.19 332.636C448.77 328.217 454.029 322.236 458.448 319.379" stroke="#263238" stroke-linecap="round" stroke-linejoin="round"/>
<path d="M441.051 338.012C441.051 338.012 441.961 336.741 443.453 334.828" stroke="#263238" stroke-linecap="round" stroke-linejoin="round"/>
<path d="M460.78 320.475C460.78 320.475 466.097 327.984 467.076 335.715" stroke="#263238" stroke-linecap="round" stroke-linejoin="round"/>
<path d="M454.74 324.918C454.74 324.918 456.232 324.043 455.673 333.604" stroke="#263238" stroke-linecap="round" stroke-linejoin="round"/>
<path d="M458.646 315.986C458.646 315.986 461.689 313.292 460.08 307.917" stroke="#263238" stroke-linecap="round" stroke-linejoin="round"/>
<path d="M454.542 320.592L452.373 316.627" stroke="#263238" stroke-linecap="round" stroke-linejoin="round"/>
<path d="M449.983 324.638C449.983 324.638 443.103 319.437 438.801 319.181" stroke="#263238" stroke-linecap="round" stroke-linejoin="round"/>
<path d="M492.53 302.717C492.53 302.717 492.308 310.599 486.152 310.984C479.996 311.369 476.194 301.108 469.898 303.58C463.602 306.052 462.995 317.292 462.995 317.292C462.995 317.292 468.965 312.383 472.183 314.855C475.401 317.327 474.655 321.151 472.918 320.545C471.181 319.939 461.829 317.852 461.503 324.918C461.372 326.932 461.651 328.952 462.322 330.856C462.994 332.759 464.044 334.508 465.409 335.995C465.409 335.995 472.067 323.553 476.917 325.815C481.768 328.077 472.918 330.06 469.373 334.654C465.829 339.248 463.543 344.087 466.68 345.754C469.314 347.385 471.775 349.279 474.026 351.409C474.026 351.409 473.186 344.903 477.081 339.854C480.975 334.805 484.181 337.277 480.648 341.871C477.116 346.465 478.865 353.683 478.865 353.683C478.865 353.683 489.289 354.394 496.751 351.351C504.213 348.307 504.26 345.416 501.858 342.839C499.456 340.262 491.154 336.787 493.626 333.511C496.098 330.234 502.488 347.655 506.137 343.877C509.787 340.099 510.883 335.82 508.831 332.776L506.779 329.745C506.779 329.745 498.477 326.247 496.075 323.682C493.673 321.116 497.136 322.306 501.065 323.868C504.995 325.431 513.495 330.526 514.101 328.789C514.707 327.051 511.921 318.295 510.335 315.636C508.749 312.978 496.646 315.345 495.27 314.284C493.894 313.223 500.436 309.48 502.523 309.62C504.088 309.75 505.645 309.964 507.187 310.261C507.187 310.261 507.373 305.27 500.587 300.781C493.801 296.292 492.53 302.717 492.53 302.717Z" fill="#2D446E"/>
<path opacity="0.2" d="M492.53 302.717C492.53 302.717 492.308 310.599 486.152 310.984C479.996 311.369 476.194 301.108 469.898 303.58C463.602 306.052 462.995 317.292 462.995 317.292C462.995 317.292 468.965 312.383 472.183 314.855C475.401 317.327 474.655 321.151 472.918 320.545C471.181 319.939 461.829 317.852 461.503 324.918C461.372 326.932 461.651 328.952 462.322 330.856C462.994 332.759 464.044 334.508 465.409 335.995C465.409 335.995 472.067 323.553 476.917 325.815C481.768 328.077 472.918 330.06 469.373 334.654C465.829 339.248 463.543 344.087 466.68 345.754C469.314 347.385 471.775 349.279 474.026 351.409C474.026 351.409 473.186 344.903 477.081 339.854C480.975 334.805 484.181 337.277 480.648 341.871C477.116 346.465 478.865 353.683 478.865 353.683C478.865 353.683 489.289 354.394 496.751 351.351C504.213 348.307 504.26 345.416 501.858 342.839C499.456 340.262 491.154 336.787 493.626 333.511C496.098 330.234 502.488 347.655 506.137 343.877C509.787 340.099 510.883 335.82 508.831 332.776L506.779 329.745C506.779 329.745 498.477 326.247 496.075 323.682C493.673 321.116 497.136 322.306 501.065 323.868C504.995 325.431 513.495 330.526 514.101 328.789C514.707 327.051 511.921 318.295 510.335 315.636C508.749 312.978 496.646 315.345 495.27 314.284C493.894 313.223 500.436 309.48 502.523 309.62C504.088 309.75 505.645 309.964 507.187 310.261C507.187 310.261 507.373 305.27 500.587 300.781C493.801 296.292 492.53 302.717 492.53 302.717Z" fill="#263238"/>
<path d="M489.359 341.277C487.388 334.642 484.963 325.314 485.126 318.971" stroke="#263238" stroke-linecap="round" stroke-linejoin="round"/>
<path d="M491.912 349.1C491.912 349.1 491.259 347.305 490.361 344.518" stroke="#263238" stroke-linecap="round" stroke-linejoin="round"/>
<path d="M487.808 317.385C487.808 317.385 498.943 317.175 507.35 321.466" stroke="#263238" stroke-linecap="round" stroke-linejoin="round"/>
<path d="M488.157 326.48C488.157 326.48 488.297 324.393 497.485 331.47" stroke="#263238" stroke-linecap="round" stroke-linejoin="round"/>
<path d="M481.908 316.487C481.908 316.487 481.278 311.613 474.807 309.561" stroke="#263238" stroke-linecap="round" stroke-linejoin="round"/>
<path d="M483.668 323.705L478.223 323.169" stroke="#263238" stroke-linecap="round" stroke-linejoin="round"/>
<path d="M484.613 331.027C484.613 331.027 474.714 334.374 471.53 338.513" stroke="#263238" stroke-linecap="round" stroke-linejoin="round"/>
<path d="M426.476 355.187C426.476 355.187 457.795 375.883 457.27 456.046" stroke="#263238" stroke-width="2" stroke-linecap="round" stroke-linejoin="round"/>
<path d="M465.094 349.718C465.094 349.718 464.091 358.79 456.932 358.65C449.773 358.51 446.438 346.314 438.882 348.576C431.327 350.838 429.613 363.734 429.613 363.734C429.613 363.734 436.982 358.627 440.457 361.798C443.931 364.97 442.707 369.296 440.76 368.433C438.812 367.57 428.214 364.27 427.176 372.397C426.838 374.71 426.975 377.068 427.576 379.327C428.177 381.585 429.231 383.699 430.674 385.538C430.674 385.538 439.535 371.814 444.911 374.892C450.286 377.971 439.897 379.405 435.373 384.372C430.849 389.339 427.782 394.703 431.21 396.918C434.1 399.05 436.765 401.473 439.162 404.147C439.162 404.147 438.801 396.568 443.768 391.1C448.735 385.631 452.221 388.768 447.697 393.77C443.173 398.772 444.526 407.226 444.526 407.226C444.526 407.226 456.501 409.033 465.397 406.234C474.294 403.436 474.609 400.101 472.078 396.906C469.548 393.712 460.302 388.908 463.462 385.433C466.622 381.958 472.347 402.596 476.917 398.574C481.488 394.551 483.144 389.736 481.068 386.028L478.993 382.32C478.993 382.32 469.746 377.527 467.216 374.321C464.686 371.114 468.569 372.84 472.953 375.009C477.337 377.178 486.677 383.859 487.528 381.923C488.379 379.988 486 369.634 484.426 366.381C482.852 363.127 468.662 364.748 467.17 363.396C465.677 362.043 473.594 358.347 475.985 358.732C477.764 359.028 479.527 359.417 481.267 359.898C481.267 359.898 481.943 354.161 474.539 348.331C467.135 342.501 465.094 349.718 465.094 349.718Z" fill="#2D446E"/>
<path opacity="0.3" d="M465.094 349.718C465.094 349.718 464.091 358.79 456.932 358.65C449.773 358.51 446.438 346.314 438.882 348.576C431.327 350.838 429.613 363.734 429.613 363.734C429.613 363.734 436.982 358.627 440.457 361.798C443.931 364.97 442.707 369.296 440.76 368.433C438.812 367.57 428.214 364.27 427.176 372.397C426.838 374.71 426.975 377.068 427.576 379.327C428.177 381.585 429.231 383.699 430.674 385.538C430.674 385.538 439.535 371.814 444.911 374.892C450.286 377.971 439.897 379.405 435.373 384.372C430.849 389.339 427.782 394.703 431.21 396.918C434.1 399.05 436.765 401.473 439.162 404.147C439.162 404.147 438.801 396.568 443.768 391.1C448.735 385.631 452.221 388.768 447.697 393.77C443.173 398.772 444.526 407.226 444.526 407.226C444.526 407.226 456.501 409.033 465.397 406.234C474.294 403.436 474.609 400.101 472.078 396.906C469.548 393.712 460.302 388.908 463.462 385.433C466.622 381.958 472.347 402.596 476.917 398.574C481.488 394.551 483.144 389.736 481.068 386.028L478.993 382.32C478.993 382.32 469.746 377.527 467.216 374.321C464.686 371.114 468.569 372.84 472.953 375.009C477.337 377.178 486.677 383.859 487.528 381.923C488.379 379.988 486 369.634 484.426 366.381C482.852 363.127 468.662 364.748 467.17 363.396C465.677 362.043 473.594 358.347 475.985 358.732C477.764 359.028 479.527 359.417 481.267 359.898C481.267 359.898 481.943 354.161 474.539 348.331C467.135 342.501 465.094 349.718 465.094 349.718Z" fill="#263238"/>
<path d="M457.795 393.91C456.116 386.121 454.239 375.102 455.008 367.768" stroke="#263238" stroke-linecap="round" stroke-linejoin="round"/>
<path d="M460.01 403.179C460.01 403.179 459.427 401.046 458.646 397.746" stroke="#263238" stroke-linecap="round" stroke-linejoin="round"/>
<path d="M458.238 366.194C458.238 366.194 471.064 367.01 480.392 372.747" stroke="#263238" stroke-linecap="round" stroke-linejoin="round"/>
<path d="M457.807 376.618C457.807 376.618 458.168 374.228 468.102 383.264" stroke="#263238" stroke-linecap="round" stroke-linejoin="round"/>
<path d="M451.533 364.608C451.533 364.608 451.265 358.918 444.001 355.933" stroke="#263238" stroke-linecap="round" stroke-linejoin="round"/>
<path d="M452.886 373.097L446.66 371.966" stroke="#263238" stroke-linecap="round" stroke-linejoin="round"/>
<path d="M453.294 381.632C453.294 381.632 441.552 384.57 437.483 389.036" stroke="#263238" stroke-linecap="round" stroke-linejoin="round"/>
<path d="M438.684 418.349C438.684 418.349 458.856 433.74 460.978 456.571L456.734 380.116" stroke="#263238" stroke-width="2" stroke-linecap="round" stroke-linejoin="round"/>
<path d="M487.516 407.202C460.978 402.422 460.978 456.571 460.978 456.571" stroke="#263238" stroke-width="2" stroke-linecap="round" stroke-linejoin="round"/>
<path d="M464.161 456.046C464.161 456.046 448.77 344.04 493.311 344.04" stroke="#263238" stroke-width="2" stroke-linecap="round" stroke-linejoin="round"/>
<path d="M477.407 403.984C473.781 399.903 466.074 399.903 461.549 410.327C457.025 420.751 461.095 418.944 461.095 418.944C461.095 418.944 469.7 416.215 475.145 414.408C480.59 412.601 487.831 408.065 488.286 410.782C488.741 413.498 484.66 416.215 479.669 417.125C474.679 418.034 461.549 421.66 462.902 424.424C464.255 427.187 467.438 435.303 467.438 435.303C471.309 432.014 475.395 428.987 479.669 426.243C485.569 422.617 489.195 423.969 486.024 428.05C482.852 432.131 473.781 436.655 475.6 442.1C477.419 447.546 488.286 454.332 488.286 454.332C488.286 454.332 489.65 443.01 492.822 439.384C495.993 435.757 495.993 439.838 495.084 446.181C494.629 448.883 494.325 451.608 494.174 454.343L506.86 458.879C508.935 455.72 511.205 452.695 513.658 449.819L515.99 447.487C515.99 447.487 506.021 438.882 505.566 433.495C505.111 428.108 512.364 433.495 514.626 434.405C516.888 435.314 520.514 441.657 520.514 441.657C520.514 441.657 522.788 431.233 523.243 427.607L523.697 423.981C523.697 423.981 514.171 420.355 510.545 420.355C506.918 420.355 505.111 423.071 505.111 419.457C505.111 415.842 508.737 413.557 512.818 414.012C516.511 414.629 520.148 415.537 523.697 416.728C523.697 416.728 526.414 414.466 525.505 407.668C524.595 400.871 522.333 400.871 516.899 402.678C511.466 404.485 507.828 408.578 503.747 408.578C499.666 408.578 501.94 403.587 504.656 402.235C507.373 400.882 514.171 398.154 515.535 397.699C516.899 397.244 508.283 390.901 503.747 389.992C499.211 389.082 493.346 392.324 493.778 396.79C494.629 406.246 481.033 408.1 477.407 403.984Z" fill="#2D446E"/>
<path d="M506.58 450.647C506.72 452.008 506.814 453.372 506.86 454.74" stroke="#263238" stroke-linecap="round" stroke-linejoin="round"/>
<path d="M497.474 418.116C501.469 427.089 504.347 436.519 506.044 446.193" stroke="#263238" stroke-linecap="round" stroke-linejoin="round"/>
<path d="M495.842 414.478C493.603 409.651 491.912 406.701 491.912 406.701C494.385 405.536 496.441 403.639 497.8 401.267C498.861 399.119 500.415 397.253 502.336 395.822" stroke="#263238" stroke-linecap="round" stroke-linejoin="round"/>
<path d="M476.054 422.092C476.054 422.092 492.378 415.294 492.378 416.647" stroke="#263238" stroke-linecap="round" stroke-linejoin="round"/>
<path d="M501.38 413.499C501.38 413.499 508.633 409.872 514.976 409.872" stroke="#263238" stroke-linecap="round" stroke-linejoin="round"/>
<path d="M498.71 424.424C495.564 427.009 492.678 429.895 490.093 433.041C487.449 436.16 485.309 439.673 483.75 443.453" stroke="#263238" stroke-linecap="round" stroke-linejoin="round"/>
<path d="M503.712 426.196C503.712 426.196 513.238 423.468 518.217 428.004" stroke="#263238" stroke-linecap="round" stroke-linejoin="round"/>
<path d="M520.934 364.958C516.002 362.043 510.545 361.973 507.863 358.895C505.181 355.817 510.44 354.231 513.25 355.397C516.06 356.563 522.578 359.909 523.802 360.632C525.026 361.355 524.187 350.71 521.902 346.64C519.616 342.571 513.355 340.285 510.242 343.574C503.654 350.488 493.37 341.416 494.069 336.006C494.769 330.596 489.72 324.778 478.911 328.182C468.102 331.587 472.113 333.488 472.113 333.488C472.113 333.488 479.809 338.21 484.753 341.125C489.697 344.04 497.859 346.547 496.098 348.669C494.337 350.791 489.615 349.497 485.662 346.337C481.709 343.177 470.364 335.621 469.198 338.432C468.032 341.242 463.951 348.984 463.951 348.984C468.974 349.754 473.941 350.856 478.818 352.284C485.417 354.359 486.77 357.985 481.616 358.265C476.462 358.545 467.088 354.674 464.126 359.606C461.165 364.538 463.205 377.201 463.205 377.201C463.205 377.201 472.65 370.811 477.465 370.823C482.281 370.835 479.203 373.516 473.816 376.991C471.479 378.417 469.225 379.975 467.065 381.655L471.962 394.213C475.707 393.706 479.481 393.433 483.26 393.397L486.455 393.63C486.455 393.63 486.455 380.454 490.233 376.548C494.011 372.642 494.687 381.678 495.492 383.987C496.296 386.296 493.883 393.187 493.883 393.187C493.883 393.187 503.211 388.068 506.265 386.028L509.309 383.999C509.309 383.999 505.811 374.426 503.42 371.698C501.03 368.969 497.812 369.366 500.54 367.034C503.269 364.702 507.373 365.868 509.705 369.296C511.66 372.486 513.356 375.827 514.777 379.288C514.777 379.288 518.275 379.86 522.811 374.717C527.347 369.575 525.866 367.873 520.934 364.958ZM478.06 379.463C474.434 377.644 483.039 374.018 483.039 374.018C486.222 373.575 481.675 381.282 478.06 379.463ZM484.158 362.544C482.619 361.775 487.248 360.212 487.248 360.212C493.941 361.46 485.697 363.314 484.146 362.544H484.158Z" fill="#2D446E"/>
<path d="M477.943 388.698C477.011 389.689 476.031 390.657 475.04 391.589" stroke="#263238" stroke-linecap="round" stroke-linejoin="round"/>
<path d="M496.541 360.492C492.376 369.384 487.133 377.729 480.928 385.34" stroke="#263238" stroke-linecap="round" stroke-linejoin="round"/>
<path d="M498.22 356.878C500.401 352.015 501.508 348.809 501.508 348.809C504.015 349.909 506.797 350.218 509.484 349.695C511.797 349.083 514.223 349.031 516.561 349.543" stroke="#263238" stroke-linecap="round" stroke-linejoin="round"/>
<path d="M494.279 355.688C495.305 354.79 479.483 346.932 479.483 346.932" stroke="#263238" stroke-linecap="round" stroke-linejoin="round"/>
<path d="M502.616 360.446C502.616 360.446 510.113 363.547 514.276 368.339" stroke="#263238" stroke-linecap="round" stroke-linejoin="round"/>
<path d="M492.623 365.529C488.611 364.849 484.542 364.56 480.474 364.666C476.381 364.718 472.321 365.406 468.44 366.707" stroke="#263238" stroke-linecap="round" stroke-linejoin="round"/>
<path d="M494.524 370.485C494.524 370.485 502.814 375.883 502.686 382.623" stroke="#263238" stroke-linecap="round" stroke-linejoin="round"/>
<path d="M450.507 427.747C446.543 425.415 442.147 425.357 440.013 422.873C437.88 420.39 442.077 419.142 444.339 420.075C446.601 421.008 451.848 423.713 452.839 424.296C453.83 424.879 453.143 416.297 451.3 413.067C449.458 409.837 444.421 407.96 441.914 410.595C436.609 416.169 428.33 408.858 428.901 404.509C429.473 400.16 425.403 395.472 416.67 398.212C407.937 400.952 411.202 402.48 411.202 402.48C411.202 402.48 417.393 406.281 421.369 408.625C425.345 410.968 431.921 412.997 430.499 414.7C429.076 416.402 425.287 415.376 422.104 412.822C418.92 410.269 409.791 404.194 408.858 406.456C407.925 408.718 404.637 414.944 404.637 414.944C408.679 415.568 412.675 416.456 416.6 417.603C421.905 419.27 422.99 422.185 418.839 422.407C414.688 422.628 407.179 419.515 404.847 423.491C402.515 427.467 404.101 437.658 404.101 437.658C404.101 437.658 411.703 432.504 415.574 432.516C419.445 432.528 416.973 434.685 412.647 437.483C410.767 438.631 408.953 439.885 407.214 441.238L411.143 451.335C414.158 450.931 417.196 450.716 420.238 450.694L422.815 450.869C422.815 450.869 422.815 440.27 425.858 437.122C428.901 433.974 429.438 441.249 430.079 443.115C430.72 444.981 428.785 450.519 428.785 450.519C428.785 450.519 436.317 446.391 438.754 444.759L441.203 443.115C441.203 443.115 438.381 435.419 436.469 433.216C434.556 431.012 431.945 431.35 434.137 429.438C436.329 427.526 439.629 428.528 441.506 431.245C443.08 433.815 444.449 436.505 445.599 439.291C445.599 439.291 448.409 439.745 452.058 435.618C455.708 431.49 454.483 430.102 450.507 427.747ZM415.994 439.407C413.079 437.95 420.005 435.035 420.005 435.035C422.558 434.685 418.909 440.888 415.994 439.419V439.407ZM420.926 425.812C419.678 425.182 423.41 423.946 423.41 423.946C428.785 424.984 422.15 426.43 420.926 425.812Z" fill="#2D446E"/>
<path d="M415.924 446.858C415.166 447.651 414.385 448.432 413.592 449.19" stroke="#263238" stroke-linecap="round" stroke-linejoin="round"/>
<path d="M430.884 424.156C427.535 431.312 423.317 438.028 418.326 444.153" stroke="#263238" stroke-linecap="round" stroke-linejoin="round"/>
<path d="M432.236 421.241C433.985 417.335 434.883 414.758 434.883 414.758C436.899 415.64 439.136 415.888 441.296 415.469C443.156 414.977 445.107 414.937 446.986 415.352" stroke="#263238" stroke-linecap="round" stroke-linejoin="round"/>
<path d="M417.148 413.242C417.148 413.242 429.893 419.573 429.065 420.238" stroke="#263238" stroke-linecap="round" stroke-linejoin="round"/>
<path d="M435.769 424.121C435.769 424.121 441.797 426.616 445.097 430.476" stroke="#263238" stroke-linecap="round" stroke-linejoin="round"/>
<path d="M427.724 428.213C424.497 427.667 421.224 427.437 417.953 427.526C414.66 427.557 411.393 428.112 408.275 429.17" stroke="#263238" stroke-linecap="round" stroke-linejoin="round"/>
<path d="M429.263 432.201C429.263 432.201 435.932 436.55 435.804 441.961" stroke="#263238" stroke-linecap="round" stroke-linejoin="round"/>
<path d="M434.323 352.913C434.323 352.913 429.333 356.54 426.161 352.913C422.99 349.287 427.526 342.034 422.99 339.318C418.454 336.601 411.213 341.58 411.213 341.58C411.213 341.58 417.101 342.944 417.101 346.115C417.101 349.287 414.385 350.651 413.93 349.287C413.475 347.923 410.304 341.125 405.768 344.308C404.461 345.188 403.346 346.324 402.491 347.646C401.635 348.969 401.056 350.451 400.789 352.004C400.789 352.004 411.656 350.196 412.566 354.277C413.475 358.358 408.042 353.823 403.506 353.823C398.97 353.823 394.889 354.732 395.344 357.449C395.591 359.86 395.591 362.29 395.344 364.702C397.692 362.504 400.748 361.217 403.961 361.075C408.94 361.075 408.939 364.247 404.415 364.247C399.891 364.247 396.253 368.783 396.253 368.783C396.253 368.783 400.789 375.58 406.223 378.752C411.656 381.923 413.475 380.559 413.93 377.842C414.385 375.126 412.566 368.328 415.737 368.328C418.909 368.328 411.213 380.559 415.283 381.014C419.352 381.469 422.535 380.104 423.445 377.388L424.354 374.671C424.354 374.671 422.535 367.873 422.99 365.156C423.445 362.439 424.354 365.156 425.252 368.328C426.15 371.499 427.071 379.195 428.435 378.752C429.799 378.309 433.869 372.397 434.778 370.135C435.688 367.873 428.435 361.53 428.435 360.166C428.435 358.802 433.869 361.075 434.778 362.428C435.688 363.78 436.585 365.599 436.585 365.599C436.585 365.599 439.757 363.337 439.302 356.994C438.847 350.651 434.323 352.913 434.323 352.913Z" fill="#2D446E"/>
<path d="M408.928 369.354C412.064 364.981 416.717 359.035 420.728 356.085" stroke="#263238" stroke-linecap="round" stroke-linejoin="round"/>
<path d="M405.313 374.671C405.313 374.671 406.118 373.412 407.412 371.523" stroke="#263238" stroke-linecap="round" stroke-linejoin="round"/>
<path d="M422.99 356.994C422.99 356.994 428.435 363.792 429.788 371.045" stroke="#263238" stroke-linecap="round" stroke-linejoin="round"/>
<path d="M417.556 361.53C417.556 361.53 418.909 360.62 418.909 369.692" stroke="#263238" stroke-linecap="round" stroke-linejoin="round"/>
<path d="M420.728 352.913C420.728 352.913 423.445 350.196 421.637 345.206" stroke="#263238" stroke-linecap="round" stroke-linejoin="round"/>
<path d="M417.102 357.449L414.839 353.823" stroke="#263238" stroke-linecap="round" stroke-linejoin="round"/>
<path d="M413.02 361.53C413.02 361.53 406.223 356.994 402.142 356.994" stroke="#263238" stroke-linecap="round" stroke-linejoin="round"/>
<path d="M480.089 454.448H445.051V504.878H480.089V454.448Z" fill="#263238" stroke="#263238" stroke-width="2" stroke-linecap="round" stroke-linejoin="round"/>
</svg>
