<svg width="70" height="70" viewBox="0 0 70 70" fill="none" xmlns="http://www.w3.org/2000/svg">
<path d="M14.9034 5.26312L11.8234 8.33875L16.4062 12.9194L19.4819 9.84375L14.9034 5.26312ZM55.0988 5.26312L50.5159 9.84375L53.5938 12.9194L58.1744 8.34094L55.0988 5.26312ZM35 6.62812C34.2781 6.63396 33.549 6.68062 32.8125 6.76812H32.7469C23.8744 7.78531 16.8131 14.9537 15.5859 23.7869C14.6059 30.8962 17.5372 37.3428 22.4219 41.4947C24.4197 43.2002 25.7711 45.5401 26.25 48.1228V61.2478H31.2375C31.9987 62.5537 33.3878 63.4353 35 63.4353C36.6122 63.4353 38.0012 62.5537 38.7625 61.2478H43.75V52.4978H43.9556V49.8991C43.9556 46.6922 45.6225 43.4591 48.3306 40.9456C51.9531 37.3187 54.6875 32.1672 54.6875 26.25C54.6875 15.4437 45.7931 6.5275 35 6.62812ZM35 11.0031C43.4547 10.885 50.3125 17.8062 50.3125 26.25C50.3125 30.8306 48.1906 34.8644 45.2528 37.8L45.3228 37.87C42.4045 40.5631 40.5169 44.1897 39.9853 48.125H30.4172C29.9359 44.3756 28.3281 40.7466 25.2897 38.1434C21.4244 34.8622 19.1209 29.9184 19.8909 24.3359C20.8469 17.4453 26.4381 11.9044 33.2894 11.1453C33.8551 11.0669 34.4247 11.0201 34.9956 11.0053L35 11.0031ZM4.375 26.25V30.625H10.9375V26.25H4.375ZM59.0625 26.25V30.625H65.625V26.25H59.0625ZM16.4062 43.9556L11.8256 48.5341L14.9034 51.6119L19.4797 47.0312L16.4062 43.9556ZM53.5938 43.9556L50.5181 47.0312L55.0966 51.6119L58.1744 48.5341L53.5938 43.9556ZM30.625 52.5H39.375V56.875H30.625V52.5Z" fill="#222F49"/>
</svg>
