<svg width="50" height="50" viewBox="0 0 50 50" fill="none" xmlns="http://www.w3.org/2000/svg">
<path d="M11.25 26.1979C12.1528 26.1979 12.9257 25.9986 13.5688 25.6C14.2118 25.2014 14.5327 24.6021 14.5313 23.8021C14.5299 23.0021 14.209 22.3945 13.5688 21.9792C12.9285 21.5639 12.1556 21.3556 11.25 21.3542C10.3445 21.3528 9.57223 21.5611 8.93335 21.9792C8.29446 22.3972 7.97293 23.0049 7.96876 23.8021C7.9646 24.5993 8.28612 25.1986 8.93335 25.6C9.58057 26.0014 10.3528 26.2007 11.25 26.1979ZM5.0521 18.3333C4.7396 18.3333 4.47085 18.2208 4.24585 17.9958C4.02085 17.7708 3.90765 17.5014 3.90626 17.1875C3.90487 16.8736 4.01807 16.6049 4.24585 16.3813C4.47362 16.1576 4.74237 16.0445 5.0521 16.0417H9.84376V14.4792C9.84376 14.0972 9.97432 13.7764 10.2354 13.5167C10.4965 13.257 10.8174 13.1264 11.1979 13.125C11.5785 13.1236 11.9 13.2542 12.1625 13.5167C12.425 13.7792 12.5549 14.1 12.5521 14.4792V16.0417H17.3958C17.7083 16.0417 17.9778 16.1549 18.2042 16.3813C18.4306 16.6076 18.5431 16.8764 18.5417 17.1875C18.5403 17.4986 18.4278 17.7681 18.2042 17.9958C17.9806 18.2236 17.7111 18.3361 17.3958 18.3333H5.0521ZM11.25 28.4896C9.61807 28.4896 8.22015 28.082 7.05626 27.2667C5.89237 26.4514 5.31112 25.2965 5.31251 23.8021C5.31251 22.2743 5.89446 21.1111 7.05835 20.3125C8.22223 19.5139 9.61946 19.1146 11.25 19.1146C12.9167 19.1146 14.332 19.5139 15.4958 20.3125C16.6597 21.1111 17.241 22.2743 17.2396 23.8021C17.2382 25.3299 16.657 26.4931 15.4958 27.2917C14.3347 28.0903 12.9195 28.4896 11.25 28.4896ZM9.53126 36.875C8.94098 36.875 8.44654 36.6757 8.04793 36.2771C7.64932 35.8785 7.44932 35.3833 7.44793 34.7917V30.9375C7.44793 30.5556 7.58682 30.2347 7.8646 29.975C8.14237 29.7153 8.47223 29.5847 8.85418 29.5833C9.23612 29.582 9.55765 29.7125 9.81876 29.975C10.0799 30.2375 10.2097 30.5583 10.2083 30.9375V34.5833H22.8125C23.125 34.5833 23.3945 34.6965 23.6208 34.9229C23.8472 35.1493 23.9597 35.4181 23.9583 35.7292C23.957 36.0403 23.8445 36.3097 23.6208 36.5375C23.3972 36.7653 23.1278 36.8778 22.8125 36.875H9.53126ZM21.5625 31.4063C21.1806 31.4063 20.8597 31.2764 20.6 31.0167C20.3403 30.757 20.2097 30.4354 20.2083 30.0521V14.4271C20.2083 14.0451 20.3389 13.7326 20.6 13.4896C20.8611 13.2465 21.182 13.125 21.5625 13.125C21.9431 13.125 22.2556 13.2465 22.5 13.4896C22.7445 13.7326 22.866 14.0451 22.8646 14.4271V20.9375H25.3125C25.625 20.9375 25.8945 21.0507 26.1208 21.2771C26.3472 21.5035 26.4597 21.7722 26.4583 22.0833C26.457 22.3945 26.3445 22.6639 26.1208 22.8917C25.8972 23.1195 25.6278 23.232 25.3125 23.2292H22.9167V30.0521C22.9167 30.434 22.7868 30.7556 22.5271 31.0167C22.2674 31.2778 21.9458 31.4076 21.5625 31.4063ZM36.5625 32.6042C37.5347 32.6042 38.4813 32.3785 39.4021 31.9271C40.3229 31.4757 41.1646 30.8333 41.9271 30V24.4792C41.1285 24.5833 40.391 24.7049 39.7146 24.8438C39.0382 24.9826 38.4042 25.1389 37.8125 25.3125C36.25 25.7986 35.0785 26.4063 34.2979 27.1354C33.5174 27.8646 33.1264 28.7153 33.125 29.6875C33.125 30.5903 33.4375 31.3021 34.0625 31.8229C34.6875 32.3438 35.5208 32.6042 36.5625 32.6042ZM35.3646 36.1458C33.3854 36.1458 31.8229 35.582 30.6771 34.4542C29.5313 33.3264 28.9583 31.7896 28.9583 29.8438C28.9583 28.0382 29.5313 26.5625 30.6771 25.4167C31.8229 24.2708 33.6632 23.3507 36.1979 22.6563C36.9965 22.4479 37.8736 22.257 38.8292 22.0833C39.7847 21.9097 40.8174 21.7535 41.9271 21.6146C41.8577 19.9826 41.4757 18.7931 40.7813 18.0458C40.0868 17.2986 39.0104 16.9257 37.5521 16.9271C36.8229 16.9271 36.1111 17.0313 35.4167 17.2396C34.7222 17.4479 33.9063 17.7951 32.9688 18.2813C32.5521 18.5243 32.1181 18.5938 31.6667 18.4896C31.2153 18.3854 30.8681 18.125 30.625 17.7083C30.382 17.2917 30.3299 16.8486 30.4688 16.3792C30.6076 15.9097 30.8854 15.5542 31.3021 15.3125C32.3785 14.7222 33.5333 14.2451 34.7667 13.8813C36 13.5174 37.2583 13.3347 38.5417 13.3333C41.007 13.3333 42.882 14.0972 44.1667 15.625C45.4514 17.1528 46.0938 19.375 46.0938 22.2917V33.9583C46.0938 34.4445 45.9285 34.8528 45.5979 35.1833C45.2674 35.5139 44.8597 35.6785 44.375 35.6771H44.1146C43.6632 35.6771 43.2813 35.5292 42.9688 35.2333C42.6563 34.9375 42.4653 34.582 42.3958 34.1667L42.2917 33.3333C41.3195 34.2014 40.2521 34.8875 39.0896 35.3917C37.9271 35.8958 36.6854 36.1472 35.3646 36.1458Z" fill="#222F49"/>
</svg>
