<svg width="223" height="85" viewBox="0 0 223 85" fill="none" xmlns="http://www.w3.org/2000/svg">
<path d="M102.232 74.881H108.039V52.9631H102.232V74.881ZM102.232 49.5451H108.039V44.3326H102.232V49.5451Z" fill="#222F49"/>
<path d="M111.781 82.0588H117.588V72.403H117.674C118.912 74.2828 120.919 75.5218 123.993 75.5218C129.63 75.5218 133.473 71.0358 133.473 63.9434C133.473 57.1072 129.758 52.3649 123.951 52.3649C120.962 52.3649 118.912 53.7748 117.503 55.6973H117.375V52.9631H111.781V82.0588ZM122.755 70.6938C119.296 70.6938 117.46 68.0877 117.46 64.1142C117.46 60.1836 118.912 57.0645 122.541 57.0645C126.128 57.0645 127.58 59.9698 127.58 64.1142C127.58 68.2586 125.701 70.6938 122.755 70.6938Z" fill="#222F49"/>
<path d="M145.058 75.5218C150.523 75.5218 154.281 72.8728 154.281 68.4722C154.281 63.3452 150.224 62.3199 146.552 61.5508C143.435 60.9099 140.531 60.7389 140.531 58.8591C140.531 57.2783 142.026 56.4236 144.289 56.4236C146.765 56.4236 148.26 57.2783 148.516 59.6281H153.769C153.341 55.2275 150.139 52.3649 144.374 52.3649C139.378 52.3649 135.45 54.6293 135.45 59.3716C135.45 64.1569 139.293 65.2252 143.221 65.9942C146.21 66.5922 148.986 66.8059 148.986 68.8995C148.986 70.4376 147.534 71.4202 144.972 71.4202C142.367 71.4202 140.574 70.3094 140.19 67.7885H134.809C135.151 72.4457 138.695 75.5218 145.058 75.5218Z" fill="#222F49"/>
<path d="M176.33 74.881V52.9631H170.522V65.6096C170.522 68.5149 168.857 70.5658 166.124 70.5658C163.648 70.5658 162.495 69.1558 162.495 66.5922V52.9631H156.73V67.5751C156.73 72.3601 159.463 75.4792 164.331 75.4792C167.405 75.4792 169.113 74.3255 170.608 72.3174H170.736V74.881H176.33Z" fill="#222F49"/>
<path d="M180.086 74.8809H185.893V62.1488C185.893 59.2435 187.473 57.3637 189.822 57.3637C191.957 57.3637 193.195 58.6453 193.195 61.1235V74.8809H199.003V62.1488C199.003 59.2435 200.497 57.3637 202.931 57.3637C205.066 57.3637 206.305 58.6453 206.305 61.1235V74.8809H212.112V60.1409C212.112 55.3556 209.507 52.3649 204.895 52.3649C202.12 52.3649 199.814 53.8175 198.319 56.2101H198.234C197.166 53.9029 194.946 52.3649 192.17 52.3649C189.139 52.3649 187.004 53.9029 185.808 55.9111H185.68V52.9631H180.086V74.8809Z" fill="#222F49"/>
<path d="M102.317 37.3406H108.124V6.79224H102.317V37.3406Z" fill="#222F49"/>
<path d="M122.324 37.9814C129.114 37.9814 133.768 32.9399 133.768 26.4029C133.768 19.866 129.114 14.8245 122.324 14.8245C115.535 14.8245 110.88 19.866 110.88 26.4029C110.88 32.9399 115.535 37.9814 122.324 37.9814ZM122.324 33.538C118.737 33.538 116.773 30.6755 116.773 26.4029C116.773 22.1304 118.737 19.2251 122.324 19.2251C125.869 19.2251 127.876 22.1304 127.876 26.4029C127.876 30.6755 125.869 33.538 122.324 33.538Z" fill="#222F49"/>
<path d="M146.118 44.8175C149.363 44.8175 152.182 44.0485 154.018 42.3394C155.64 40.844 156.622 38.7505 156.622 35.6743V15.4226H151.029V17.7298H150.943C149.619 15.8926 147.612 14.8245 144.88 14.8245C139.329 14.8245 135.4 19.0115 135.4 25.5485C135.4 32.1708 140.183 36.016 145.05 36.016C147.826 36.016 149.491 34.9053 150.772 33.4526H150.901V35.8452C150.901 38.8359 149.321 40.4167 146.033 40.4167C143.342 40.4167 142.104 39.3486 141.634 37.9814H135.87C136.468 42.2539 140.14 44.8175 146.118 44.8175ZM146.033 31.3591C143.044 31.3591 141.079 29.1801 141.079 25.463C141.079 21.7887 143.043 19.4815 145.99 19.4815C149.491 19.4815 151.199 22.2158 151.199 25.4203C151.199 28.6673 149.705 31.3591 146.033 31.3591Z" fill="#222F49"/>
<path d="M170.738 37.9814C177.528 37.9814 182.182 32.9399 182.182 26.4029C182.182 19.866 177.528 14.8245 170.738 14.8245C163.949 14.8245 159.294 19.866 159.294 26.4029C159.294 32.9399 163.949 37.9814 170.738 37.9814ZM170.738 33.538C167.151 33.538 165.187 30.6755 165.187 26.4029C165.187 22.1304 167.151 19.2251 170.738 19.2251C174.283 19.2251 176.29 22.1304 176.29 26.4029C176.29 30.6755 174.283 33.538 170.738 33.538Z" fill="#222F49"/>
<path d="M187.273 28.9665H212.381V23.9677H187.273V28.9665Z" fill="#222F49"/>
<path d="M214.222 49.2399C214.222 48.2567 215.019 47.4596 216.002 47.4596H219.559C220.543 47.4596 221.339 48.2567 221.339 49.2399C221.339 50.2229 220.543 51.02 219.559 51.02H216.002C215.019 51.02 214.222 50.2229 214.222 49.2399Z" fill="#222F49"/>
<path fill-rule="evenodd" clip-rule="evenodd" d="M43.5841 0C67.043 0 86.0603 19.0279 86.0603 42.5C86.0603 65.9721 67.043 85 43.5841 85C20.1251 85 1.10791 65.9721 1.10791 42.5C1.10791 19.0279 20.1251 0 43.5841 0ZM42.0488 3.18025C37.2031 3.86259 32.5889 7.75855 29.0071 14.2745C27.9681 16.1645 27.0307 18.2526 26.2137 20.5072C31.084 19.2826 36.4341 18.5606 42.0488 18.449V3.18025ZM22.6238 21.528C23.6396 18.3379 24.8825 15.4029 26.3167 12.7939C28.0922 9.56375 30.1994 6.77439 32.5736 4.63201C19.6632 8.38361 9.48681 18.5657 5.73733 31.4834C7.8785 29.1078 10.6663 26.9994 13.8946 25.2229C16.5021 23.7879 19.4355 22.5443 22.6238 21.528ZM21.6035 25.1198C20.3797 29.9929 19.6582 35.346 19.5466 40.9638H4.28637C4.96835 36.1152 8.86212 31.4985 15.3744 27.9149C17.2634 26.8753 19.3503 25.9373 21.6035 25.1198ZM22.6178 40.9638C22.7446 34.833 23.6266 29.0772 25.0861 23.9917C30.1688 22.5314 35.9216 21.6487 42.0488 21.5218V28.1579C39.7629 34.0132 35.1007 38.6775 29.2486 40.9638H22.6178ZM19.5466 44.0362H4.28637C4.96835 48.8848 8.86212 53.5013 15.3744 57.0851C17.2634 58.1247 19.3503 59.0627 21.6035 59.8802C20.3797 55.0071 19.6582 49.654 19.5466 44.0362ZM25.0861 61.0083C23.6266 55.9228 22.7446 50.167 22.6178 44.0362H29.2486C35.1007 46.3225 39.7631 50.9868 42.0488 56.8421V63.4782C35.9216 63.3514 30.1688 62.4686 25.0861 61.0083ZM22.6238 63.472C19.4355 62.4557 16.5021 61.2121 13.8946 59.7771C10.6663 58.0006 7.8785 55.8922 5.73733 53.5166C9.48681 66.4343 19.6632 76.6165 32.5736 80.3679C30.1994 78.2255 28.0922 75.4362 26.3167 72.206C24.8825 69.5972 23.6396 66.6621 22.6238 63.472ZM42.0488 81.8197C37.2031 81.1374 32.5889 77.2414 29.0071 70.7255C27.9681 68.8355 27.0307 66.7473 26.2137 64.4929C31.084 65.7173 36.4341 66.4394 42.0488 66.551V81.8197ZM54.5945 80.3679C56.9688 78.2255 59.076 75.4362 60.8517 72.206C62.2857 69.5972 63.5286 66.6621 64.5444 63.472C67.7326 62.4557 70.666 61.2121 73.2737 59.7771C76.5019 58.0006 79.2898 55.8922 81.4308 53.5166C77.6814 66.4343 67.505 76.6165 54.5945 80.3679ZM60.9545 64.4929C60.1375 66.7473 59.2 68.8355 58.1611 70.7255C54.5795 77.2414 49.9653 81.1374 45.1194 81.8197V66.551C50.7341 66.4394 56.0842 65.7173 60.9545 64.4929ZM65.5647 59.8802C67.8178 59.0627 69.9049 58.1247 71.7938 57.0851C78.306 53.5013 82.1998 48.8848 82.8818 44.0362H67.6216C67.5101 49.654 66.7884 55.0071 65.5647 59.8802ZM64.5505 44.0362C64.4237 50.167 63.5415 55.9228 62.082 61.0083C56.9993 62.4686 51.2468 63.3514 45.1194 63.4782V56.8469C47.4044 50.9896 52.0676 46.3231 57.9215 44.0362H64.5505ZM67.6216 40.9638H82.8818C82.1998 36.1152 78.306 31.4985 71.7938 27.9149C69.9049 26.8753 67.8178 25.9373 65.5647 25.1198C66.7884 29.9929 67.5101 35.346 67.6216 40.9638ZM62.082 23.9917C63.5415 29.0772 64.4237 34.833 64.5505 40.9638H57.9215C52.0676 38.6769 47.4044 34.0104 45.1194 28.1531V21.5218C51.2468 21.6487 56.9993 22.5314 62.082 23.9917ZM64.5444 21.528C67.7326 22.5443 70.666 23.7879 73.2737 25.2229C76.5019 26.9994 79.2898 29.1078 81.4308 31.4834C77.6814 18.5657 67.505 8.38361 54.5945 4.63201C56.9688 6.77439 59.076 9.56375 60.8517 12.7939C62.2857 15.4029 63.5286 18.3379 64.5444 21.528ZM45.1194 3.18025C49.9653 3.86259 54.5795 7.75855 58.1611 14.2745C59.2 16.1645 60.1375 18.2526 60.9545 20.5072C56.0842 19.2826 50.7341 18.5606 45.1194 18.449V3.18025Z" fill="#222F49"/>
</svg>
