<svg width="153" height="58" viewBox="0 0 153 58" fill="none" xmlns="http://www.w3.org/2000/svg">
<path d="M70.1411 51.0953H74.1255V36.1395H70.1411V51.0953ZM70.1411 33.8072H74.1255V30.2505H70.1411V33.8072Z" fill="#F1FAFF"/>
<path d="M76.6929 55.9932H80.6773V49.4045H80.736C81.5855 50.6872 82.9625 51.5327 85.0719 51.5327C88.9391 51.5327 91.5758 48.4716 91.5758 43.6321C91.5758 38.9674 89.027 35.7314 85.0426 35.7314C82.9918 35.7314 81.5855 36.6935 80.6187 38.0053H80.5308V36.1396H76.6929V55.9932ZM84.2224 48.2383C81.8493 48.2383 80.5894 46.46 80.5894 43.7486C80.5894 41.0666 81.5855 38.9383 84.0758 38.9383C86.5367 38.9383 87.5328 40.9207 87.5328 43.7486C87.5328 46.5766 86.2439 48.2383 84.2224 48.2383Z" fill="#F1FAFF"/>
<path d="M99.5239 51.5327C103.274 51.5327 105.852 49.7251 105.852 46.7223C105.852 43.2239 103.069 42.5243 100.549 41.9995C98.4105 41.5622 96.4183 41.4455 96.4183 40.1628C96.4183 39.0841 97.4437 38.5009 98.9965 38.5009C100.696 38.5009 101.721 39.0841 101.897 40.6875H105.5C105.207 37.6847 103.01 35.7314 99.0551 35.7314C95.6273 35.7314 92.9319 37.2766 92.9319 40.5125C92.9319 43.7778 95.5687 44.5067 98.264 45.0315C100.315 45.4395 102.219 45.5854 102.219 47.0139C102.219 48.0634 101.223 48.7339 99.4651 48.7339C97.6781 48.7339 96.4476 47.976 96.184 46.2558H92.4924C92.7269 49.4337 95.1586 51.5327 99.5239 51.5327Z" fill="#F1FAFF"/>
<path d="M120.98 51.0951V36.1394H116.995V44.7688C116.995 46.7512 115.853 48.1506 113.978 48.1506C112.278 48.1506 111.487 47.1885 111.487 45.4393V36.1394H107.532V46.1099C107.532 49.375 109.407 51.5033 112.747 51.5033C114.857 51.5033 116.028 50.7161 117.054 49.3459H117.142V51.0951H120.98Z" fill="#F1FAFF"/>
<path d="M123.557 51.0954H127.541V42.4075C127.541 40.4251 128.625 39.1424 130.237 39.1424C131.702 39.1424 132.551 40.0169 132.551 41.7079V51.0954H136.536V42.4075C136.536 40.4251 137.561 39.1424 139.231 39.1424C140.696 39.1424 141.545 40.0169 141.545 41.7079V51.0954H145.53V41.0374C145.53 37.7722 143.743 35.7314 140.579 35.7314C138.674 35.7314 137.092 36.7227 136.067 38.3552H136.008C135.276 36.781 133.752 35.7314 131.848 35.7314C129.768 35.7314 128.303 36.781 127.483 38.1512H127.395V36.1396H123.557V51.0954Z" fill="#F1FAFF"/>
<path d="M70.1997 25.4793H74.1841V4.63452H70.1997V25.4793Z" fill="#F1FAFF"/>
<path d="M83.9264 25.9167C88.5847 25.9167 91.778 22.4766 91.778 18.0161C91.778 13.5556 88.5847 10.1155 83.9264 10.1155C79.2682 10.1155 76.0747 13.5556 76.0747 18.0161C76.0747 22.4766 79.2682 25.9167 83.9264 25.9167ZM83.9264 22.8847C81.4654 22.8847 80.1178 20.9314 80.1178 18.0161C80.1178 15.1007 81.4654 13.1183 83.9264 13.1183C86.3581 13.1183 87.7351 15.1007 87.7351 18.0161C87.7351 20.9314 86.3581 22.8847 83.9264 22.8847Z" fill="#F1FAFF"/>
<path d="M100.251 30.5813C102.478 30.5813 104.412 30.0566 105.671 28.8904C106.785 27.87 107.458 26.4415 107.458 24.3424V10.5236H103.621V12.0979H103.562C102.654 10.8443 101.277 10.1155 99.4017 10.1155C95.5931 10.1155 92.8977 12.9725 92.8977 17.433C92.8977 21.9518 96.179 24.5756 99.519 24.5756C101.423 24.5756 102.566 23.8177 103.445 22.8265H103.533V24.459C103.533 26.4997 102.449 27.5784 100.193 27.5784C98.347 27.5784 97.4975 26.8496 97.1752 25.9167H93.22C93.6302 28.8321 96.1498 30.5813 100.251 30.5813ZM100.193 21.3979C98.142 21.3979 96.7942 19.9111 96.7942 17.3747C96.7942 14.8675 98.142 13.2932 100.163 13.2932C102.566 13.2932 103.738 15.159 103.738 17.3456C103.738 19.5612 102.712 21.3979 100.193 21.3979Z" fill="#F1FAFF"/>
<path d="M117.143 25.9167C121.802 25.9167 124.995 22.4766 124.995 18.0161C124.995 13.5556 121.802 10.1155 117.143 10.1155C112.485 10.1155 109.292 13.5556 109.292 18.0161C109.292 22.4766 112.485 25.9167 117.143 25.9167ZM117.143 22.8847C114.682 22.8847 113.335 20.9314 113.335 18.0161C113.335 15.1007 114.682 13.1183 117.143 13.1183C119.575 13.1183 120.952 15.1007 120.952 18.0161C120.952 20.9314 119.575 22.8847 117.143 22.8847Z" fill="#F1FAFF"/>
<path d="M128.488 19.7655H145.714V16.3545H128.488V19.7655Z" fill="#F1FAFF"/>
<path d="M146.978 33.5991C146.978 32.9282 147.524 32.3843 148.199 32.3843H150.639C151.314 32.3843 151.86 32.9282 151.86 33.5991C151.86 34.2699 151.314 34.8138 150.639 34.8138H148.199C147.524 34.8138 146.978 34.2699 146.978 33.5991Z" fill="#F1FAFF"/>
<path fill-rule="evenodd" clip-rule="evenodd" d="M29.9029 0C45.998 0 59.0457 12.9837 59.0457 29C59.0457 45.0163 45.998 58 29.9029 58C13.8077 58 0.76001 45.0163 0.76001 29C0.76001 12.9837 13.8077 0 29.9029 0ZM28.8495 2.17006C25.5249 2.63565 22.3591 5.29407 19.9016 9.74023C19.1888 11.0299 18.5456 12.4547 17.985 13.9931C21.3266 13.1575 24.9972 12.6649 28.8495 12.5887V2.17006ZM15.522 14.6897C16.219 12.5129 17.0717 10.5102 18.0557 8.72994C19.2739 6.52586 20.7197 4.62253 22.3486 3.16067C13.4908 5.72058 6.50876 12.6683 3.93625 21.4828C5.4053 19.8618 7.31802 18.4231 9.53296 17.2109C11.322 16.2317 13.3345 15.3832 15.522 14.6897ZM14.822 17.1406C13.9824 20.4657 13.4873 24.1184 13.4107 27.9518H2.94075C3.40865 24.6433 6.08016 21.4931 10.5482 19.0478C11.8443 18.3384 13.2761 17.6984 14.822 17.1406ZM15.5179 27.9518C15.6049 23.7684 16.2101 19.8409 17.2114 16.3708C20.6987 15.3744 24.6456 14.772 28.8495 14.6855V19.2137C27.2812 23.209 24.0824 26.3917 20.0673 27.9518H15.5179ZM13.4107 30.0482H2.94075C3.40865 33.3567 6.08016 36.5068 10.5482 38.9522C11.8443 39.6616 13.2761 40.3016 14.822 40.8594C13.9824 37.5343 13.4873 33.8816 13.4107 30.0482ZM17.2114 41.6292C16.2101 38.1591 15.6049 34.2316 15.5179 30.0482H20.0673C24.0824 31.6083 27.2813 34.791 28.8495 38.7863V43.3145C24.6456 43.228 20.6987 42.6257 17.2114 41.6292ZM15.522 43.3103C13.3345 42.6168 11.322 41.7683 9.53296 40.7891C7.31802 39.5769 5.4053 38.1382 3.93625 36.5172C6.50876 45.3316 13.4908 52.2795 22.3486 54.8393C20.7197 53.3774 19.2739 51.4741 18.0557 49.27C17.0717 47.4898 16.219 45.4871 15.522 43.3103ZM28.8495 55.8299C25.5249 55.3643 22.3591 52.7059 19.9016 48.2598C19.1888 46.9701 18.5456 45.5452 17.985 44.0069C21.3266 44.8424 24.9972 45.3351 28.8495 45.4112V55.8299ZM37.4571 54.8393C39.0861 53.3774 40.5318 51.4741 41.7502 49.27C42.734 47.4898 43.5867 45.4871 44.2837 43.3103C46.4712 42.6168 48.4838 41.7683 50.2728 40.7891C52.4877 39.5769 54.4005 38.1382 55.8694 36.5172C53.297 45.3316 46.3149 52.2795 37.4571 54.8393ZM41.8207 44.0069C41.2601 45.5452 40.6169 46.9701 39.9041 48.2598C37.4468 52.7059 34.281 55.3643 30.9562 55.8299V45.4112C34.8085 45.3351 38.4792 44.8424 41.8207 44.0069ZM44.9837 40.8594C46.5296 40.3016 47.9615 39.6616 49.2575 38.9522C53.7255 36.5068 56.3971 33.3567 56.865 30.0482H46.3949C46.3184 33.8816 45.8233 37.5343 44.9837 40.8594ZM44.2879 30.0482C44.2009 34.2316 43.5956 38.1591 42.5943 41.6292C39.107 42.6257 35.1602 43.228 30.9562 43.3145V38.7897C32.524 34.7929 35.7234 31.6087 39.7397 30.0482H44.2879ZM46.3949 27.9518H56.865C56.3971 24.6433 53.7255 21.4931 49.2575 19.0478C47.9615 18.3384 46.5296 17.6984 44.9837 17.1406C45.8233 20.4657 46.3184 24.1184 46.3949 27.9518ZM42.5943 16.3708C43.5956 19.8409 44.2009 23.7684 44.2879 27.9518H39.7397C35.7234 26.3913 32.524 23.2071 30.9562 19.2103V14.6855C35.1602 14.772 39.107 15.3744 42.5943 16.3708ZM44.2837 14.6897C46.4712 15.3832 48.4838 16.2317 50.2728 17.2109C52.4877 18.4231 54.4005 19.8618 55.8694 21.4828C53.297 12.6683 46.3149 5.72058 37.4571 3.16067C39.0861 4.62253 40.5318 6.52586 41.7502 8.72994C42.734 10.5102 43.5867 12.5129 44.2837 14.6897ZM30.9562 2.17006C34.281 2.63565 37.4468 5.29407 39.9041 9.74023C40.6169 11.0299 41.2601 12.4547 41.8207 13.9931C38.4792 13.1575 34.8085 12.6649 30.9562 12.5887V2.17006Z" fill="#F1FAFF"/>
</svg>
