<svg width="48" height="48" viewBox="0 0 48 48" fill="none" xmlns="http://www.w3.org/2000/svg">
<path d="M8 38V34H12V20C12 17.2333 12.8333 14.7833 14.5 12.65C16.1667 10.4833 18.3333 9.06666 21 8.4V7C21 6.16667 21.2833 5.46667 21.85 4.9C22.45 4.3 23.1667 4 24 4C24.8333 4 25.5333 4.3 26.1 4.9C26.7 5.46667 27 6.16667 27 7V8.4C29.6667 9.06666 31.8333 10.4833 33.5 12.65C35.1667 14.7833 36 17.2333 36 20V34H40V38H8ZM24 44C22.9 44 21.95 43.6167 21.15 42.85C20.3833 42.05 20 41.1 20 40H28C28 41.1 27.6 42.05 26.8 42.85C26.0333 43.6167 25.1 44 24 44ZM16 34H32V20C32 17.8 31.2167 15.9167 29.65 14.35C28.0833 12.7833 26.2 12 24 12C21.8 12 19.9167 12.7833 18.35 14.35C16.7833 15.9167 16 17.8 16 20V34Z" fill="#222F49"/>
</svg>
