<svg width="50" height="50" viewBox="0 0 50 50" fill="none" xmlns="http://www.w3.org/2000/svg">
<path d="M14.5833 8.33329C14.0308 8.33329 13.5009 8.55279 13.1102 8.94349C12.7195 9.33419 12.5 9.86409 12.5 10.4166C12.5 10.9692 12.7195 11.4991 13.1102 11.8898C13.5009 12.2805 14.0308 12.5 14.5833 12.5C15.1358 12.5 15.6657 12.2805 16.0564 11.8898C16.4471 11.4991 16.6666 10.9692 16.6666 10.4166C16.6666 9.86409 16.4471 9.33419 16.0564 8.94349C15.6657 8.55279 15.1358 8.33329 14.5833 8.33329ZM8.33329 10.4166C8.33329 9.59586 8.49495 8.78314 8.80905 8.02485C9.12314 7.26657 9.58351 6.57757 10.1639 5.99721C10.7442 5.41684 11.4332 4.95647 12.1915 4.64238C12.9498 4.32829 13.7625 4.16663 14.5833 4.16663C15.4041 4.16663 16.2168 4.32829 16.9751 4.64238C17.7333 4.95647 18.4223 5.41684 19.0027 5.99721C19.5831 6.57757 20.0434 7.26657 20.3575 8.02485C20.6716 8.78314 20.8333 9.59586 20.8333 10.4166C20.8333 12.0742 20.1748 13.6639 19.0027 14.836C17.8306 16.0081 16.2409 16.6666 14.5833 16.6666C12.9257 16.6666 11.336 16.0081 10.1639 14.836C8.99177 13.6639 8.33329 12.0742 8.33329 10.4166ZM14.5833 37.5C14.5833 36.3949 15.0223 35.3351 15.8037 34.5537C16.5851 33.7723 17.6449 33.3333 18.75 33.3333H31.25C32.355 33.3333 33.4148 33.7723 34.1962 34.5537C34.9776 35.3351 35.4166 36.3949 35.4166 37.5V38.1958C35.4166 40.6416 33.9291 42.6041 32.05 43.8541C30.1541 45.125 27.6541 45.8333 25 45.8333C22.3458 45.8333 19.8458 45.1208 17.95 43.8541C16.075 42.6041 14.5833 40.6416 14.5833 38.1958V37.5ZM18.75 37.5V38.1958C18.75 38.8166 19.125 39.6333 20.2625 40.3875C21.3875 41.1375 23.0541 41.6666 25 41.6666C26.9458 41.6666 28.6166 41.1375 29.7375 40.3875C30.8708 39.6333 31.25 38.8166 31.25 38.1958V37.5H18.75ZM33.3333 10.4166C33.3333 9.86409 33.5528 9.33419 33.9435 8.94349C34.3342 8.55279 34.8641 8.33329 35.4166 8.33329C35.9692 8.33329 36.4991 8.55279 36.8898 8.94349C37.2805 9.33419 37.5 9.86409 37.5 10.4166C37.5 10.9692 37.2805 11.4991 36.8898 11.8898C36.4991 12.2805 35.9692 12.5 35.4166 12.5C34.8641 12.5 34.3342 12.2805 33.9435 11.8898C33.5528 11.4991 33.3333 10.9692 33.3333 10.4166ZM35.4166 4.16663C33.759 4.16663 32.1693 4.82511 30.9972 5.99721C29.8251 7.16931 29.1666 8.75902 29.1666 10.4166C29.1666 12.0742 29.8251 13.6639 30.9972 14.836C32.1693 16.0081 33.759 16.6666 35.4166 16.6666C37.0742 16.6666 38.6639 16.0081 39.836 14.836C41.0081 13.6639 41.6666 12.0742 41.6666 10.4166C41.6666 8.75902 41.0081 7.16931 39.836 5.99721C38.6639 4.82511 37.0742 4.16663 35.4166 4.16663ZM25 20.8333C24.4474 20.8333 23.9175 21.0528 23.5268 21.4435C23.1361 21.8342 22.9166 22.3641 22.9166 22.9166C22.9166 23.4692 23.1361 23.9991 23.5268 24.3898C23.9175 24.7805 24.4474 25 25 25C25.5525 25 26.0824 24.7805 26.4731 24.3898C26.8638 23.9991 27.0833 23.4692 27.0833 22.9166C27.0833 22.3641 26.8638 21.8342 26.4731 21.4435C26.0824 21.0528 25.5525 20.8333 25 20.8333ZM18.75 22.9166C18.75 21.259 19.4084 19.6693 20.5805 18.4972C21.7526 17.3251 23.3424 16.6666 25 16.6666C26.6576 16.6666 28.2473 17.3251 29.4194 18.4972C30.5915 19.6693 31.25 21.259 31.25 22.9166C31.25 24.5742 30.5915 26.1639 29.4194 27.336C28.2473 28.5081 26.6576 29.1666 25 29.1666C23.3424 29.1666 21.7526 28.5081 20.5805 27.336C19.4084 26.1639 18.75 24.5742 18.75 22.9166ZM14.7916 20.8333H8.33329C7.22822 20.8333 6.16842 21.2723 5.38701 22.0537C4.60561 22.8351 4.16663 23.8949 4.16663 25V25.8625C4.16663 28.3458 5.59579 30.3875 7.48746 31.725C8.62079 32.5291 9.97496 33.125 11.4541 33.475C11.9864 32.5081 12.7055 31.6567 13.5695 30.97C14.4336 30.2834 15.4254 29.7752 16.4875 29.475C15.8902 29.6 15.2555 29.6638 14.5833 29.6666C12.6625 29.6666 11.0083 29.1125 9.89163 28.325C8.77079 27.5333 8.33329 26.625 8.33329 25.8625V25H14.7916C14.511 23.6252 14.511 22.208 14.7916 20.8333ZM35.2083 25H41.6666V25.8625C41.6666 26.6291 41.2291 27.5291 40.1083 28.3208C38.9916 29.1125 37.3375 29.6666 35.4166 29.6666C34.7444 29.6666 34.1097 29.6041 33.5125 29.4791C35.6791 30.0875 37.4833 31.5458 38.5458 33.475C40.025 33.125 41.3791 32.5291 42.5125 31.725C44.4041 30.3916 45.8333 28.3458 45.8333 25.8625V25C45.8333 23.8949 45.3943 22.8351 44.6129 22.0537C43.8315 21.2723 42.7717 20.8333 41.6666 20.8333H35.2083C35.4889 22.208 35.4889 23.6252 35.2083 25Z" fill="#222F49"/>
</svg>
