<svg width="70" height="70" viewBox="0 0 70 70" fill="none" xmlns="http://www.w3.org/2000/svg">
<path d="M49.5834 7.16334C51.7446 7.57459 53.028 8.02959 54.1334 9.39459C55.5246 11.1038 55.4517 12.95 55.303 16.6425C54.778 29.9221 51.803 46.6667 35.003 46.6667C18.203 46.6667 15.2251 29.925 14.6942 16.6425C14.5484 12.95 14.4755 11.1008 15.8609 9.39459C17.2492 7.68543 18.9088 7.40543 22.2309 6.84543C26.4518 6.154 30.7229 5.81547 35.0001 5.83334C37.0962 5.83723 39.0406 5.90334 40.8334 6.03168" stroke="#222F49" stroke-width="2" stroke-linecap="round"/>
<path d="M55.4167 14.5833L58.1846 15.505C61.0721 16.4675 62.5159 16.9488 63.3413 18.095C64.1667 19.2413 64.1667 20.7667 64.1667 23.8058V24.0188C64.1667 26.5271 64.1667 27.7842 63.563 28.8108C62.9592 29.8375 61.8596 30.4471 59.6663 31.6692L51.0417 36.4583M14.5834 14.5833L11.8155 15.505C8.92796 16.4675 7.48421 16.9488 6.65879 18.095C5.83337 19.2413 5.83337 20.7667 5.83337 23.8058V24.0188C5.83337 26.5271 5.83337 27.7842 6.43712 28.8108C7.04087 29.8375 8.14046 30.4471 10.3338 31.6692L18.9584 36.4583" stroke="#222F49" stroke-width="2"/>
<path d="M35 49.5833V55.4167" stroke="#222F49" stroke-width="2" stroke-linecap="round"/>
<path d="M45.2084 64.1667H24.7917L25.7834 59.22C25.9155 58.5591 26.2725 57.9643 26.7936 57.5368C27.3147 57.1092 27.9677 56.8754 28.6417 56.875H41.3584C42.0324 56.8754 42.6855 57.1092 43.2066 57.5368C43.7277 57.9643 44.0846 58.5591 44.2167 59.22L45.2084 64.1667Z" stroke="#222F49" stroke-width="2" stroke-linecap="round" stroke-linejoin="round"/>
<path d="M52.5 64.1667H17.5" stroke="#222F49" stroke-width="2" stroke-linecap="round"/>
</svg>
