<svg width="91" height="91" viewBox="0 0 91 91" fill="none" xmlns="http://www.w3.org/2000/svg">
<path d="M38.948 14.0481C39.3439 14.6815 39.6111 15.3866 39.7344 16.1233C39.8578 16.8599 39.8348 17.6136 39.6669 18.3414C39.4989 19.0692 39.1893 19.7567 38.7556 20.3648C38.3219 20.9729 37.7727 21.4897 37.1394 21.8855C30.2171 26.1972 24.7179 32.452 21.3281 39.8694C24.7514 39.5831 28.1813 40.3368 31.1692 42.0318C34.157 43.7269 36.5637 46.2843 38.0743 49.3695C39.5849 52.4547 40.129 55.9241 39.6355 59.3236C39.1421 62.7232 37.6339 65.8946 35.3085 68.423C32.9831 70.9514 29.9486 72.719 26.6021 73.4945C23.2556 74.2701 19.7529 74.0174 16.5524 72.7697C13.3518 71.5219 10.6024 69.3371 8.6639 66.5012C6.72537 63.6652 5.688 60.3102 5.6875 56.875V56.7215C5.69368 56.2812 5.71265 55.8411 5.74437 55.402C5.79556 54.5488 5.89794 53.3545 6.097 51.8871C6.49513 48.9694 7.27431 44.9483 8.84975 40.4325C11.9892 31.3893 18.3479 20.2134 31.1106 12.2395C31.744 11.8437 32.4491 11.5764 33.1858 11.4531C33.9224 11.3297 34.6761 11.3527 35.4039 11.5207C36.1317 11.6886 36.8192 11.9982 37.4273 12.4319C38.0354 12.8656 38.5521 13.4148 38.948 14.0481ZM78.7605 14.0481C79.1563 14.6815 79.4236 15.3866 79.5469 16.1233C79.6703 16.8599 79.6473 17.6136 79.4794 18.3414C79.3114 19.0692 79.0018 19.7567 78.5681 20.3648C78.1344 20.9729 77.5852 21.4897 76.9519 21.8855C70.0296 26.1972 64.5304 32.452 61.1406 39.8694C64.5639 39.5831 67.9938 40.3368 70.9817 42.0318C73.9695 43.7269 76.3762 46.2843 77.8868 49.3695C79.3974 52.4547 79.9415 55.9241 79.448 59.3236C78.9546 62.7232 77.4464 65.8946 75.121 68.423C72.7955 70.9514 69.7611 72.719 66.4146 73.4945C63.0681 74.2701 59.5654 74.0174 56.3649 72.7697C53.1643 71.5219 50.4149 69.3371 48.4764 66.5012C46.5379 63.6652 45.5005 60.3102 45.5 56.875V56.7215C45.5062 56.2812 45.5252 55.8411 45.5569 55.402C45.6081 54.5488 45.7104 53.3545 45.9095 51.8871C46.3076 48.9694 47.0868 44.9483 48.6622 40.4325C51.8018 31.3893 58.1604 20.2134 70.9231 12.2395C71.5565 11.8437 72.2616 11.5764 72.9983 11.4531C73.7349 11.3297 74.4886 11.3527 75.2164 11.5207C75.9442 11.6886 76.6317 11.9982 77.2398 12.4319C77.8479 12.8656 78.3646 13.4148 78.7605 14.0481Z" fill="#222F49"/>
</svg>
