<svg width="25" height="24" viewBox="0 0 25 24" fill="none" xmlns="http://www.w3.org/2000/svg">
<path d="M12.5 12.75C12.5 12.9489 12.421 13.1397 12.2803 13.2803C12.1397 13.421 11.9489 13.5 11.75 13.5H7.25C7.05109 13.5 6.86032 13.421 6.71967 13.2803C6.57902 13.1397 6.5 12.9489 6.5 12.75C6.5 12.5511 6.57902 12.3603 6.71967 12.2197C6.86032 12.079 7.05109 12 7.25 12H11.75C11.9489 12 12.1397 12.079 12.2803 12.2197C12.421 12.3603 12.5 12.5511 12.5 12.75ZM11.75 9H7.25C7.05109 9 6.86032 9.07902 6.71967 9.21967C6.57902 9.36032 6.5 9.55109 6.5 9.75C6.5 9.94891 6.57902 10.1397 6.71967 10.2803C6.86032 10.421 7.05109 10.5 7.25 10.5H11.75C11.9489 10.5 12.1397 10.421 12.2803 10.2803C12.421 10.1397 12.5 9.94891 12.5 9.75C12.5 9.55109 12.421 9.36032 12.2803 9.21967C12.1397 9.07902 11.9489 9 11.75 9ZM22.25 15.1378V21C22.2512 21.1322 22.2174 21.2624 22.1521 21.3774C22.0867 21.4923 21.9921 21.588 21.8779 21.6546C21.7637 21.7212 21.6339 21.7565 21.5017 21.7567C21.3695 21.757 21.2395 21.7224 21.125 21.6562L18.875 20.3681L16.625 21.6562C16.5105 21.7224 16.3805 21.757 16.2483 21.7567C16.1161 21.7565 15.9863 21.7212 15.8721 21.6546C15.7579 21.588 15.6633 21.4923 15.5979 21.3774C15.5326 21.2624 15.4988 21.1322 15.5 21V18.75H4.25C3.85218 18.75 3.47064 18.592 3.18934 18.3107C2.90804 18.0294 2.75 17.6478 2.75 17.25V5.25C2.75 4.85218 2.90804 4.47064 3.18934 4.18934C3.47064 3.90804 3.85218 3.75 4.25 3.75H20.75C21.1478 3.75 21.5294 3.90804 21.8107 4.18934C22.092 4.47064 22.25 4.85218 22.25 5.25V8.11219C22.7241 8.5662 23.1014 9.11149 23.3592 9.71521C23.6169 10.3189 23.7498 10.9686 23.7498 11.625C23.7498 12.2814 23.6169 12.9311 23.3592 13.5348C23.1014 14.1385 22.7241 14.6838 22.25 15.1378ZM15.5 17.25V15.1378C14.6827 14.3496 14.1662 13.3008 14.0396 12.1724C13.9129 11.044 14.1842 9.90685 14.8065 8.95709C15.4287 8.00733 16.363 7.30458 17.4481 6.97011C18.5332 6.63563 19.701 6.69041 20.75 7.125V5.25H4.25V17.25H15.5ZM20.75 16.125C20.156 16.3732 19.5187 16.5009 18.875 16.5009C18.2313 16.5009 17.594 16.3732 17 16.125V19.7081L18.5 18.8494C18.6133 18.7846 18.7416 18.7505 18.8722 18.7505C19.0027 18.7505 19.131 18.7846 19.2444 18.8494L20.7444 19.7081L20.75 16.125ZM22.25 11.625C22.25 10.9575 22.0521 10.305 21.6812 9.74995C21.3104 9.19493 20.7833 8.76235 20.1666 8.50691C19.5499 8.25146 18.8713 8.18462 18.2166 8.31485C17.5619 8.44507 16.9605 8.76651 16.4885 9.23851C16.0165 9.71052 15.6951 10.3119 15.5648 10.9666C15.4346 11.6213 15.5015 12.2999 15.7569 12.9166C16.0124 13.5333 16.4449 14.0604 17 14.4312C17.555 14.8021 18.2075 15 18.875 15C19.3182 15 19.7571 14.9127 20.1666 14.7431C20.576 14.5735 20.9481 14.3249 21.2615 14.0115C21.5749 13.6981 21.8235 13.326 21.9931 12.9166C22.1627 12.5071 22.25 12.0682 22.25 11.625Z" fill="#222F49"/>
</svg>
