<svg width="175" height="27" viewBox="0 0 175 27" fill="none" xmlns="http://www.w3.org/2000/svg">
<path d="M21.1021 26.1127C20.7778 26.1127 20.4551 26.0132 20.1774 25.8149L13.647 21.1316L7.11659 25.8149C6.56028 26.2131 5.81373 26.2131 5.26063 25.8085C4.70753 25.4079 4.47473 24.6967 4.68184 24.0472L7.11739 16.1867L0.645607 11.6263C0.095722 11.2209 -0.133062 10.508 0.0772586 9.8578C0.289185 9.20917 0.892855 8.76846 1.57519 8.76365L9.59067 8.7516L12.1426 1.08612C12.3578 0.436697 12.9638 0 13.647 0C14.3301 0 14.9362 0.4375 15.1521 1.08612L17.6607 8.7516L25.7172 8.76365C26.4019 8.76846 27.0064 9.20998 27.2159 9.8578C27.427 10.508 27.1982 11.2209 26.6476 11.6263L20.1758 16.1867L22.6113 24.0472C22.82 24.6967 22.5848 25.4079 22.0333 25.8085C21.7548 26.0124 21.4289 26.1127 21.1021 26.1127Z" fill="#FFAC33"/>
<path d="M58.0287 26.1127C57.7043 26.1127 57.3816 26.0132 57.1039 25.8149L50.5735 21.1316L44.0431 25.8149C43.4868 26.2131 42.7402 26.2131 42.1871 25.8085C41.634 25.4079 41.4012 24.6967 41.6084 24.0472L44.0439 16.1867L37.5721 11.6263C37.0222 11.2209 36.7935 10.508 37.0038 9.8578C37.2157 9.20917 37.8194 8.76846 38.5017 8.76365L46.5172 8.7516L49.0691 1.08612C49.2843 0.436697 49.8904 0 50.5735 0C51.2566 0 51.8627 0.4375 52.0787 1.08612L54.5873 8.7516L62.6437 8.76365C63.3284 8.76846 63.9329 9.20998 64.1424 9.8578C64.3535 10.508 64.1248 11.2209 63.5741 11.6263L57.1023 16.1867L59.5378 24.0472C59.7465 24.6967 59.5113 25.4079 58.9598 25.8085C58.6813 26.0124 58.3554 26.1127 58.0287 26.1127Z" fill="#FFAC33"/>
<path d="M94.9554 26.1127C94.6311 26.1127 94.3084 26.0132 94.0306 25.8149L87.5003 21.1316L80.9699 25.8149C80.4136 26.2131 79.667 26.2131 79.1139 25.8085C78.5608 25.4079 78.328 24.6967 78.5351 24.0472L80.9707 16.1867L74.4989 11.6263C73.949 11.2209 73.7202 10.508 73.9305 9.8578C74.1425 9.20917 74.7461 8.76846 75.4285 8.76365L83.4439 8.7516L85.9959 1.08612C86.211 0.436697 86.8171 0 87.5003 0C88.1834 0 88.7895 0.4375 89.0054 1.08612L91.514 8.7516L99.5704 8.76365C100.255 8.76846 100.86 9.20998 101.069 9.8578C101.28 10.508 101.052 11.2209 100.501 11.6263L94.029 16.1867L96.4646 24.0472C96.6733 24.6967 96.4381 25.4079 95.8866 25.8085C95.608 26.0124 95.2821 26.1127 94.9554 26.1127Z" fill="#FFAC33"/>
<path d="M131.882 26.1127C131.558 26.1127 131.235 26.0132 130.957 25.8149L124.427 21.1316L117.896 25.8149C117.34 26.2131 116.594 26.2131 116.04 25.8085C115.487 25.4079 115.255 24.6967 115.462 24.0472L117.897 16.1867L111.425 11.6263C110.876 11.2209 110.647 10.508 110.857 9.8578C111.069 9.20917 111.673 8.76846 112.355 8.76365L120.37 8.7516L122.922 1.08612C123.138 0.436697 123.744 0 124.427 0C125.11 0 125.716 0.4375 125.932 1.08612L128.441 8.7516L136.497 8.76365C137.182 8.76846 137.786 9.20998 137.996 9.8578C138.207 10.508 137.978 11.2209 137.427 11.6263L130.956 16.1867L133.391 24.0472C133.6 24.6967 133.365 25.4079 132.813 25.8085C132.535 26.0124 132.209 26.1127 131.882 26.1127Z" fill="#FFAC33"/>
<path d="M168.808 26.1127C168.484 26.1127 168.161 26.0132 167.884 25.8149L161.353 21.1316L154.823 25.8149C154.267 26.2131 153.52 26.2131 152.967 25.8085C152.414 25.4079 152.181 24.6967 152.388 24.0472L154.824 16.1867L148.352 11.6263C147.802 11.2209 147.573 10.508 147.784 9.8578C147.995 9.20917 148.599 8.76846 149.281 8.76365L157.297 8.7516L159.849 1.08612C160.064 0.436697 160.67 0 161.353 0C162.036 0 162.642 0.4375 162.858 1.08612L165.367 8.7516L173.423 8.76365C174.108 8.76846 174.713 9.20998 174.922 9.8578C175.133 10.508 174.905 11.2209 174.354 11.6263L167.882 16.1867L170.318 24.0472C170.526 24.6967 170.291 25.4079 169.74 25.8085C169.461 26.0124 169.135 26.1127 168.808 26.1127Z" fill="#FFAC33"/>
</svg>
