<svg width="50" height="50" viewBox="0 0 50 50" fill="none" xmlns="http://www.w3.org/2000/svg">
<g clip-path="url(#clip0_17_249)">
<path d="M22.6787 1.78571H45.1858C46.8608 1.78571 48.218 3.14285 48.218 4.81785V29.025C48.218 30.7036 46.8608 32.0607 45.1858 32.0607H26.7858M11.2465 14.2893C12.9046 14.2893 14.4948 13.6306 15.6672 12.4582C16.8397 11.2857 17.4983 9.69557 17.4983 8.03749C17.4983 6.37941 16.8397 4.78925 15.6672 3.61681C14.4948 2.44437 12.9046 1.78571 11.2465 1.78571C9.58846 1.78571 7.99829 2.44437 6.82586 3.61681C5.65342 4.78925 4.99475 6.37941 4.99475 8.03749C4.99475 9.69557 5.65342 11.2857 6.82586 12.4582C7.99829 13.6306 9.58846 14.2893 11.2465 14.2893Z" stroke="#222F49" stroke-width="2.28571" stroke-linecap="round" stroke-linejoin="round"/>
<path d="M32.1429 19.7393C32.1429 17.7143 30.5001 16.0714 28.4751 16.0714H11.2465C8.73763 16.0724 6.33181 17.0694 4.55779 18.8434C2.78377 20.6175 1.78671 23.0233 1.78577 25.5321V33.9286H5.83934L7.19291 48.2143H15.3001L18.4143 23.4107H28.4751C30.5001 23.4107 32.1429 21.7678 32.1429 19.7393Z" stroke="#222F49" stroke-width="2.28571" stroke-linecap="round" stroke-linejoin="round"/>
</g>
<defs>
<clipPath id="clip0_17_249">
<rect width="50" height="50" fill="white"/>
</clipPath>
</defs>
</svg>
